/* XPM */
static char *Texture1[] = {
/* columns rows colors chars-per-pixel */
"128 128 6 1 ",
"  c #3A5A8E",
". c #2F4972",
"X c #6C6C6A",
"o c #273868",
"O c #7B7882",
"+ c #9A929D",
/* pixels */
"                        ........XXXXXXXX                                                ........XXXXXXXX                        ",
"                        ........XXXXXXXX                                                ........XXXXXXXX                        ",
"                        ........XXXXXXXX                                                ........XXXXXXXX                        ",
"                        ........XXXXXXXX                                                ........XXXXXXXX                        ",
"                        ........XXXXXXXX                                                ........XXXXXXXX                        ",
"                        ........XXXXXXXX                                                ........XXXXXXXX                        ",
"                        ........XXXXXXXX                                                ........XXXXXXXX                        ",
"                        ........XXXXXXXX                                                ........XXXXXXXX                        ",
"........................ooooooooXXXXXXXX        ........................................ooooooooXXXXXXXX        ................",
"........................ooooooooXXXXXXXX        ........................................ooooooooXXXXXXXX        ................",
"........................ooooooooXXXXXXXX        ........................................ooooooooXXXXXXXX        ................",
"........................ooooooooXXXXXXXX        ........................................ooooooooXXXXXXXX        ................",
"........................ooooooooXXXXXXXX        ........................................ooooooooXXXXXXXX        ................",
"........................ooooooooXXXXXXXX        ........................................ooooooooXXXXXXXX        ................",
"........................ooooooooXXXXXXXX        ........................................ooooooooXXXXXXXX        ................",
"........................ooooooooXXXXXXXX        ........................................ooooooooXXXXXXXX        ................",
"ooooooooooooooooooooooooooooooooOOOOOOOO........oooooooooooooooooooooooooooooooooooooooooooooooo++++++++........oooooooooooooooo",
"ooooooooooooooooooooooooooooooooOOOOOOOO........oooooooooooooooooooooooooooooooooooooooooooooooo++++++++........oooooooooooooooo",
"ooooooooooooooooooooooooooooooooOOOOOOOO........oooooooooooooooooooooooooooooooooooooooooooooooo++++++++........oooooooooooooooo",
"ooooooooooooooooooooooooooooooooOOOOOOOO........oooooooooooooooooooooooooooooooooooooooooooooooo++++++++........oooooooooooooooo",
"ooooooooooooooooooooooooooooooooOOOOOOOO........oooooooooooooooooooooooooooooooooooooooooooooooo++++++++........oooooooooooooooo",
"ooooooooooooooooooooooooooooooooOOOOOOOO........oooooooooooooooooooooooooooooooooooooooooooooooo++++++++........oooooooooooooooo",
"ooooooooooooooooooooooooooooooooOOOOOOOO........oooooooooooooooooooooooooooooooooooooooooooooooo++++++++........oooooooooooooooo",
"ooooooooooooooooooooooooooooooooOOOOOOOO........oooooooooooooooooooooooooooooooooooooooooooooooo++++++++........oooooooooooooooo",
"XXXXXXXXOOOOOOOOOOOOOOOOOOOOOOOOOOOOOOOOXXXXXXXXXXXXXXXXXXXXXXXXXXXXXXXXOOOOOOOO++++++++++++++++++++++++XXXXXXXXXXXXXXXXXXXXXXXX",
"XXXXXXXXOOOOOOOOOOOOOOOOOOOOOOOOOOOOOOOOXXXXXXXXXXXXXXXXXXXXXXXXXXXXXXXXOOOOOOOO++++++++++++++++++++++++XXXXXXXXXXXXXXXXXXXXXXXX",
"XXXXXXXXOOOOOOOOOOOOOOOOOOOOOOOOOOOOOOOOXXXXXXXXXXXXXXXXXXXXXXXXXXXXXXXXOOOOOOOO++++++++++++++++++++++++XXXXXXXXXXXXXXXXXXXXXXXX",
"XXXXXXXXOOOOOOOOOOOOOOOOOOOOOOOOOOOOOOOOXXXXXXXXXXXXXXXXXXXXXXXXXXXXXXXXOOOOOOOO++++++++++++++++++++++++XXXXXXXXXXXXXXXXXXXXXXXX",
"XXXXXXXXOOOOOOOOOOOOOOOOOOOOOOOOOOOOOOOOXXXXXXXXXXXXXXXXXXXXXXXXXXXXXXXXOOOOOOOO++++++++++++++++++++++++XXXXXXXXXXXXXXXXXXXXXXXX",
"XXXXXXXXOOOOOOOOOOOOOOOOOOOOOOOOOOOOOOOOXXXXXXXXXXXXXXXXXXXXXXXXXXXXXXXXOOOOOOOO++++++++++++++++++++++++XXXXXXXXXXXXXXXXXXXXXXXX",
"XXXXXXXXOOOOOOOOOOOOOOOOOOOOOOOOOOOOOOOOXXXXXXXXXXXXXXXXXXXXXXXXXXXXXXXXOOOOOOOO++++++++++++++++++++++++XXXXXXXXXXXXXXXXXXXXXXXX",
"XXXXXXXXOOOOOOOOOOOOOOOOOOOOOOOOOOOOOOOOXXXXXXXXXXXXXXXXXXXXXXXXXXXXXXXXOOOOOOOO++++++++++++++++++++++++XXXXXXXXXXXXXXXXXXXXXXXX",
"OOOOOOOO                                                ........OOOOOOOO                                                ........",
"OOOOOOOO                                                ........OOOOOOOO                                                ........",
"OOOOOOOO                                                ........OOOOOOOO                                                ........",
"OOOOOOOO                                                ........OOOOOOOO                                                ........",
"OOOOOOOO                                                ........OOOOOOOO                                                ........",
"OOOOOOOO                                                ........OOOOOOOO                                                ........",
"OOOOOOOO                                                ........OOOOOOOO                                                ........",
"OOOOOOOO                                                ........OOOOOOOO                                                ........",
"++++++++        ........................................ooooooooOOOOOOOO        ........................................oooooooo",
"++++++++        ........................................ooooooooOOOOOOOO        ........................................oooooooo",
"++++++++        ........................................ooooooooOOOOOOOO        ........................................oooooooo",
"++++++++        ........................................ooooooooOOOOOOOO        ........................................oooooooo",
"++++++++        ........................................ooooooooOOOOOOOO        ........................................oooooooo",
"++++++++        ........................................ooooooooOOOOOOOO        ........................................oooooooo",
"++++++++        ........................................ooooooooOOOOOOOO        ........................................oooooooo",
"++++++++        ........................................ooooooooOOOOOOOO        ........................................oooooooo",
"XXXXXXXX........ooooooooooooooooooooooooooooooooooooooooooooooooOOOOOOOO........oooooooooooooooooooooooooooooooooooooooooooooooo",
"XXXXXXXX........ooooooooooooooooooooooooooooooooooooooooooooooooOOOOOOOO........oooooooooooooooooooooooooooooooooooooooooooooooo",
"XXXXXXXX........ooooooooooooooooooooooooooooooooooooooooooooooooOOOOOOOO........oooooooooooooooooooooooooooooooooooooooooooooooo",
"XXXXXXXX........ooooooooooooooooooooooooooooooooooooooooooooooooOOOOOOOO........oooooooooooooooooooooooooooooooooooooooooooooooo",
"XXXXXXXX........ooooooooooooooooooooooooooooooooooooooooooooooooOOOOOOOO........oooooooooooooooooooooooooooooooooooooooooooooooo",
"XXXXXXXX........ooooooooooooooooooooooooooooooooooooooooooooooooOOOOOOOO........oooooooooooooooooooooooooooooooooooooooooooooooo",
"XXXXXXXX........ooooooooooooooooooooooooooooooooooooooooooooooooOOOOOOOO........oooooooooooooooooooooooooooooooooooooooooooooooo",
"XXXXXXXX........ooooooooooooooooooooooooooooooooooooooooooooooooOOOOOOOO........oooooooooooooooooooooooooooooooooooooooooooooooo",
"XXXXXXXX++++++++OOOOOOOOXXXXXXXXXXXXXXXXXXXXXXXXXXXXXXXXOOOOOOOO++++++++++++++++++++++++XXXXXXXXXXXXXXXXXXXXXXXXXXXXXXXXXXXXXXXX",
"XXXXXXXX++++++++OOOOOOOOXXXXXXXXXXXXXXXXXXXXXXXXXXXXXXXXOOOOOOOO++++++++++++++++++++++++XXXXXXXXXXXXXXXXXXXXXXXXXXXXXXXXXXXXXXXX",
"XXXXXXXX++++++++OOOOOOOOXXXXXXXXXXXXXXXXXXXXXXXXXXXXXXXXOOOOOOOO++++++++++++++++++++++++XXXXXXXXXXXXXXXXXXXXXXXXXXXXXXXXXXXXXXXX",
"XXXXXXXX++++++++OOOOOOOOXXXXXXXXXXXXXXXXXXXXXXXXXXXXXXXXOOOOOOOO++++++++++++++++++++++++XXXXXXXXXXXXXXXXXXXXXXXXXXXXXXXXXXXXXXXX",
"XXXXXXXX++++++++OOOOOOOOXXXXXXXXXXXXXXXXXXXXXXXXXXXXXXXXOOOOOOOO++++++++++++++++++++++++XXXXXXXXXXXXXXXXXXXXXXXXXXXXXXXXXXXXXXXX",
"XXXXXXXX++++++++OOOOOOOOXXXXXXXXXXXXXXXXXXXXXXXXXXXXXXXXOOOOOOOO++++++++++++++++++++++++XXXXXXXXXXXXXXXXXXXXXXXXXXXXXXXXXXXXXXXX",
"XXXXXXXX++++++++OOOOOOOOXXXXXXXXXXXXXXXXXXXXXXXXXXXXXXXXOOOOOOOO++++++++++++++++++++++++XXXXXXXXXXXXXXXXXXXXXXXXXXXXXXXXXXXXXXXX",
"XXXXXXXX++++++++OOOOOOOOXXXXXXXXXXXXXXXXXXXXXXXXXXXXXXXXOOOOOOOO++++++++++++++++++++++++XXXXXXXXXXXXXXXXXXXXXXXXXXXXXXXXXXXXXXXX",
"                        ........OOOOOOOO                                                ........XXXXXXXX                        ",
"                        ........OOOOOOOO                                                ........XXXXXXXX                        ",
"                        ........OOOOOOOO                                                ........XXXXXXXX                        ",
"                        ........OOOOOOOO                                                ........XXXXXXXX                        ",
"                        ........OOOOOOOO                                                ........XXXXXXXX                        ",
"                        ........OOOOOOOO                                                ........XXXXXXXX                        ",
"                        ........OOOOOOOO                                                ........XXXXXXXX                        ",
"                        ........OOOOOOOO                                                ........XXXXXXXX                        ",
"........................ooooooooOOOOOOOO        ........................................ooooooooXXXXXXXX        ................",
"........................ooooooooOOOOOOOO        ........................................ooooooooXXXXXXXX        ................",
"........................ooooooooOOOOOOOO        ........................................ooooooooXXXXXXXX        ................",
"........................ooooooooOOOOOOOO        ........................................ooooooooXXXXXXXX        ................",
"........................ooooooooOOOOOOOO        ........................................ooooooooXXXXXXXX        ................",
"........................ooooooooOOOOOOOO        ........................................ooooooooXXXXXXXX        ................",
"........................ooooooooOOOOOOOO        ........................................ooooooooXXXXXXXX        ................",
"........................ooooooooOOOOOOOO        ........................................ooooooooXXXXXXXX        ................",
"ooooooooooooooooooooooooooooooooOOOOOOOO........ooooooooooooooooooooooooooooooooooooooooooooooooOOOOOOOO........oooooooooooooooo",
"ooooooooooooooooooooooooooooooooOOOOOOOO........ooooooooooooooooooooooooooooooooooooooooooooooooOOOOOOOO........oooooooooooooooo",
"ooooooooooooooooooooooooooooooooOOOOOOOO........ooooooooooooooooooooooooooooooooooooooooooooooooOOOOOOOO........oooooooooooooooo",
"ooooooooooooooooooooooooooooooooOOOOOOOO........ooooooooooooooooooooooooooooooooooooooooooooooooOOOOOOOO........oooooooooooooooo",
"ooooooooooooooooooooooooooooooooOOOOOOOO........ooooooooooooooooooooooooooooooooooooooooooooooooOOOOOOOO........oooooooooooooooo",
"ooooooooooooooooooooooooooooooooOOOOOOOO........ooooooooooooooooooooooooooooooooooooooooooooooooOOOOOOOO........oooooooooooooooo",
"ooooooooooooooooooooooooooooooooOOOOOOOO........ooooooooooooooooooooooooooooooooooooooooooooooooOOOOOOOO........oooooooooooooooo",
"ooooooooooooooooooooooooooooooooOOOOOOOO........ooooooooooooooooooooooooooooooooooooooooooooooooOOOOOOOO........oooooooooooooooo",
"++++++++XXXXXXXX++++++++++++++++OOOOOOOOOOOOOOOOXXXXXXXXXXXXXXXX++++++++++++++++XXXXXXXXXXXXXXXX++++++++OOOOOOOO++++++++XXXXXXXX",
"++++++++XXXXXXXX++++++++++++++++OOOOOOOOOOOOOOOOXXXXXXXXXXXXXXXX++++++++++++++++XXXXXXXXXXXXXXXX++++++++OOOOOOOO++++++++XXXXXXXX",
"++++++++XXXXXXXX++++++++++++++++OOOOOOOOOOOOOOOOXXXXXXXXXXXXXXXX++++++++++++++++XXXXXXXXXXXXXXXX++++++++OOOOOOOO++++++++XXXXXXXX",
"++++++++XXXXXXXX++++++++++++++++OOOOOOOOOOOOOOOOXXXXXXXXXXXXXXXX++++++++++++++++XXXXXXXXXXXXXXXX++++++++OOOOOOOO++++++++XXXXXXXX",
"++++++++XXXXXXXX++++++++++++++++OOOOOOOOOOOOOOOOXXXXXXXXXXXXXXXX++++++++++++++++XXXXXXXXXXXXXXXX++++++++OOOOOOOO++++++++XXXXXXXX",
"++++++++XXXXXXXX++++++++++++++++OOOOOOOOOOOOOOOOXXXXXXXXXXXXXXXX++++++++++++++++XXXXXXXXXXXXXXXX++++++++OOOOOOOO++++++++XXXXXXXX",
"++++++++XXXXXXXX++++++++++++++++OOOOOOOOOOOOOOOOXXXXXXXXXXXXXXXX++++++++++++++++XXXXXXXXXXXXXXXX++++++++OOOOOOOO++++++++XXXXXXXX",
"++++++++XXXXXXXX++++++++++++++++OOOOOOOOOOOOOOOOXXXXXXXXXXXXXXXX++++++++++++++++XXXXXXXXXXXXXXXX++++++++OOOOOOOO++++++++XXXXXXXX",
"OOOOOOOO                                                ........OOOOOOOO                                                ........",
"OOOOOOOO                                                ........OOOOOOOO                                                ........",
"OOOOOOOO                                                ........OOOOOOOO                                                ........",
"OOOOOOOO                                                ........OOOOOOOO                                                ........",
"OOOOOOOO                                                ........OOOOOOOO                                                ........",
"OOOOOOOO                                                ........OOOOOOOO                                                ........",
"OOOOOOOO                                                ........OOOOOOOO                                                ........",
"OOOOOOOO                                                ........OOOOOOOO                                                ........",
"XXXXXXXX        ........................................ooooooooOOOOOOOO        ........................................oooooooo",
"XXXXXXXX        ........................................ooooooooOOOOOOOO        ........................................oooooooo",
"XXXXXXXX        ........................................ooooooooOOOOOOOO        ........................................oooooooo",
"XXXXXXXX        ........................................ooooooooOOOOOOOO        ........................................oooooooo",
"XXXXXXXX        ........................................ooooooooOOOOOOOO        ........................................oooooooo",
"XXXXXXXX        ........................................ooooooooOOOOOOOO        ........................................oooooooo",
"XXXXXXXX        ........................................ooooooooOOOOOOOO        ........................................oooooooo",
"XXXXXXXX        ........................................ooooooooOOOOOOOO        ........................................oooooooo",
"++++++++........ooooooooooooooooooooooooooooooooooooooooooooooooOOOOOOOO........oooooooooooooooooooooooooooooooooooooooooooooooo",
"++++++++........ooooooooooooooooooooooooooooooooooooooooooooooooOOOOOOOO........oooooooooooooooooooooooooooooooooooooooooooooooo",
"++++++++........ooooooooooooooooooooooooooooooooooooooooooooooooOOOOOOOO........oooooooooooooooooooooooooooooooooooooooooooooooo",
"++++++++........ooooooooooooooooooooooooooooooooooooooooooooooooOOOOOOOO........oooooooooooooooooooooooooooooooooooooooooooooooo",
"++++++++........ooooooooooooooooooooooooooooooooooooooooooooooooOOOOOOOO........oooooooooooooooooooooooooooooooooooooooooooooooo",
"++++++++........ooooooooooooooooooooooooooooooooooooooooooooooooOOOOOOOO........oooooooooooooooooooooooooooooooooooooooooooooooo",
"++++++++........ooooooooooooooooooooooooooooooooooooooooooooooooOOOOOOOO........oooooooooooooooooooooooooooooooooooooooooooooooo",
"++++++++........ooooooooooooooooooooooooooooooooooooooooooooooooOOOOOOOO........oooooooooooooooooooooooooooooooooooooooooooooooo",
"XXXXXXXX++++++++OOOOOOOOXXXXXXXXXXXXXXXXXXXXXXXXXXXXXXXX++++++++++++++++XXXXXXXXXXXXXXXX++++++++XXXXXXXXXXXXXXXXXXXXXXXXXXXXXXXX",
"XXXXXXXX++++++++OOOOOOOOXXXXXXXXXXXXXXXXXXXXXXXXXXXXXXXX++++++++++++++++XXXXXXXXXXXXXXXX++++++++XXXXXXXXXXXXXXXXXXXXXXXXXXXXXXXX",
"XXXXXXXX++++++++OOOOOOOOXXXXXXXXXXXXXXXXXXXXXXXXXXXXXXXX++++++++++++++++XXXXXXXXXXXXXXXX++++++++XXXXXXXXXXXXXXXXXXXXXXXXXXXXXXXX",
"XXXXXXXX++++++++OOOOOOOOXXXXXXXXXXXXXXXXXXXXXXXXXXXXXXXX++++++++++++++++XXXXXXXXXXXXXXXX++++++++XXXXXXXXXXXXXXXXXXXXXXXXXXXXXXXX",
"XXXXXXXX++++++++OOOOOOOOXXXXXXXXXXXXXXXXXXXXXXXXXXXXXXXX++++++++++++++++XXXXXXXXXXXXXXXX++++++++XXXXXXXXXXXXXXXXXXXXXXXXXXXXXXXX",
"XXXXXXXX++++++++OOOOOOOOXXXXXXXXXXXXXXXXXXXXXXXXXXXXXXXX++++++++++++++++XXXXXXXXXXXXXXXX++++++++XXXXXXXXXXXXXXXXXXXXXXXXXXXXXXXX",
"XXXXXXXX++++++++OOOOOOOOXXXXXXXXXXXXXXXXXXXXXXXXXXXXXXXX++++++++++++++++XXXXXXXXXXXXXXXX++++++++XXXXXXXXXXXXXXXXXXXXXXXXXXXXXXXX",
"XXXXXXXX++++++++OOOOOOOOXXXXXXXXXXXXXXXXXXXXXXXXXXXXXXXX++++++++++++++++XXXXXXXXXXXXXXXX++++++++XXXXXXXXXXXXXXXXXXXXXXXXXXXXXXXX"
};
