/* XPM */
static char *Texture11[] = {
/* columns rows colors chars-per-pixel */
"128 128 4 1 ",
"  c #292830",
". c #693227",
"X c #6A6C6D",
"o c #8F8D85",
/* pixels */
"        ........        ................XXXXXXXXXXXXXXXX................XXXXXXXXXXXXXXXX................        ........        ",
"        ........        ................XXXXXXXXXXXXXXXX................XXXXXXXXXXXXXXXX................        ........        ",
"        ........        ................XXXXXXXXXXXXXXXX................XXXXXXXXXXXXXXXX................        ........        ",
"        ........        ................XXXXXXXXXXXXXXXX................XXXXXXXXXXXXXXXX................        ........        ",
"        ........        ................XXXXXXXXXXXXXXXX................XXXXXXXXXXXXXXXX................        ........        ",
"        ........        ................XXXXXXXXXXXXXXXX................XXXXXXXXXXXXXXXX................        ........        ",
"        ........        ................XXXXXXXXXXXXXXXX................XXXXXXXXXXXXXXXX................        ........        ",
"        ........        ................XXXXXXXXXXXXXXXX................XXXXXXXXXXXXXXXX................        ........        ",
"        ................XXXXXXXXXXXXXXXXooooooooooooooooXXXXXXXXXXXXXXXXooooooooooooooooXXXXXXXXXXXXXXXX................        ",
"        ................XXXXXXXXXXXXXXXXooooooooooooooooXXXXXXXXXXXXXXXXooooooooooooooooXXXXXXXXXXXXXXXX................        ",
"        ................XXXXXXXXXXXXXXXXooooooooooooooooXXXXXXXXXXXXXXXXooooooooooooooooXXXXXXXXXXXXXXXX................        ",
"        ................XXXXXXXXXXXXXXXXooooooooooooooooXXXXXXXXXXXXXXXXooooooooooooooooXXXXXXXXXXXXXXXX................        ",
"        ................XXXXXXXXXXXXXXXXooooooooooooooooXXXXXXXXXXXXXXXXooooooooooooooooXXXXXXXXXXXXXXXX................        ",
"        ................XXXXXXXXXXXXXXXXooooooooooooooooXXXXXXXXXXXXXXXXooooooooooooooooXXXXXXXXXXXXXXXX................        ",
"        ................XXXXXXXXXXXXXXXXooooooooooooooooXXXXXXXXXXXXXXXXooooooooooooooooXXXXXXXXXXXXXXXX................        ",
"        ................XXXXXXXXXXXXXXXXooooooooooooooooXXXXXXXXXXXXXXXXooooooooooooooooXXXXXXXXXXXXXXXX................        ",
"                        ................XXXXXXXXXXXXXXXX................XXXXXXXXXXXXXXXX................                        ",
"                        ................XXXXXXXXXXXXXXXX................XXXXXXXXXXXXXXXX................                        ",
"                        ................XXXXXXXXXXXXXXXX................XXXXXXXXXXXXXXXX................                        ",
"                        ................XXXXXXXXXXXXXXXX................XXXXXXXXXXXXXXXX................                        ",
"                        ................XXXXXXXXXXXXXXXX................XXXXXXXXXXXXXXXX................                        ",
"                        ................XXXXXXXXXXXXXXXX................XXXXXXXXXXXXXXXX................                        ",
"                        ................XXXXXXXXXXXXXXXX................XXXXXXXXXXXXXXXX................                        ",
"                        ................XXXXXXXXXXXXXXXX................XXXXXXXXXXXXXXXX................                        ",
"        ........        XXXXXXXXXXXXXXXXooooooooooooooooXXXXXXXXXXXXXXXXooooooooooooooooXXXXXXXXXXXXXXXX        ........        ",
"        ........        XXXXXXXXXXXXXXXXooooooooooooooooXXXXXXXXXXXXXXXXooooooooooooooooXXXXXXXXXXXXXXXX        ........        ",
"        ........        XXXXXXXXXXXXXXXXooooooooooooooooXXXXXXXXXXXXXXXXooooooooooooooooXXXXXXXXXXXXXXXX        ........        ",
"        ........        XXXXXXXXXXXXXXXXooooooooooooooooXXXXXXXXXXXXXXXXooooooooooooooooXXXXXXXXXXXXXXXX        ........        ",
"        ........        XXXXXXXXXXXXXXXXooooooooooooooooXXXXXXXXXXXXXXXXooooooooooooooooXXXXXXXXXXXXXXXX        ........        ",
"        ........        XXXXXXXXXXXXXXXXooooooooooooooooXXXXXXXXXXXXXXXXooooooooooooooooXXXXXXXXXXXXXXXX        ........        ",
"        ........        XXXXXXXXXXXXXXXXooooooooooooooooXXXXXXXXXXXXXXXXooooooooooooooooXXXXXXXXXXXXXXXX        ........        ",
"        ........        XXXXXXXXXXXXXXXXooooooooooooooooXXXXXXXXXXXXXXXXooooooooooooooooXXXXXXXXXXXXXXXX        ........        ",
"        ........        XXXXXXXXXXXXXXXXooooooooooooooooXXXXXXXXXXXXXXXXooooooooooooooooXXXXXXXXXXXXXXXX        ........        ",
"        ........        XXXXXXXXXXXXXXXXooooooooooooooooXXXXXXXXXXXXXXXXooooooooooooooooXXXXXXXXXXXXXXXX        ........        ",
"        ........        XXXXXXXXXXXXXXXXooooooooooooooooXXXXXXXXXXXXXXXXooooooooooooooooXXXXXXXXXXXXXXXX        ........        ",
"        ........        XXXXXXXXXXXXXXXXooooooooooooooooXXXXXXXXXXXXXXXXooooooooooooooooXXXXXXXXXXXXXXXX        ........        ",
"        ........        XXXXXXXXXXXXXXXXooooooooooooooooXXXXXXXXXXXXXXXXooooooooooooooooXXXXXXXXXXXXXXXX        ........        ",
"        ........        XXXXXXXXXXXXXXXXooooooooooooooooXXXXXXXXXXXXXXXXooooooooooooooooXXXXXXXXXXXXXXXX        ........        ",
"        ........        XXXXXXXXXXXXXXXXooooooooooooooooXXXXXXXXXXXXXXXXooooooooooooooooXXXXXXXXXXXXXXXX        ........        ",
"        ........        XXXXXXXXXXXXXXXXooooooooooooooooXXXXXXXXXXXXXXXXooooooooooooooooXXXXXXXXXXXXXXXX        ........        ",
"        ........        ................XXXXXXXXXXXXXXXX................XXXXXXXXXXXXXXXX................        ........        ",
"        ........        ................XXXXXXXXXXXXXXXX................XXXXXXXXXXXXXXXX................        ........        ",
"        ........        ................XXXXXXXXXXXXXXXX................XXXXXXXXXXXXXXXX................        ........        ",
"        ........        ................XXXXXXXXXXXXXXXX................XXXXXXXXXXXXXXXX................        ........        ",
"        ........        ................XXXXXXXXXXXXXXXX................XXXXXXXXXXXXXXXX................        ........        ",
"        ........        ................XXXXXXXXXXXXXXXX................XXXXXXXXXXXXXXXX................        ........        ",
"        ........        ................XXXXXXXXXXXXXXXX................XXXXXXXXXXXXXXXX................        ........        ",
"        ........        ................XXXXXXXXXXXXXXXX................XXXXXXXXXXXXXXXX................        ........        ",
"        ........        XXXXXXXXXXXXXXXXoooooooo                                ooooooooXXXXXXXXXXXXXXXX        ........        ",
"        ........        XXXXXXXXXXXXXXXXoooooooo                                ooooooooXXXXXXXXXXXXXXXX        ........        ",
"        ........        XXXXXXXXXXXXXXXXoooooooo                                ooooooooXXXXXXXXXXXXXXXX        ........        ",
"        ........        XXXXXXXXXXXXXXXXoooooooo                                ooooooooXXXXXXXXXXXXXXXX        ........        ",
"        ........        XXXXXXXXXXXXXXXXoooooooo                                ooooooooXXXXXXXXXXXXXXXX        ........        ",
"        ........        XXXXXXXXXXXXXXXXoooooooo                                ooooooooXXXXXXXXXXXXXXXX        ........        ",
"        ........        XXXXXXXXXXXXXXXXoooooooo                                ooooooooXXXXXXXXXXXXXXXX        ........        ",
"        ........        XXXXXXXXXXXXXXXXoooooooo                                ooooooooXXXXXXXXXXXXXXXX        ........        ",
"        ........        XXXXXXXXXXXXXXXXoooooooo        oooooooooooooooo        ooooooooXXXXXXXXXXXXXXXX        ........        ",
"        ........        XXXXXXXXXXXXXXXXoooooooo        oooooooooooooooo        ooooooooXXXXXXXXXXXXXXXX        ........        ",
"        ........        XXXXXXXXXXXXXXXXoooooooo        oooooooooooooooo        ooooooooXXXXXXXXXXXXXXXX        ........        ",
"        ........        XXXXXXXXXXXXXXXXoooooooo        oooooooooooooooo        ooooooooXXXXXXXXXXXXXXXX        ........        ",
"        ........        XXXXXXXXXXXXXXXXoooooooo        oooooooooooooooo        ooooooooXXXXXXXXXXXXXXXX        ........        ",
"        ........        XXXXXXXXXXXXXXXXoooooooo        oooooooooooooooo        ooooooooXXXXXXXXXXXXXXXX        ........        ",
"        ........        XXXXXXXXXXXXXXXXoooooooo        oooooooooooooooo        ooooooooXXXXXXXXXXXXXXXX        ........        ",
"        ........        XXXXXXXXXXXXXXXXoooooooo        oooooooooooooooo        ooooooooXXXXXXXXXXXXXXXX        ........        ",
"        ........        XXXXXXXXXXXXXXXXoooooooo        oooooooooooooooo        ooooooooXXXXXXXXXXXXXXXX        ........        ",
"        ........        XXXXXXXXXXXXXXXXoooooooo        oooooooooooooooo        ooooooooXXXXXXXXXXXXXXXX        ........        ",
"        ........        XXXXXXXXXXXXXXXXoooooooo        oooooooooooooooo        ooooooooXXXXXXXXXXXXXXXX        ........        ",
"        ........        XXXXXXXXXXXXXXXXoooooooo        oooooooooooooooo        ooooooooXXXXXXXXXXXXXXXX        ........        ",
"        ........        XXXXXXXXXXXXXXXXoooooooo        oooooooooooooooo        ooooooooXXXXXXXXXXXXXXXX        ........        ",
"        ........        XXXXXXXXXXXXXXXXoooooooo        oooooooooooooooo        ooooooooXXXXXXXXXXXXXXXX        ........        ",
"        ........        XXXXXXXXXXXXXXXXoooooooo        oooooooooooooooo        ooooooooXXXXXXXXXXXXXXXX        ........        ",
"        ........        XXXXXXXXXXXXXXXXoooooooo        oooooooooooooooo        ooooooooXXXXXXXXXXXXXXXX        ........        ",
"        ........        XXXXXXXXXXXXXXXXoooooooo                                ooooooooXXXXXXXXXXXXXXXX        ........        ",
"        ........        XXXXXXXXXXXXXXXXoooooooo                                ooooooooXXXXXXXXXXXXXXXX        ........        ",
"        ........        XXXXXXXXXXXXXXXXoooooooo                                ooooooooXXXXXXXXXXXXXXXX        ........        ",
"        ........        XXXXXXXXXXXXXXXXoooooooo                                ooooooooXXXXXXXXXXXXXXXX        ........        ",
"        ........        XXXXXXXXXXXXXXXXoooooooo                                ooooooooXXXXXXXXXXXXXXXX        ........        ",
"        ........        XXXXXXXXXXXXXXXXoooooooo                                ooooooooXXXXXXXXXXXXXXXX        ........        ",
"        ........        XXXXXXXXXXXXXXXXoooooooo                                ooooooooXXXXXXXXXXXXXXXX        ........        ",
"        ........        XXXXXXXXXXXXXXXXoooooooo                                ooooooooXXXXXXXXXXXXXXXX        ........        ",
"        ........        ................XXXXXXXXXXXXXXXX................XXXXXXXXXXXXXXXX................        ........        ",
"        ........        ................XXXXXXXXXXXXXXXX................XXXXXXXXXXXXXXXX................        ........        ",
"        ........        ................XXXXXXXXXXXXXXXX................XXXXXXXXXXXXXXXX................        ........        ",
"        ........        ................XXXXXXXXXXXXXXXX................XXXXXXXXXXXXXXXX................        ........        ",
"        ........        ................XXXXXXXXXXXXXXXX................XXXXXXXXXXXXXXXX................        ........        ",
"        ........        ................XXXXXXXXXXXXXXXX................XXXXXXXXXXXXXXXX................        ........        ",
"        ........        ................XXXXXXXXXXXXXXXX................XXXXXXXXXXXXXXXX................        ........        ",
"        ........        ................XXXXXXXXXXXXXXXX................XXXXXXXXXXXXXXXX................        ........        ",
"        ........        XXXXXXXXXXXXXXXXooooooooooooooooXXXXXXXXXXXXXXXXooooooooooooooooXXXXXXXXXXXXXXXX        ........        ",
"        ........        XXXXXXXXXXXXXXXXooooooooooooooooXXXXXXXXXXXXXXXXooooooooooooooooXXXXXXXXXXXXXXXX        ........        ",
"        ........        XXXXXXXXXXXXXXXXooooooooooooooooXXXXXXXXXXXXXXXXooooooooooooooooXXXXXXXXXXXXXXXX        ........        ",
"        ........        XXXXXXXXXXXXXXXXooooooooooooooooXXXXXXXXXXXXXXXXooooooooooooooooXXXXXXXXXXXXXXXX        ........        ",
"        ........        XXXXXXXXXXXXXXXXooooooooooooooooXXXXXXXXXXXXXXXXooooooooooooooooXXXXXXXXXXXXXXXX        ........        ",
"        ........        XXXXXXXXXXXXXXXXooooooooooooooooXXXXXXXXXXXXXXXXooooooooooooooooXXXXXXXXXXXXXXXX        ........        ",
"        ........        XXXXXXXXXXXXXXXXooooooooooooooooXXXXXXXXXXXXXXXXooooooooooooooooXXXXXXXXXXXXXXXX        ........        ",
"        ........        XXXXXXXXXXXXXXXXooooooooooooooooXXXXXXXXXXXXXXXXooooooooooooooooXXXXXXXXXXXXXXXX        ........        ",
"        ........        XXXXXXXXXXXXXXXXooooooooooooooooXXXXXXXXXXXXXXXXooooooooooooooooXXXXXXXXXXXXXXXX        ........        ",
"        ........        XXXXXXXXXXXXXXXXooooooooooooooooXXXXXXXXXXXXXXXXooooooooooooooooXXXXXXXXXXXXXXXX        ........        ",
"        ........        XXXXXXXXXXXXXXXXooooooooooooooooXXXXXXXXXXXXXXXXooooooooooooooooXXXXXXXXXXXXXXXX        ........        ",
"        ........        XXXXXXXXXXXXXXXXooooooooooooooooXXXXXXXXXXXXXXXXooooooooooooooooXXXXXXXXXXXXXXXX        ........        ",
"        ........        XXXXXXXXXXXXXXXXooooooooooooooooXXXXXXXXXXXXXXXXooooooooooooooooXXXXXXXXXXXXXXXX        ........        ",
"        ........        XXXXXXXXXXXXXXXXooooooooooooooooXXXXXXXXXXXXXXXXooooooooooooooooXXXXXXXXXXXXXXXX        ........        ",
"        ........        XXXXXXXXXXXXXXXXooooooooooooooooXXXXXXXXXXXXXXXXooooooooooooooooXXXXXXXXXXXXXXXX        ........        ",
"        ........        XXXXXXXXXXXXXXXXooooooooooooooooXXXXXXXXXXXXXXXXooooooooooooooooXXXXXXXXXXXXXXXX        ........        ",
"                        ................XXXXXXXXXXXXXXXX................XXXXXXXXXXXXXXXX................                        ",
"                        ................XXXXXXXXXXXXXXXX................XXXXXXXXXXXXXXXX................                        ",
"                        ................XXXXXXXXXXXXXXXX................XXXXXXXXXXXXXXXX................                        ",
"                        ................XXXXXXXXXXXXXXXX................XXXXXXXXXXXXXXXX................                        ",
"                        ................XXXXXXXXXXXXXXXX................XXXXXXXXXXXXXXXX................                        ",
"                        ................XXXXXXXXXXXXXXXX................XXXXXXXXXXXXXXXX................                        ",
"                        ................XXXXXXXXXXXXXXXX................XXXXXXXXXXXXXXXX................                        ",
"                        ................XXXXXXXXXXXXXXXX................XXXXXXXXXXXXXXXX................                        ",
"        ................XXXXXXXXXXXXXXXXooooooooooooooooXXXXXXXXXXXXXXXXooooooooooooooooXXXXXXXXXXXXXXXX................        ",
"        ................XXXXXXXXXXXXXXXXooooooooooooooooXXXXXXXXXXXXXXXXooooooooooooooooXXXXXXXXXXXXXXXX................        ",
"        ................XXXXXXXXXXXXXXXXooooooooooooooooXXXXXXXXXXXXXXXXooooooooooooooooXXXXXXXXXXXXXXXX................        ",
"        ................XXXXXXXXXXXXXXXXooooooooooooooooXXXXXXXXXXXXXXXXooooooooooooooooXXXXXXXXXXXXXXXX................        ",
"        ................XXXXXXXXXXXXXXXXooooooooooooooooXXXXXXXXXXXXXXXXooooooooooooooooXXXXXXXXXXXXXXXX................        ",
"        ................XXXXXXXXXXXXXXXXooooooooooooooooXXXXXXXXXXXXXXXXooooooooooooooooXXXXXXXXXXXXXXXX................        ",
"        ................XXXXXXXXXXXXXXXXooooooooooooooooXXXXXXXXXXXXXXXXooooooooooooooooXXXXXXXXXXXXXXXX................        ",
"        ................XXXXXXXXXXXXXXXXooooooooooooooooXXXXXXXXXXXXXXXXooooooooooooooooXXXXXXXXXXXXXXXX................        ",
"        ........        ................XXXXXXXXXXXXXXXX................XXXXXXXXXXXXXXXX................        ........        ",
"        ........        ................XXXXXXXXXXXXXXXX................XXXXXXXXXXXXXXXX................        ........        ",
"        ........        ................XXXXXXXXXXXXXXXX................XXXXXXXXXXXXXXXX................        ........        ",
"        ........        ................XXXXXXXXXXXXXXXX................XXXXXXXXXXXXXXXX................        ........        ",
"        ........        ................XXXXXXXXXXXXXXXX................XXXXXXXXXXXXXXXX................        ........        ",
"        ........        ................XXXXXXXXXXXXXXXX................XXXXXXXXXXXXXXXX................        ........        ",
"        ........        ................XXXXXXXXXXXXXXXX................XXXXXXXXXXXXXXXX................        ........        ",
"        ........        ................XXXXXXXXXXXXXXXX................XXXXXXXXXXXXXXXX................        ........        "
};
