/* XPM */
static char *Texture6[] = {
/* columns rows colors chars-per-pixel */
"128 128 7 1 ",
"  c #17091A",
". c #292830",
"X c #33323C",
"o c #5D4037",
"O c #7D5450",
"+ c #945A50",
"@ c #C06A58",
/* pixels */
"        @@@@@@@@++++++++OOOOOOOOOOOOOOOOOOOOOOOOOOOOOOOOOOOOOOOOOOOOOOOOOOOOOOOOOOOOOOOOOOOOOOOOOOOOOOOO++++++++@@@@@@@@        ",
"        @@@@@@@@++++++++OOOOOOOOOOOOOOOOOOOOOOOOOOOOOOOOOOOOOOOOOOOOOOOOOOOOOOOOOOOOOOOOOOOOOOOOOOOOOOOO++++++++@@@@@@@@        ",
"        @@@@@@@@++++++++OOOOOOOOOOOOOOOOOOOOOOOOOOOOOOOOOOOOOOOOOOOOOOOOOOOOOOOOOOOOOOOOOOOOOOOOOOOOOOOO++++++++@@@@@@@@        ",
"        @@@@@@@@++++++++OOOOOOOOOOOOOOOOOOOOOOOOOOOOOOOOOOOOOOOOOOOOOOOOOOOOOOOOOOOOOOOOOOOOOOOOOOOOOOOO++++++++@@@@@@@@        ",
"        @@@@@@@@++++++++OOOOOOOOOOOOOOOOOOOOOOOOOOOOOOOOOOOOOOOOOOOOOOOOOOOOOOOOOOOOOOOOOOOOOOOOOOOOOOOO++++++++@@@@@@@@        ",
"        @@@@@@@@++++++++OOOOOOOOOOOOOOOOOOOOOOOOOOOOOOOOOOOOOOOOOOOOOOOOOOOOOOOOOOOOOOOOOOOOOOOOOOOOOOOO++++++++@@@@@@@@        ",
"        @@@@@@@@++++++++OOOOOOOOOOOOOOOOOOOOOOOOOOOOOOOOOOOOOOOOOOOOOOOOOOOOOOOOOOOOOOOOOOOOOOOOOOOOOOOO++++++++@@@@@@@@        ",
"        @@@@@@@@++++++++OOOOOOOOOOOOOOOOOOOOOOOOOOOOOOOOOOOOOOOOOOOOOOOOOOOOOOOOOOOOOOOOOOOOOOOOOOOOOOOO++++++++@@@@@@@@        ",
"        ++++++++OOOOOOOO@@@@@@@@................................................................@@@@@@@@OOOOOOOO++++++++        ",
"        ++++++++OOOOOOOO@@@@@@@@................................................................@@@@@@@@OOOOOOOO++++++++        ",
"        ++++++++OOOOOOOO@@@@@@@@................................................................@@@@@@@@OOOOOOOO++++++++        ",
"        ++++++++OOOOOOOO@@@@@@@@................................................................@@@@@@@@OOOOOOOO++++++++        ",
"        ++++++++OOOOOOOO@@@@@@@@................................................................@@@@@@@@OOOOOOOO++++++++        ",
"        ++++++++OOOOOOOO@@@@@@@@................................................................@@@@@@@@OOOOOOOO++++++++        ",
"        ++++++++OOOOOOOO@@@@@@@@................................................................@@@@@@@@OOOOOOOO++++++++        ",
"        ++++++++OOOOOOOO@@@@@@@@................................................................@@@@@@@@OOOOOOOO++++++++        ",
"        OOOOOOOOoooooooo++++++++@@@@@@@@........XXXXXXXXXXXXXXXXXXXXXXXXXXXXXXXX........@@@@@@@@++++++++OOOOOOOOOOOOOOOO        ",
"        OOOOOOOOoooooooo++++++++@@@@@@@@........XXXXXXXXXXXXXXXXXXXXXXXXXXXXXXXX........@@@@@@@@++++++++OOOOOOOOOOOOOOOO        ",
"        OOOOOOOOoooooooo++++++++@@@@@@@@........XXXXXXXXXXXXXXXXXXXXXXXXXXXXXXXX........@@@@@@@@++++++++OOOOOOOOOOOOOOOO        ",
"        OOOOOOOOoooooooo++++++++@@@@@@@@........XXXXXXXXXXXXXXXXXXXXXXXXXXXXXXXX........@@@@@@@@++++++++OOOOOOOOOOOOOOOO        ",
"        OOOOOOOOoooooooo++++++++@@@@@@@@........XXXXXXXXXXXXXXXXXXXXXXXXXXXXXXXX........@@@@@@@@++++++++OOOOOOOOOOOOOOOO        ",
"        OOOOOOOOoooooooo++++++++@@@@@@@@........XXXXXXXXXXXXXXXXXXXXXXXXXXXXXXXX........@@@@@@@@++++++++OOOOOOOOOOOOOOOO        ",
"        OOOOOOOOoooooooo++++++++@@@@@@@@........XXXXXXXXXXXXXXXXXXXXXXXXXXXXXXXX........@@@@@@@@++++++++OOOOOOOOOOOOOOOO        ",
"        OOOOOOOOoooooooo++++++++@@@@@@@@........XXXXXXXXXXXXXXXXXXXXXXXXXXXXXXXX........@@@@@@@@++++++++OOOOOOOOOOOOOOOO        ",
"        OOOOOOOO........oooooooo++++++++@@@@@@@@........XXXXXXXXXXXXXXXX........@@@@@@@@++++++++OOOOOOOO........OOOOOOOO        ",
"        OOOOOOOO........oooooooo++++++++@@@@@@@@........XXXXXXXXXXXXXXXX........@@@@@@@@++++++++OOOOOOOO........OOOOOOOO        ",
"        OOOOOOOO........oooooooo++++++++@@@@@@@@........XXXXXXXXXXXXXXXX........@@@@@@@@++++++++OOOOOOOO........OOOOOOOO        ",
"        OOOOOOOO........oooooooo++++++++@@@@@@@@........XXXXXXXXXXXXXXXX........@@@@@@@@++++++++OOOOOOOO........OOOOOOOO        ",
"        OOOOOOOO........oooooooo++++++++@@@@@@@@........XXXXXXXXXXXXXXXX........@@@@@@@@++++++++OOOOOOOO........OOOOOOOO        ",
"        OOOOOOOO........oooooooo++++++++@@@@@@@@........XXXXXXXXXXXXXXXX........@@@@@@@@++++++++OOOOOOOO........OOOOOOOO        ",
"        OOOOOOOO........oooooooo++++++++@@@@@@@@........XXXXXXXXXXXXXXXX........@@@@@@@@++++++++OOOOOOOO........OOOOOOOO        ",
"        OOOOOOOO........oooooooo++++++++@@@@@@@@........XXXXXXXXXXXXXXXX........@@@@@@@@++++++++OOOOOOOO........OOOOOOOO        ",
"        OOOOOOOO................oooooooo++++++++@@@@@@@@................@@@@@@@@++++++++OOOOOOOO................OOOOOOOO        ",
"        OOOOOOOO................oooooooo++++++++@@@@@@@@................@@@@@@@@++++++++OOOOOOOO................OOOOOOOO        ",
"        OOOOOOOO................oooooooo++++++++@@@@@@@@................@@@@@@@@++++++++OOOOOOOO................OOOOOOOO        ",
"        OOOOOOOO................oooooooo++++++++@@@@@@@@................@@@@@@@@++++++++OOOOOOOO................OOOOOOOO        ",
"        OOOOOOOO................oooooooo++++++++@@@@@@@@................@@@@@@@@++++++++OOOOOOOO................OOOOOOOO        ",
"        OOOOOOOO................oooooooo++++++++@@@@@@@@................@@@@@@@@++++++++OOOOOOOO................OOOOOOOO        ",
"        OOOOOOOO................oooooooo++++++++@@@@@@@@................@@@@@@@@++++++++OOOOOOOO................OOOOOOOO        ",
"        OOOOOOOO................oooooooo++++++++@@@@@@@@................@@@@@@@@++++++++OOOOOOOO................OOOOOOOO        ",
"        OOOOOOOO........XXXXXXXX........ooooooooOOOOOOOO++++++++@@@@@@@@++++++++OOOOOOOO........XXXXXXXX........OOOOOOOO        ",
"        OOOOOOOO........XXXXXXXX........ooooooooOOOOOOOO++++++++@@@@@@@@++++++++OOOOOOOO........XXXXXXXX........OOOOOOOO        ",
"        OOOOOOOO........XXXXXXXX........ooooooooOOOOOOOO++++++++@@@@@@@@++++++++OOOOOOOO........XXXXXXXX........OOOOOOOO        ",
"        OOOOOOOO........XXXXXXXX........ooooooooOOOOOOOO++++++++@@@@@@@@++++++++OOOOOOOO........XXXXXXXX........OOOOOOOO        ",
"        OOOOOOOO........XXXXXXXX........ooooooooOOOOOOOO++++++++@@@@@@@@++++++++OOOOOOOO........XXXXXXXX........OOOOOOOO        ",
"        OOOOOOOO........XXXXXXXX........ooooooooOOOOOOOO++++++++@@@@@@@@++++++++OOOOOOOO........XXXXXXXX........OOOOOOOO        ",
"        OOOOOOOO........XXXXXXXX........ooooooooOOOOOOOO++++++++@@@@@@@@++++++++OOOOOOOO........XXXXXXXX........OOOOOOOO        ",
"        OOOOOOOO........XXXXXXXX........ooooooooOOOOOOOO++++++++@@@@@@@@++++++++OOOOOOOO........XXXXXXXX........OOOOOOOO        ",
"        OOOOOOOO........XXXXXXXXXXXXXXXX........oooooooo@@@@@@@@++++++++OOOOOOOO........XXXXXXXXXXXXXXXX........OOOOOOOO        ",
"        OOOOOOOO........XXXXXXXXXXXXXXXX........oooooooo@@@@@@@@++++++++OOOOOOOO........XXXXXXXXXXXXXXXX........OOOOOOOO        ",
"        OOOOOOOO........XXXXXXXXXXXXXXXX........oooooooo@@@@@@@@++++++++OOOOOOOO........XXXXXXXXXXXXXXXX........OOOOOOOO        ",
"        OOOOOOOO........XXXXXXXXXXXXXXXX........oooooooo@@@@@@@@++++++++OOOOOOOO........XXXXXXXXXXXXXXXX........OOOOOOOO        ",
"        OOOOOOOO........XXXXXXXXXXXXXXXX........oooooooo@@@@@@@@++++++++OOOOOOOO........XXXXXXXXXXXXXXXX........OOOOOOOO        ",
"        OOOOOOOO........XXXXXXXXXXXXXXXX........oooooooo@@@@@@@@++++++++OOOOOOOO........XXXXXXXXXXXXXXXX........OOOOOOOO        ",
"        OOOOOOOO........XXXXXXXXXXXXXXXX........oooooooo@@@@@@@@++++++++OOOOOOOO........XXXXXXXXXXXXXXXX........OOOOOOOO        ",
"        OOOOOOOO........XXXXXXXXXXXXXXXX........oooooooo@@@@@@@@++++++++OOOOOOOO........XXXXXXXXXXXXXXXX........OOOOOOOO        ",
"        OOOOOOOO........XXXXXXXXXXXXXXXX........@@@@@@@@++++++++OOOOOOOO++++++++........XXXXXXXXXXXXXXXX........OOOOOOOO        ",
"        OOOOOOOO........XXXXXXXXXXXXXXXX........@@@@@@@@++++++++OOOOOOOO++++++++........XXXXXXXXXXXXXXXX........OOOOOOOO        ",
"        OOOOOOOO........XXXXXXXXXXXXXXXX........@@@@@@@@++++++++OOOOOOOO++++++++........XXXXXXXXXXXXXXXX........OOOOOOOO        ",
"        OOOOOOOO........XXXXXXXXXXXXXXXX........@@@@@@@@++++++++OOOOOOOO++++++++........XXXXXXXXXXXXXXXX........OOOOOOOO        ",
"        OOOOOOOO........XXXXXXXXXXXXXXXX........@@@@@@@@++++++++OOOOOOOO++++++++........XXXXXXXXXXXXXXXX........OOOOOOOO        ",
"        OOOOOOOO........XXXXXXXXXXXXXXXX........@@@@@@@@++++++++OOOOOOOO++++++++........XXXXXXXXXXXXXXXX........OOOOOOOO        ",
"        OOOOOOOO........XXXXXXXXXXXXXXXX........@@@@@@@@++++++++OOOOOOOO++++++++........XXXXXXXXXXXXXXXX........OOOOOOOO        ",
"        OOOOOOOO........XXXXXXXXXXXXXXXX........@@@@@@@@++++++++OOOOOOOO++++++++........XXXXXXXXXXXXXXXX........OOOOOOOO        ",
"        OOOOOOOO........XXXXXXXX........@@@@@@@@++++++++OOOOOOOOooooooooOOOOOOOO@@@@@@@@........XXXXXXXX........OOOOOOOO        ",
"        OOOOOOOO........XXXXXXXX........@@@@@@@@++++++++OOOOOOOOooooooooOOOOOOOO@@@@@@@@........XXXXXXXX........OOOOOOOO        ",
"        OOOOOOOO........XXXXXXXX........@@@@@@@@++++++++OOOOOOOOooooooooOOOOOOOO@@@@@@@@........XXXXXXXX........OOOOOOOO        ",
"        OOOOOOOO........XXXXXXXX........@@@@@@@@++++++++OOOOOOOOooooooooOOOOOOOO@@@@@@@@........XXXXXXXX........OOOOOOOO        ",
"        OOOOOOOO........XXXXXXXX........@@@@@@@@++++++++OOOOOOOOooooooooOOOOOOOO@@@@@@@@........XXXXXXXX........OOOOOOOO        ",
"        OOOOOOOO........XXXXXXXX........@@@@@@@@++++++++OOOOOOOOooooooooOOOOOOOO@@@@@@@@........XXXXXXXX........OOOOOOOO        ",
"        OOOOOOOO........XXXXXXXX........@@@@@@@@++++++++OOOOOOOOooooooooOOOOOOOO@@@@@@@@........XXXXXXXX........OOOOOOOO        ",
"        OOOOOOOO........XXXXXXXX........@@@@@@@@++++++++OOOOOOOOooooooooOOOOOOOO@@@@@@@@........XXXXXXXX........OOOOOOOO        ",
"        OOOOOOOO................@@@@@@@@++++++++OOOOOOOO................oooooooo++++++++@@@@@@@@................OOOOOOOO        ",
"        OOOOOOOO................@@@@@@@@++++++++OOOOOOOO................oooooooo++++++++@@@@@@@@................OOOOOOOO        ",
"        OOOOOOOO................@@@@@@@@++++++++OOOOOOOO................oooooooo++++++++@@@@@@@@................OOOOOOOO        ",
"        OOOOOOOO................@@@@@@@@++++++++OOOOOOOO................oooooooo++++++++@@@@@@@@................OOOOOOOO        ",
"        OOOOOOOO................@@@@@@@@++++++++OOOOOOOO................oooooooo++++++++@@@@@@@@................OOOOOOOO        ",
"        OOOOOOOO................@@@@@@@@++++++++OOOOOOOO................oooooooo++++++++@@@@@@@@................OOOOOOOO        ",
"        OOOOOOOO................@@@@@@@@++++++++OOOOOOOO................oooooooo++++++++@@@@@@@@................OOOOOOOO        ",
"        OOOOOOOO................@@@@@@@@++++++++OOOOOOOO................oooooooo++++++++@@@@@@@@................OOOOOOOO        ",
"        OOOOOOOO........@@@@@@@@++++++++OOOOOOOO........XXXXXXXXXXXXXXXX........oooooooo++++++++@@@@@@@@........OOOOOOOO        ",
"        OOOOOOOO........@@@@@@@@++++++++OOOOOOOO........XXXXXXXXXXXXXXXX........oooooooo++++++++@@@@@@@@........OOOOOOOO        ",
"        OOOOOOOO........@@@@@@@@++++++++OOOOOOOO........XXXXXXXXXXXXXXXX........oooooooo++++++++@@@@@@@@........OOOOOOOO        ",
"        OOOOOOOO........@@@@@@@@++++++++OOOOOOOO........XXXXXXXXXXXXXXXX........oooooooo++++++++@@@@@@@@........OOOOOOOO        ",
"        OOOOOOOO........@@@@@@@@++++++++OOOOOOOO........XXXXXXXXXXXXXXXX........oooooooo++++++++@@@@@@@@........OOOOOOOO        ",
"        OOOOOOOO........@@@@@@@@++++++++OOOOOOOO........XXXXXXXXXXXXXXXX........oooooooo++++++++@@@@@@@@........OOOOOOOO        ",
"        OOOOOOOO........@@@@@@@@++++++++OOOOOOOO........XXXXXXXXXXXXXXXX........oooooooo++++++++@@@@@@@@........OOOOOOOO        ",
"        OOOOOOOO........@@@@@@@@++++++++OOOOOOOO........XXXXXXXXXXXXXXXX........oooooooo++++++++@@@@@@@@........OOOOOOOO        ",
"        OOOOOOOO@@@@@@@@++++++++OOOOOOOO........XXXXXXXXXXXXXXXXXXXXXXXXXXXXXXXX........oooooooo++++++++@@@@@@@@OOOOOOOO        ",
"        OOOOOOOO@@@@@@@@++++++++OOOOOOOO........XXXXXXXXXXXXXXXXXXXXXXXXXXXXXXXX........oooooooo++++++++@@@@@@@@OOOOOOOO        ",
"        OOOOOOOO@@@@@@@@++++++++OOOOOOOO........XXXXXXXXXXXXXXXXXXXXXXXXXXXXXXXX........oooooooo++++++++@@@@@@@@OOOOOOOO        ",
"        OOOOOOOO@@@@@@@@++++++++OOOOOOOO........XXXXXXXXXXXXXXXXXXXXXXXXXXXXXXXX........oooooooo++++++++@@@@@@@@OOOOOOOO        ",
"        OOOOOOOO@@@@@@@@++++++++OOOOOOOO........XXXXXXXXXXXXXXXXXXXXXXXXXXXXXXXX........oooooooo++++++++@@@@@@@@OOOOOOOO        ",
"        OOOOOOOO@@@@@@@@++++++++OOOOOOOO........XXXXXXXXXXXXXXXXXXXXXXXXXXXXXXXX........oooooooo++++++++@@@@@@@@OOOOOOOO        ",
"        OOOOOOOO@@@@@@@@++++++++OOOOOOOO........XXXXXXXXXXXXXXXXXXXXXXXXXXXXXXXX........oooooooo++++++++@@@@@@@@OOOOOOOO        ",
"        OOOOOOOO@@@@@@@@++++++++OOOOOOOO........XXXXXXXXXXXXXXXXXXXXXXXXXXXXXXXX........oooooooo++++++++@@@@@@@@OOOOOOOO        ",
"        ++++++++OOOOOOOOOOOOOOOO................................................................ooooooooOOOOOOOO++++++++        ",
"        ++++++++OOOOOOOOOOOOOOOO................................................................ooooooooOOOOOOOO++++++++        ",
"        ++++++++OOOOOOOOOOOOOOOO................................................................ooooooooOOOOOOOO++++++++        ",
"        ++++++++OOOOOOOOOOOOOOOO................................................................ooooooooOOOOOOOO++++++++        ",
"        ++++++++OOOOOOOOOOOOOOOO................................................................ooooooooOOOOOOOO++++++++        ",
"        ++++++++OOOOOOOOOOOOOOOO................................................................ooooooooOOOOOOOO++++++++        ",
"        ++++++++OOOOOOOOOOOOOOOO................................................................ooooooooOOOOOOOO++++++++        ",
"        ++++++++OOOOOOOOOOOOOOOO................................................................ooooooooOOOOOOOO++++++++        ",
"        @@@@@@@@++++++++OOOOOOOOOOOOOOOOOOOOOOOOOOOOOOOOOOOOOOOOOOOOOOOOOOOOOOOOOOOOOOOOOOOOOOOOOOOOOOOO++++++++@@@@@@@@        ",
"        @@@@@@@@++++++++OOOOOOOOOOOOOOOOOOOOOOOOOOOOOOOOOOOOOOOOOOOOOOOOOOOOOOOOOOOOOOOOOOOOOOOOOOOOOOOO++++++++@@@@@@@@        ",
"        @@@@@@@@++++++++OOOOOOOOOOOOOOOOOOOOOOOOOOOOOOOOOOOOOOOOOOOOOOOOOOOOOOOOOOOOOOOOOOOOOOOOOOOOOOOO++++++++@@@@@@@@        ",
"        @@@@@@@@++++++++OOOOOOOOOOOOOOOOOOOOOOOOOOOOOOOOOOOOOOOOOOOOOOOOOOOOOOOOOOOOOOOOOOOOOOOOOOOOOOOO++++++++@@@@@@@@        ",
"        @@@@@@@@++++++++OOOOOOOOOOOOOOOOOOOOOOOOOOOOOOOOOOOOOOOOOOOOOOOOOOOOOOOOOOOOOOOOOOOOOOOOOOOOOOOO++++++++@@@@@@@@        ",
"        @@@@@@@@++++++++OOOOOOOOOOOOOOOOOOOOOOOOOOOOOOOOOOOOOOOOOOOOOOOOOOOOOOOOOOOOOOOOOOOOOOOOOOOOOOOO++++++++@@@@@@@@        ",
"        @@@@@@@@++++++++OOOOOOOOOOOOOOOOOOOOOOOOOOOOOOOOOOOOOOOOOOOOOOOOOOOOOOOOOOOOOOOOOOOOOOOOOOOOOOOO++++++++@@@@@@@@        ",
"        @@@@@@@@++++++++OOOOOOOOOOOOOOOOOOOOOOOOOOOOOOOOOOOOOOOOOOOOOOOOOOOOOOOOOOOOOOOOOOOOOOOOOOOOOOOO++++++++@@@@@@@@        ",
"................................................................................................................................",
"................................................................................................................................",
"................................................................................................................................",
"................................................................................................................................",
"................................................................................................................................",
"................................................................................................................................",
"................................................................................................................................",
"................................................................................................................................",
"........XXXXXXXXXXXXXXXXXXXXXXXXXXXXXXXXXXXXXXXXXXXXXXXXXXXXXXXXXXXXXXXXXXXXXXXXXXXXXXXXXXXXXXXXXXXXXXXXXXXXXXXXXXXXXXXX........",
"........XXXXXXXXXXXXXXXXXXXXXXXXXXXXXXXXXXXXXXXXXXXXXXXXXXXXXXXXXXXXXXXXXXXXXXXXXXXXXXXXXXXXXXXXXXXXXXXXXXXXXXXXXXXXXXXX........",
"........XXXXXXXXXXXXXXXXXXXXXXXXXXXXXXXXXXXXXXXXXXXXXXXXXXXXXXXXXXXXXXXXXXXXXXXXXXXXXXXXXXXXXXXXXXXXXXXXXXXXXXXXXXXXXXXX........",
"........XXXXXXXXXXXXXXXXXXXXXXXXXXXXXXXXXXXXXXXXXXXXXXXXXXXXXXXXXXXXXXXXXXXXXXXXXXXXXXXXXXXXXXXXXXXXXXXXXXXXXXXXXXXXXXXX........",
"........XXXXXXXXXXXXXXXXXXXXXXXXXXXXXXXXXXXXXXXXXXXXXXXXXXXXXXXXXXXXXXXXXXXXXXXXXXXXXXXXXXXXXXXXXXXXXXXXXXXXXXXXXXXXXXXX........",
"........XXXXXXXXXXXXXXXXXXXXXXXXXXXXXXXXXXXXXXXXXXXXXXXXXXXXXXXXXXXXXXXXXXXXXXXXXXXXXXXXXXXXXXXXXXXXXXXXXXXXXXXXXXXXXXXX........",
"........XXXXXXXXXXXXXXXXXXXXXXXXXXXXXXXXXXXXXXXXXXXXXXXXXXXXXXXXXXXXXXXXXXXXXXXXXXXXXXXXXXXXXXXXXXXXXXXXXXXXXXXXXXXXXXXX........",
"........XXXXXXXXXXXXXXXXXXXXXXXXXXXXXXXXXXXXXXXXXXXXXXXXXXXXXXXXXXXXXXXXXXXXXXXXXXXXXXXXXXXXXXXXXXXXXXXXXXXXXXXXXXXXXXXX........"
};
