/* XPM */
static char *Texture14[] = {
/* columns rows colors chars-per-pixel */
"128 128 7 1 ",
"  c #292830",
". c #693227",
"X c #273352",
"o c #30526C",
"O c #417075",
"+ c #6A6C6D",
"@ c #8F8D85",
/* pixels */
"        ........        ................++++++++++++++++................++++++++++++++++................        ........        ",
"        ........        ................++++++++++++++++................++++++++++++++++................        ........        ",
"        ........        ................++++++++++++++++................++++++++++++++++................        ........        ",
"        ........        ................++++++++++++++++................++++++++++++++++................        ........        ",
"        ........        ................++++++++++++++++................++++++++++++++++................        ........        ",
"        ........        ................++++++++++++++++................++++++++++++++++................        ........        ",
"        ........        ................++++++++++++++++................++++++++++++++++................        ........        ",
"        ........        ................++++++++++++++++................++++++++++++++++................        ........        ",
"        ................++++++++++++++++@@@@@@@@@@@@@@@@++++++++++++++++@@@@@@@@@@@@@@@@++++++++++++++++................        ",
"        ................++++++++++++++++@@@@@@@@@@@@@@@@++++++++++++++++@@@@@@@@@@@@@@@@++++++++++++++++................        ",
"        ................++++++++++++++++@@@@@@@@@@@@@@@@++++++++++++++++@@@@@@@@@@@@@@@@++++++++++++++++................        ",
"        ................++++++++++++++++@@@@@@@@@@@@@@@@++++++++++++++++@@@@@@@@@@@@@@@@++++++++++++++++................        ",
"        ................++++++++++++++++@@@@@@@@@@@@@@@@++++++++++++++++@@@@@@@@@@@@@@@@++++++++++++++++................        ",
"        ................++++++++++++++++@@@@@@@@@@@@@@@@++++++++++++++++@@@@@@@@@@@@@@@@++++++++++++++++................        ",
"        ................++++++++++++++++@@@@@@@@@@@@@@@@++++++++++++++++@@@@@@@@@@@@@@@@++++++++++++++++................        ",
"        ................++++++++++++++++@@@@@@@@@@@@@@@@++++++++++++++++@@@@@@@@@@@@@@@@++++++++++++++++................        ",
"                        ................++++++++++++++++................++++++++++++++++................                        ",
"                        ................++++++++++++++++................++++++++++++++++................                        ",
"                        ................++++++++++++++++................++++++++++++++++................                        ",
"                        ................++++++++++++++++................++++++++++++++++................                        ",
"                        ................++++++++++++++++................++++++++++++++++................                        ",
"                        ................++++++++++++++++................++++++++++++++++................                        ",
"                        ................++++++++++++++++................++++++++++++++++................                        ",
"                        ................++++++++++++++++................++++++++++++++++................                        ",
"        ........        ++++++++++++++++@@@@@@@@@@@@@@@@++++++++++++++++@@@@@@@@@@@@@@@@++++++++++++++++        ........        ",
"        ........        ++++++++++++++++@@@@@@@@@@@@@@@@++++++++++++++++@@@@@@@@@@@@@@@@++++++++++++++++        ........        ",
"        ........        ++++++++++++++++@@@@@@@@@@@@@@@@++++++++++++++++@@@@@@@@@@@@@@@@++++++++++++++++        ........        ",
"        ........        ++++++++++++++++@@@@@@@@@@@@@@@@++++++++++++++++@@@@@@@@@@@@@@@@++++++++++++++++        ........        ",
"        ........        ++++++++++++++++@@@@@@@@@@@@@@@@++++++++++++++++@@@@@@@@@@@@@@@@++++++++++++++++        ........        ",
"        ........        ++++++++++++++++@@@@@@@@@@@@@@@@++++++++++++++++@@@@@@@@@@@@@@@@++++++++++++++++        ........        ",
"        ........        ++++++++++++++++@@@@@@@@@@@@@@@@++++++++++++++++@@@@@@@@@@@@@@@@++++++++++++++++        ........        ",
"        ........        ++++++++++++++++@@@@@@@@@@@@@@@@++++++++++++++++@@@@@@@@@@@@@@@@++++++++++++++++        ........        ",
"        ........        ++++++++++++++++@@@@@@@@@@@@@@@@++++++++++++++++@@@@@@@@@@@@@@@@++++++++++++++++        ........        ",
"        ........        ++++++++++++++++@@@@@@@@@@@@@@@@++++++++++++++++@@@@@@@@@@@@@@@@++++++++++++++++        ........        ",
"        ........        ++++++++++++++++@@@@@@@@@@@@@@@@++++++++++++++++@@@@@@@@@@@@@@@@++++++++++++++++        ........        ",
"        ........        ++++++++++++++++@@@@@@@@@@@@@@@@++++++++++++++++@@@@@@@@@@@@@@@@++++++++++++++++        ........        ",
"        ........        ++++++++++++++++@@@@@@@@@@@@@@@@++++++++++++++++@@@@@@@@@@@@@@@@++++++++++++++++        ........        ",
"        ........        ++++++++++++++++@@@@@@@@@@@@@@@@++++++++++++++++@@@@@@@@@@@@@@@@++++++++++++++++        ........        ",
"        ........        ++++++++++++++++@@@@@@@@@@@@@@@@++++++++++++++++@@@@@@@@@@@@@@@@++++++++++++++++        ........        ",
"        ........        ++++++++++++++++@@@@@@@@@@@@@@@@++++++++++++++++@@@@@@@@@@@@@@@@++++++++++++++++        ........        ",
"        ........        ................++++++++++++++++................++++++++++++++++................        ........        ",
"        ........        ................++++++++++++++++................++++++++++++++++................        ........        ",
"        ........        ................++++++++++++++++................++++++++++++++++................        ........        ",
"        ........        ................++++++++++++++++................++++++++++++++++................        ........        ",
"        ........        ................++++++++++++++++................++++++++++++++++................        ........        ",
"        ........        ................++++++++++++++++................++++++++++++++++................        ........        ",
"        ........        ................++++++++++++++++................++++++++++++++++................        ........        ",
"        ........        ................++++++++++++++++................++++++++++++++++................        ........        ",
"        ........        ++++++++++++++++@@@@@@@@                                @@@@@@@@++++++++++++++++        ........        ",
"        ........        ++++++++++++++++@@@@@@@@                                @@@@@@@@++++++++++++++++        ........        ",
"        ........        ++++++++++++++++@@@@@@@@                                @@@@@@@@++++++++++++++++        ........        ",
"        ........        ++++++++++++++++@@@@@@@@                                @@@@@@@@++++++++++++++++        ........        ",
"        ........        ++++++++++++++++@@@@@@@@                                @@@@@@@@++++++++++++++++        ........        ",
"        ........        ++++++++++++++++@@@@@@@@                                @@@@@@@@++++++++++++++++        ........        ",
"        ........        ++++++++++++++++@@@@@@@@                                @@@@@@@@++++++++++++++++        ........        ",
"        ........        ++++++++++++++++@@@@@@@@                                @@@@@@@@++++++++++++++++        ........        ",
"        ........        ++++++++++++++++@@@@@@@@        OOOOOOOOoooooooo        @@@@@@@@++++++++++++++++        ........        ",
"        ........        ++++++++++++++++@@@@@@@@        OOOOOOOOoooooooo        @@@@@@@@++++++++++++++++        ........        ",
"        ........        ++++++++++++++++@@@@@@@@        OOOOOOOOoooooooo        @@@@@@@@++++++++++++++++        ........        ",
"        ........        ++++++++++++++++@@@@@@@@        OOOOOOOOoooooooo        @@@@@@@@++++++++++++++++        ........        ",
"        ........        ++++++++++++++++@@@@@@@@        OOOOOOOOoooooooo        @@@@@@@@++++++++++++++++        ........        ",
"        ........        ++++++++++++++++@@@@@@@@        OOOOOOOOoooooooo        @@@@@@@@++++++++++++++++        ........        ",
"        ........        ++++++++++++++++@@@@@@@@        OOOOOOOOoooooooo        @@@@@@@@++++++++++++++++        ........        ",
"        ........        ++++++++++++++++@@@@@@@@        OOOOOOOOoooooooo        @@@@@@@@++++++++++++++++        ........        ",
"        ........        ++++++++++++++++@@@@@@@@        ooooooooXXXXXXXX        @@@@@@@@++++++++++++++++        ........        ",
"        ........        ++++++++++++++++@@@@@@@@        ooooooooXXXXXXXX        @@@@@@@@++++++++++++++++        ........        ",
"        ........        ++++++++++++++++@@@@@@@@        ooooooooXXXXXXXX        @@@@@@@@++++++++++++++++        ........        ",
"        ........        ++++++++++++++++@@@@@@@@        ooooooooXXXXXXXX        @@@@@@@@++++++++++++++++        ........        ",
"        ........        ++++++++++++++++@@@@@@@@        ooooooooXXXXXXXX        @@@@@@@@++++++++++++++++        ........        ",
"        ........        ++++++++++++++++@@@@@@@@        ooooooooXXXXXXXX        @@@@@@@@++++++++++++++++        ........        ",
"        ........        ++++++++++++++++@@@@@@@@        ooooooooXXXXXXXX        @@@@@@@@++++++++++++++++        ........        ",
"        ........        ++++++++++++++++@@@@@@@@        ooooooooXXXXXXXX        @@@@@@@@++++++++++++++++        ........        ",
"        ........        ++++++++++++++++@@@@@@@@                                @@@@@@@@++++++++++++++++        ........        ",
"        ........        ++++++++++++++++@@@@@@@@                                @@@@@@@@++++++++++++++++        ........        ",
"        ........        ++++++++++++++++@@@@@@@@                                @@@@@@@@++++++++++++++++        ........        ",
"        ........        ++++++++++++++++@@@@@@@@                                @@@@@@@@++++++++++++++++        ........        ",
"        ........        ++++++++++++++++@@@@@@@@                                @@@@@@@@++++++++++++++++        ........        ",
"        ........        ++++++++++++++++@@@@@@@@                                @@@@@@@@++++++++++++++++        ........        ",
"        ........        ++++++++++++++++@@@@@@@@                                @@@@@@@@++++++++++++++++        ........        ",
"        ........        ++++++++++++++++@@@@@@@@                                @@@@@@@@++++++++++++++++        ........        ",
"        ........        ................++++++++++++++++................++++++++++++++++................        ........        ",
"        ........        ................++++++++++++++++................++++++++++++++++................        ........        ",
"        ........        ................++++++++++++++++................++++++++++++++++................        ........        ",
"        ........        ................++++++++++++++++................++++++++++++++++................        ........        ",
"        ........        ................++++++++++++++++................++++++++++++++++................        ........        ",
"        ........        ................++++++++++++++++................++++++++++++++++................        ........        ",
"        ........        ................++++++++++++++++................++++++++++++++++................        ........        ",
"        ........        ................++++++++++++++++................++++++++++++++++................        ........        ",
"        ........        ++++++++++++++++@@@@@@@@@@@@@@@@++++++++++++++++@@@@@@@@@@@@@@@@++++++++++++++++        ........        ",
"        ........        ++++++++++++++++@@@@@@@@@@@@@@@@++++++++++++++++@@@@@@@@@@@@@@@@++++++++++++++++        ........        ",
"        ........        ++++++++++++++++@@@@@@@@@@@@@@@@++++++++++++++++@@@@@@@@@@@@@@@@++++++++++++++++        ........        ",
"        ........        ++++++++++++++++@@@@@@@@@@@@@@@@++++++++++++++++@@@@@@@@@@@@@@@@++++++++++++++++        ........        ",
"        ........        ++++++++++++++++@@@@@@@@@@@@@@@@++++++++++++++++@@@@@@@@@@@@@@@@++++++++++++++++        ........        ",
"        ........        ++++++++++++++++@@@@@@@@@@@@@@@@++++++++++++++++@@@@@@@@@@@@@@@@++++++++++++++++        ........        ",
"        ........        ++++++++++++++++@@@@@@@@@@@@@@@@++++++++++++++++@@@@@@@@@@@@@@@@++++++++++++++++        ........        ",
"        ........        ++++++++++++++++@@@@@@@@@@@@@@@@++++++++++++++++@@@@@@@@@@@@@@@@++++++++++++++++        ........        ",
"        ........        ++++++++++++++++@@@@@@@@@@@@@@@@++++++++++++++++@@@@@@@@@@@@@@@@++++++++++++++++        ........        ",
"        ........        ++++++++++++++++@@@@@@@@@@@@@@@@++++++++++++++++@@@@@@@@@@@@@@@@++++++++++++++++        ........        ",
"        ........        ++++++++++++++++@@@@@@@@@@@@@@@@++++++++++++++++@@@@@@@@@@@@@@@@++++++++++++++++        ........        ",
"        ........        ++++++++++++++++@@@@@@@@@@@@@@@@++++++++++++++++@@@@@@@@@@@@@@@@++++++++++++++++        ........        ",
"        ........        ++++++++++++++++@@@@@@@@@@@@@@@@++++++++++++++++@@@@@@@@@@@@@@@@++++++++++++++++        ........        ",
"        ........        ++++++++++++++++@@@@@@@@@@@@@@@@++++++++++++++++@@@@@@@@@@@@@@@@++++++++++++++++        ........        ",
"        ........        ++++++++++++++++@@@@@@@@@@@@@@@@++++++++++++++++@@@@@@@@@@@@@@@@++++++++++++++++        ........        ",
"        ........        ++++++++++++++++@@@@@@@@@@@@@@@@++++++++++++++++@@@@@@@@@@@@@@@@++++++++++++++++        ........        ",
"                        ................++++++++++++++++................++++++++++++++++................                        ",
"                        ................++++++++++++++++................++++++++++++++++................                        ",
"                        ................++++++++++++++++................++++++++++++++++................                        ",
"                        ................++++++++++++++++................++++++++++++++++................                        ",
"                        ................++++++++++++++++................++++++++++++++++................                        ",
"                        ................++++++++++++++++................++++++++++++++++................                        ",
"                        ................++++++++++++++++................++++++++++++++++................                        ",
"                        ................++++++++++++++++................++++++++++++++++................                        ",
"        ................++++++++++++++++@@@@@@@@@@@@@@@@++++++++++++++++@@@@@@@@@@@@@@@@++++++++++++++++................        ",
"        ................++++++++++++++++@@@@@@@@@@@@@@@@++++++++++++++++@@@@@@@@@@@@@@@@++++++++++++++++................        ",
"        ................++++++++++++++++@@@@@@@@@@@@@@@@++++++++++++++++@@@@@@@@@@@@@@@@++++++++++++++++................        ",
"        ................++++++++++++++++@@@@@@@@@@@@@@@@++++++++++++++++@@@@@@@@@@@@@@@@++++++++++++++++................        ",
"        ................++++++++++++++++@@@@@@@@@@@@@@@@++++++++++++++++@@@@@@@@@@@@@@@@++++++++++++++++................        ",
"        ................++++++++++++++++@@@@@@@@@@@@@@@@++++++++++++++++@@@@@@@@@@@@@@@@++++++++++++++++................        ",
"        ................++++++++++++++++@@@@@@@@@@@@@@@@++++++++++++++++@@@@@@@@@@@@@@@@++++++++++++++++................        ",
"        ................++++++++++++++++@@@@@@@@@@@@@@@@++++++++++++++++@@@@@@@@@@@@@@@@++++++++++++++++................        ",
"        ........        ................++++++++++++++++................++++++++++++++++................        ........        ",
"        ........        ................++++++++++++++++................++++++++++++++++................        ........        ",
"        ........        ................++++++++++++++++................++++++++++++++++................        ........        ",
"        ........        ................++++++++++++++++................++++++++++++++++................        ........        ",
"        ........        ................++++++++++++++++................++++++++++++++++................        ........        ",
"        ........        ................++++++++++++++++................++++++++++++++++................        ........        ",
"        ........        ................++++++++++++++++................++++++++++++++++................        ........        ",
"        ........        ................++++++++++++++++................++++++++++++++++................        ........        "
};
