/* XPM */
static char *Texture15[] = {
/* columns rows colors chars-per-pixel */
"128 128 6 1 ",
"  c #292830",
". c #33323C",
"X c #464553",
"o c #48575F",
"O c #53626B",
"+ c #C5DBD4",
/* pixels */
"                                                                                                                                ",
"                                                                                                                                ",
"                                                                                                                                ",
"                                                                                                                                ",
"                                                                                                                                ",
"                                                                                                                                ",
"                                                                                                                                ",
"                                                                                                                                ",
"        ........                                ................................                                ........        ",
"        ........                                ................................                                ........        ",
"        ........                                ................................                                ........        ",
"        ........                                ................................                                ........        ",
"        ........                                ................................                                ........        ",
"        ........                                ................................                                ........        ",
"        ........                                ................................                                ........        ",
"        ........                                ................................                                ........        ",
"                                ................................................................                                ",
"                                ................................................................                                ",
"                                ................................................................                                ",
"                                ................................................................                                ",
"                                ................................................................                                ",
"                                ................................................................                                ",
"                                ................................................................                                ",
"                                ................................................................                                ",
"                        ................................................................................                        ",
"                        ................................................................................                        ",
"                        ................................................................................                        ",
"                        ................................................................................                        ",
"                        ................................................................................                        ",
"                        ................................................................................                        ",
"                        ................................................................................                        ",
"                        ................................................................................                        ",
"        ................................XXXXXXXXXXXXXXXXXXXXXXXXXXXXXXXXXXXXXXXXXXXXXXXX................................        ",
"        ................................XXXXXXXXXXXXXXXXXXXXXXXXXXXXXXXXXXXXXXXXXXXXXXXX................................        ",
"        ................................XXXXXXXXXXXXXXXXXXXXXXXXXXXXXXXXXXXXXXXXXXXXXXXX................................        ",
"        ................................XXXXXXXXXXXXXXXXXXXXXXXXXXXXXXXXXXXXXXXXXXXXXXXX................................        ",
"        ................................XXXXXXXXXXXXXXXXXXXXXXXXXXXXXXXXXXXXXXXXXXXXXXXX................................        ",
"        ................................XXXXXXXXXXXXXXXXXXXXXXXXXXXXXXXXXXXXXXXXXXXXXXXX................................        ",
"        ................................XXXXXXXXXXXXXXXXXXXXXXXXXXXXXXXXXXXXXXXXXXXXXXXX................................        ",
"        ................................XXXXXXXXXXXXXXXXXXXXXXXXXXXXXXXXXXXXXXXXXXXXXXXX................................        ",
"        ................XXXXXXXXXXXXXXXXXXXXXXXXXXXXXXXXooooooooooooooooXXXXXXXXXXXXXXXXXXXXXXXXXXXXXXXX................        ",
"        ................XXXXXXXXXXXXXXXXXXXXXXXXXXXXXXXXooooooooooooooooXXXXXXXXXXXXXXXXXXXXXXXXXXXXXXXX................        ",
"        ................XXXXXXXXXXXXXXXXXXXXXXXXXXXXXXXXooooooooooooooooXXXXXXXXXXXXXXXXXXXXXXXXXXXXXXXX................        ",
"        ................XXXXXXXXXXXXXXXXXXXXXXXXXXXXXXXXooooooooooooooooXXXXXXXXXXXXXXXXXXXXXXXXXXXXXXXX................        ",
"        ................XXXXXXXXXXXXXXXXXXXXXXXXXXXXXXXXooooooooooooooooXXXXXXXXXXXXXXXXXXXXXXXXXXXXXXXX................        ",
"        ................XXXXXXXXXXXXXXXXXXXXXXXXXXXXXXXXooooooooooooooooXXXXXXXXXXXXXXXXXXXXXXXXXXXXXXXX................        ",
"        ................XXXXXXXXXXXXXXXXXXXXXXXXXXXXXXXXooooooooooooooooXXXXXXXXXXXXXXXXXXXXXXXXXXXXXXXX................        ",
"        ................XXXXXXXXXXXXXXXXXXXXXXXXXXXXXXXXooooooooooooooooXXXXXXXXXXXXXXXXXXXXXXXXXXXXXXXX................        ",
"        ........XXXXXXXXXXXXXXXXXXXXXXXXooooooooOOOOOOOOOOOOOOOOOOOOOOOOOOOOOOOOooooooooXXXXXXXXXXXXXXXXXXXXXXXX........        ",
"        ........XXXXXXXXXXXXXXXXXXXXXXXXooooooooOOOOOOOOOOOOOOOOOOOOOOOOOOOOOOOOooooooooXXXXXXXXXXXXXXXXXXXXXXXX........        ",
"        ........XXXXXXXXXXXXXXXXXXXXXXXXooooooooOOOOOOOOOOOOOOOOOOOOOOOOOOOOOOOOooooooooXXXXXXXXXXXXXXXXXXXXXXXX........        ",
"        ........XXXXXXXXXXXXXXXXXXXXXXXXooooooooOOOOOOOOOOOOOOOOOOOOOOOOOOOOOOOOooooooooXXXXXXXXXXXXXXXXXXXXXXXX........        ",
"        ........XXXXXXXXXXXXXXXXXXXXXXXXooooooooOOOOOOOOOOOOOOOOOOOOOOOOOOOOOOOOooooooooXXXXXXXXXXXXXXXXXXXXXXXX........        ",
"        ........XXXXXXXXXXXXXXXXXXXXXXXXooooooooOOOOOOOOOOOOOOOOOOOOOOOOOOOOOOOOooooooooXXXXXXXXXXXXXXXXXXXXXXXX........        ",
"        ........XXXXXXXXXXXXXXXXXXXXXXXXooooooooOOOOOOOOOOOOOOOOOOOOOOOOOOOOOOOOooooooooXXXXXXXXXXXXXXXXXXXXXXXX........        ",
"        ........XXXXXXXXXXXXXXXXXXXXXXXXooooooooOOOOOOOOOOOOOOOOOOOOOOOOOOOOOOOOooooooooXXXXXXXXXXXXXXXXXXXXXXXX........        ",
"        ........XXXXXXXXooooooooOOOOOOOOOOOOOOOO++++++++++++++++++++++++++++++++OOOOOOOOOOOOOOOOooooooooXXXXXXXX........        ",
"        ........XXXXXXXXooooooooOOOOOOOOOOOOOOOO++++++++++++++++++++++++++++++++OOOOOOOOOOOOOOOOooooooooXXXXXXXX........        ",
"        ........XXXXXXXXooooooooOOOOOOOOOOOOOOOO++++++++++++++++++++++++++++++++OOOOOOOOOOOOOOOOooooooooXXXXXXXX........        ",
"        ........XXXXXXXXooooooooOOOOOOOOOOOOOOOO++++++++++++++++++++++++++++++++OOOOOOOOOOOOOOOOooooooooXXXXXXXX........        ",
"        ........XXXXXXXXooooooooOOOOOOOOOOOOOOOO++++++++++++++++++++++++++++++++OOOOOOOOOOOOOOOOooooooooXXXXXXXX........        ",
"        ........XXXXXXXXooooooooOOOOOOOOOOOOOOOO++++++++++++++++++++++++++++++++OOOOOOOOOOOOOOOOooooooooXXXXXXXX........        ",
"        ........XXXXXXXXooooooooOOOOOOOOOOOOOOOO++++++++++++++++++++++++++++++++OOOOOOOOOOOOOOOOooooooooXXXXXXXX........        ",
"        ........XXXXXXXXooooooooOOOOOOOOOOOOOOOO++++++++++++++++++++++++++++++++OOOOOOOOOOOOOOOOooooooooXXXXXXXX........        ",
"        ........XXXXXXXXooooooooOOOOOOOOOOOOOOOO++++++++++++++++++++++++++++++++OOOOOOOOOOOOOOOOooooooooXXXXXXXX........        ",
"        ........XXXXXXXXooooooooOOOOOOOOOOOOOOOO++++++++++++++++++++++++++++++++OOOOOOOOOOOOOOOOooooooooXXXXXXXX........        ",
"        ........XXXXXXXXooooooooOOOOOOOOOOOOOOOO++++++++++++++++++++++++++++++++OOOOOOOOOOOOOOOOooooooooXXXXXXXX........        ",
"        ........XXXXXXXXooooooooOOOOOOOOOOOOOOOO++++++++++++++++++++++++++++++++OOOOOOOOOOOOOOOOooooooooXXXXXXXX........        ",
"        ........XXXXXXXXooooooooOOOOOOOOOOOOOOOO++++++++++++++++++++++++++++++++OOOOOOOOOOOOOOOOooooooooXXXXXXXX........        ",
"        ........XXXXXXXXooooooooOOOOOOOOOOOOOOOO++++++++++++++++++++++++++++++++OOOOOOOOOOOOOOOOooooooooXXXXXXXX........        ",
"        ........XXXXXXXXooooooooOOOOOOOOOOOOOOOO++++++++++++++++++++++++++++++++OOOOOOOOOOOOOOOOooooooooXXXXXXXX........        ",
"        ........XXXXXXXXooooooooOOOOOOOOOOOOOOOO++++++++++++++++++++++++++++++++OOOOOOOOOOOOOOOOooooooooXXXXXXXX........        ",
"        ........XXXXXXXXXXXXXXXXXXXXXXXXooooooooOOOOOOOOOOOOOOOOOOOOOOOOOOOOOOOOooooooooXXXXXXXXXXXXXXXXXXXXXXXX........        ",
"        ........XXXXXXXXXXXXXXXXXXXXXXXXooooooooOOOOOOOOOOOOOOOOOOOOOOOOOOOOOOOOooooooooXXXXXXXXXXXXXXXXXXXXXXXX........        ",
"        ........XXXXXXXXXXXXXXXXXXXXXXXXooooooooOOOOOOOOOOOOOOOOOOOOOOOOOOOOOOOOooooooooXXXXXXXXXXXXXXXXXXXXXXXX........        ",
"        ........XXXXXXXXXXXXXXXXXXXXXXXXooooooooOOOOOOOOOOOOOOOOOOOOOOOOOOOOOOOOooooooooXXXXXXXXXXXXXXXXXXXXXXXX........        ",
"        ........XXXXXXXXXXXXXXXXXXXXXXXXooooooooOOOOOOOOOOOOOOOOOOOOOOOOOOOOOOOOooooooooXXXXXXXXXXXXXXXXXXXXXXXX........        ",
"        ........XXXXXXXXXXXXXXXXXXXXXXXXooooooooOOOOOOOOOOOOOOOOOOOOOOOOOOOOOOOOooooooooXXXXXXXXXXXXXXXXXXXXXXXX........        ",
"        ........XXXXXXXXXXXXXXXXXXXXXXXXooooooooOOOOOOOOOOOOOOOOOOOOOOOOOOOOOOOOooooooooXXXXXXXXXXXXXXXXXXXXXXXX........        ",
"        ........XXXXXXXXXXXXXXXXXXXXXXXXooooooooOOOOOOOOOOOOOOOOOOOOOOOOOOOOOOOOooooooooXXXXXXXXXXXXXXXXXXXXXXXX........        ",
"        ................XXXXXXXXXXXXXXXXXXXXXXXXXXXXXXXXooooooooooooooooXXXXXXXXXXXXXXXXXXXXXXXXXXXXXXXX................        ",
"        ................XXXXXXXXXXXXXXXXXXXXXXXXXXXXXXXXooooooooooooooooXXXXXXXXXXXXXXXXXXXXXXXXXXXXXXXX................        ",
"        ................XXXXXXXXXXXXXXXXXXXXXXXXXXXXXXXXooooooooooooooooXXXXXXXXXXXXXXXXXXXXXXXXXXXXXXXX................        ",
"        ................XXXXXXXXXXXXXXXXXXXXXXXXXXXXXXXXooooooooooooooooXXXXXXXXXXXXXXXXXXXXXXXXXXXXXXXX................        ",
"        ................XXXXXXXXXXXXXXXXXXXXXXXXXXXXXXXXooooooooooooooooXXXXXXXXXXXXXXXXXXXXXXXXXXXXXXXX................        ",
"        ................XXXXXXXXXXXXXXXXXXXXXXXXXXXXXXXXooooooooooooooooXXXXXXXXXXXXXXXXXXXXXXXXXXXXXXXX................        ",
"        ................XXXXXXXXXXXXXXXXXXXXXXXXXXXXXXXXooooooooooooooooXXXXXXXXXXXXXXXXXXXXXXXXXXXXXXXX................        ",
"        ................XXXXXXXXXXXXXXXXXXXXXXXXXXXXXXXXooooooooooooooooXXXXXXXXXXXXXXXXXXXXXXXXXXXXXXXX................        ",
"        ................................XXXXXXXXXXXXXXXXXXXXXXXXXXXXXXXXXXXXXXXXXXXXXXXX................................        ",
"        ................................XXXXXXXXXXXXXXXXXXXXXXXXXXXXXXXXXXXXXXXXXXXXXXXX................................        ",
"        ................................XXXXXXXXXXXXXXXXXXXXXXXXXXXXXXXXXXXXXXXXXXXXXXXX................................        ",
"        ................................XXXXXXXXXXXXXXXXXXXXXXXXXXXXXXXXXXXXXXXXXXXXXXXX................................        ",
"        ................................XXXXXXXXXXXXXXXXXXXXXXXXXXXXXXXXXXXXXXXXXXXXXXXX................................        ",
"        ................................XXXXXXXXXXXXXXXXXXXXXXXXXXXXXXXXXXXXXXXXXXXXXXXX................................        ",
"        ................................XXXXXXXXXXXXXXXXXXXXXXXXXXXXXXXXXXXXXXXXXXXXXXXX................................        ",
"        ................................XXXXXXXXXXXXXXXXXXXXXXXXXXXXXXXXXXXXXXXXXXXXXXXX................................        ",
"                        ................................................................................                        ",
"                        ................................................................................                        ",
"                        ................................................................................                        ",
"                        ................................................................................                        ",
"                        ................................................................................                        ",
"                        ................................................................................                        ",
"                        ................................................................................                        ",
"                        ................................................................................                        ",
"                                ................................................................                                ",
"                                ................................................................                                ",
"                                ................................................................                                ",
"                                ................................................................                                ",
"                                ................................................................                                ",
"                                ................................................................                                ",
"                                ................................................................                                ",
"                                ................................................................                                ",
"        ........                                ................................                                ........        ",
"        ........                                ................................                                ........        ",
"        ........                                ................................                                ........        ",
"        ........                                ................................                                ........        ",
"        ........                                ................................                                ........        ",
"        ........                                ................................                                ........        ",
"        ........                                ................................                                ........        ",
"        ........                                ................................                                ........        ",
"                                                                                                                                ",
"                                                                                                                                ",
"                                                                                                                                ",
"                                                                                                                                ",
"                                                                                                                                ",
"                                                                                                                                ",
"                                                                                                                                ",
"                                                                                                                                "
};
