/* XPM */
static char *Texture12[] = {
/* columns rows colors chars-per-pixel */
"128 128 7 1 ",
"  c #292830",
". c #62311D",
"X c #693227",
"o c #6A6C6D",
"O c #863636",
"+ c #8B686F",
"@ c #8F8D85",
/* pixels */
"        XXXXXXXX        XXXXXXXXXXXXXXXXooooooooooooooooXXXXXXXXXXXXXXXXooooooooooooooooXXXXXXXXXXXXXXXX        XXXXXXXX        ",
"        XXXXXXXX        XXXXXXXXXXXXXXXXooooooooooooooooXXXXXXXXXXXXXXXXooooooooooooooooXXXXXXXXXXXXXXXX        XXXXXXXX        ",
"        XXXXXXXX        XXXXXXXXXXXXXXXXooooooooooooooooXXXXXXXXXXXXXXXXooooooooooooooooXXXXXXXXXXXXXXXX        XXXXXXXX        ",
"        XXXXXXXX        XXXXXXXXXXXXXXXXooooooooooooooooXXXXXXXXXXXXXXXXooooooooooooooooXXXXXXXXXXXXXXXX        XXXXXXXX        ",
"        XXXXXXXX        XXXXXXXXXXXXXXXXooooooooooooooooXXXXXXXXXXXXXXXXooooooooooooooooXXXXXXXXXXXXXXXX        XXXXXXXX        ",
"        XXXXXXXX        XXXXXXXXXXXXXXXXooooooooooooooooXXXXXXXXXXXXXXXXooooooooooooooooXXXXXXXXXXXXXXXX        XXXXXXXX        ",
"        XXXXXXXX        XXXXXXXXXXXXXXXXooooooooooooooooXXXXXXXXXXXXXXXXooooooooooooooooXXXXXXXXXXXXXXXX        XXXXXXXX        ",
"        XXXXXXXX        XXXXXXXXXXXXXXXXooooooooooooooooXXXXXXXXXXXXXXXXooooooooooooooooXXXXXXXXXXXXXXXX        XXXXXXXX        ",
"        XXXXXXXXXXXXXXXXoooooooooooooooo@@@@@@@@@@@@@@@@oooooooooooooooo@@@@@@@@@@@@@@@@ooooooooooooooooXXXXXXXXXXXXXXXX        ",
"        XXXXXXXXXXXXXXXXoooooooooooooooo@@@@@@@@@@@@@@@@oooooooooooooooo@@@@@@@@@@@@@@@@ooooooooooooooooXXXXXXXXXXXXXXXX        ",
"        XXXXXXXXXXXXXXXXoooooooooooooooo@@@@@@@@@@@@@@@@oooooooooooooooo@@@@@@@@@@@@@@@@ooooooooooooooooXXXXXXXXXXXXXXXX        ",
"        XXXXXXXXXXXXXXXXoooooooooooooooo@@@@@@@@@@@@@@@@oooooooooooooooo@@@@@@@@@@@@@@@@ooooooooooooooooXXXXXXXXXXXXXXXX        ",
"        XXXXXXXXXXXXXXXXoooooooooooooooo@@@@@@@@@@@@@@@@oooooooooooooooo@@@@@@@@@@@@@@@@ooooooooooooooooXXXXXXXXXXXXXXXX        ",
"        XXXXXXXXXXXXXXXXoooooooooooooooo@@@@@@@@@@@@@@@@oooooooooooooooo@@@@@@@@@@@@@@@@ooooooooooooooooXXXXXXXXXXXXXXXX        ",
"        XXXXXXXXXXXXXXXXoooooooooooooooo@@@@@@@@@@@@@@@@oooooooooooooooo@@@@@@@@@@@@@@@@ooooooooooooooooXXXXXXXXXXXXXXXX        ",
"        XXXXXXXXXXXXXXXXoooooooooooooooo@@@@@@@@@@@@@@@@oooooooooooooooo@@@@@@@@@@@@@@@@ooooooooooooooooXXXXXXXXXXXXXXXX        ",
"                        XXXXXXXXXXXXXXXXooooooooooooooooXXXXXXXXXXXXXXXXooooooooooooooooXXXXXXXXXXXXXXXX                        ",
"                        XXXXXXXXXXXXXXXXooooooooooooooooXXXXXXXXXXXXXXXXooooooooooooooooXXXXXXXXXXXXXXXX                        ",
"                        XXXXXXXXXXXXXXXXooooooooooooooooXXXXXXXXXXXXXXXXooooooooooooooooXXXXXXXXXXXXXXXX                        ",
"                        XXXXXXXXXXXXXXXXooooooooooooooooXXXXXXXXXXXXXXXXooooooooooooooooXXXXXXXXXXXXXXXX                        ",
"                        XXXXXXXXXXXXXXXXooooooooooooooooXXXXXXXXXXXXXXXXooooooooooooooooXXXXXXXXXXXXXXXX                        ",
"                        XXXXXXXXXXXXXXXXooooooooooooooooXXXXXXXXXXXXXXXXooooooooooooooooXXXXXXXXXXXXXXXX                        ",
"                        XXXXXXXXXXXXXXXXooooooooooooooooXXXXXXXXXXXXXXXXooooooooooooooooXXXXXXXXXXXXXXXX                        ",
"                        XXXXXXXXXXXXXXXXooooooooooooooooXXXXXXXXXXXXXXXXooooooooooooooooXXXXXXXXXXXXXXXX                        ",
"        XXXXXXXX        oooooooooooooooo@@@@@@@@@@@@@@@@oooooooooooooooo@@@@@@@@@@@@@@@@oooooooooooooooo        XXXXXXXX        ",
"        XXXXXXXX        oooooooooooooooo@@@@@@@@@@@@@@@@oooooooooooooooo@@@@@@@@@@@@@@@@oooooooooooooooo        XXXXXXXX        ",
"        XXXXXXXX        oooooooooooooooo@@@@@@@@@@@@@@@@oooooooooooooooo@@@@@@@@@@@@@@@@oooooooooooooooo        XXXXXXXX        ",
"        XXXXXXXX        oooooooooooooooo@@@@@@@@@@@@@@@@oooooooooooooooo@@@@@@@@@@@@@@@@oooooooooooooooo        XXXXXXXX        ",
"        XXXXXXXX        oooooooooooooooo@@@@@@@@@@@@@@@@oooooooooooooooo@@@@@@@@@@@@@@@@oooooooooooooooo        XXXXXXXX        ",
"        XXXXXXXX        oooooooooooooooo@@@@@@@@@@@@@@@@oooooooooooooooo@@@@@@@@@@@@@@@@oooooooooooooooo        XXXXXXXX        ",
"        XXXXXXXX        oooooooooooooooo@@@@@@@@@@@@@@@@oooooooooooooooo@@@@@@@@@@@@@@@@oooooooooooooooo        XXXXXXXX        ",
"        XXXXXXXX        oooooooooooooooo@@@@@@@@@@@@@@@@oooooooooooooooo@@@@@@@@@@@@@@@@oooooooooooooooo        XXXXXXXX        ",
"        XXXXXXXX        oooooooooooooooo@@@@@@@@@@@@@@@@oooooooooooooooo@@@@@@@@@@@@@@@@oooooooooooooooo        XXXXXXXX        ",
"        XXXXXXXX        oooooooooooooooo@@@@@@@@@@@@@@@@oooooooooooooooo@@@@@@@@@@@@@@@@oooooooooooooooo        XXXXXXXX        ",
"        XXXXXXXX        oooooooooooooooo@@@@@@@@@@@@@@@@oooooooooooooooo@@@@@@@@@@@@@@@@oooooooooooooooo        XXXXXXXX        ",
"        XXXXXXXX        oooooooooooooooo@@@@@@@@@@@@@@@@oooooooooooooooo@@@@@@@@@@@@@@@@oooooooooooooooo        XXXXXXXX        ",
"        XXXXXXXX        oooooooooooooooo@@@@@@@@@@@@@@@@oooooooooooooooo@@@@@@@@@@@@@@@@oooooooooooooooo        XXXXXXXX        ",
"        XXXXXXXX        oooooooooooooooo@@@@@@@@@@@@@@@@oooooooooooooooo@@@@@@@@@@@@@@@@oooooooooooooooo        XXXXXXXX        ",
"        XXXXXXXX        oooooooooooooooo@@@@@@@@@@@@@@@@oooooooooooooooo@@@@@@@@@@@@@@@@oooooooooooooooo        XXXXXXXX        ",
"        XXXXXXXX        oooooooooooooooo@@@@@@@@@@@@@@@@oooooooooooooooo@@@@@@@@@@@@@@@@oooooooooooooooo        XXXXXXXX        ",
"        XXXXXXXX        XXXXXXXXXXXXXXXXooooooooooooooooXXXXXXXXXXXXXXXXooooooooooooooooXXXXXXXXXXXXXXXX        XXXXXXXX        ",
"        XXXXXXXX        XXXXXXXXXXXXXXXXooooooooooooooooXXXXXXXXXXXXXXXXooooooooooooooooXXXXXXXXXXXXXXXX        XXXXXXXX        ",
"        XXXXXXXX        XXXXXXXXXXXXXXXXooooooooooooooooXXXXXXXXXXXXXXXXooooooooooooooooXXXXXXXXXXXXXXXX        XXXXXXXX        ",
"        XXXXXXXX        XXXXXXXXXXXXXXXXooooooooooooooooXXXXXXXXXXXXXXXXooooooooooooooooXXXXXXXXXXXXXXXX        XXXXXXXX        ",
"        XXXXXXXX        XXXXXXXXXXXXXXXXooooooooooooooooXXXXXXXXXXXXXXXXooooooooooooooooXXXXXXXXXXXXXXXX        XXXXXXXX        ",
"        XXXXXXXX        XXXXXXXXXXXXXXXXooooooooooooooooXXXXXXXXXXXXXXXXooooooooooooooooXXXXXXXXXXXXXXXX        XXXXXXXX        ",
"        XXXXXXXX        XXXXXXXXXXXXXXXXooooooooooooooooXXXXXXXXXXXXXXXXooooooooooooooooXXXXXXXXXXXXXXXX        XXXXXXXX        ",
"        XXXXXXXX        XXXXXXXXXXXXXXXXooooooooooooooooXXXXXXXXXXXXXXXXooooooooooooooooXXXXXXXXXXXXXXXX        XXXXXXXX        ",
"        XXXXXXXX        oooooooooooooooo@@@@@@@@                                @@@@@@@@oooooooooooooooo        XXXXXXXX        ",
"        XXXXXXXX        oooooooooooooooo@@@@@@@@                                @@@@@@@@oooooooooooooooo        XXXXXXXX        ",
"        XXXXXXXX        oooooooooooooooo@@@@@@@@                                @@@@@@@@oooooooooooooooo        XXXXXXXX        ",
"        XXXXXXXX        oooooooooooooooo@@@@@@@@                                @@@@@@@@oooooooooooooooo        XXXXXXXX        ",
"        XXXXXXXX        oooooooooooooooo@@@@@@@@                                @@@@@@@@oooooooooooooooo        XXXXXXXX        ",
"        XXXXXXXX        oooooooooooooooo@@@@@@@@                                @@@@@@@@oooooooooooooooo        XXXXXXXX        ",
"        XXXXXXXX        oooooooooooooooo@@@@@@@@                                @@@@@@@@oooooooooooooooo        XXXXXXXX        ",
"        XXXXXXXX        oooooooooooooooo@@@@@@@@                                @@@@@@@@oooooooooooooooo        XXXXXXXX        ",
"        XXXXXXXX        oooooooooooooooo@@@@@@@@        ++++++++OOOOOOOO        @@@@@@@@oooooooooooooooo        XXXXXXXX        ",
"        XXXXXXXX        oooooooooooooooo@@@@@@@@        ++++++++OOOOOOOO        @@@@@@@@oooooooooooooooo        XXXXXXXX        ",
"        XXXXXXXX        oooooooooooooooo@@@@@@@@        ++++++++OOOOOOOO        @@@@@@@@oooooooooooooooo        XXXXXXXX        ",
"        XXXXXXXX        oooooooooooooooo@@@@@@@@        ++++++++OOOOOOOO        @@@@@@@@oooooooooooooooo        XXXXXXXX        ",
"        XXXXXXXX        oooooooooooooooo@@@@@@@@        ++++++++OOOOOOOO        @@@@@@@@oooooooooooooooo        XXXXXXXX        ",
"        XXXXXXXX        oooooooooooooooo@@@@@@@@        ++++++++OOOOOOOO        @@@@@@@@oooooooooooooooo        XXXXXXXX        ",
"        XXXXXXXX        oooooooooooooooo@@@@@@@@        ++++++++OOOOOOOO        @@@@@@@@oooooooooooooooo        XXXXXXXX        ",
"        XXXXXXXX        oooooooooooooooo@@@@@@@@        ++++++++OOOOOOOO        @@@@@@@@oooooooooooooooo        XXXXXXXX        ",
"        XXXXXXXX        oooooooooooooooo@@@@@@@@        OOOOOOOO........        @@@@@@@@oooooooooooooooo        XXXXXXXX        ",
"        XXXXXXXX        oooooooooooooooo@@@@@@@@        OOOOOOOO........        @@@@@@@@oooooooooooooooo        XXXXXXXX        ",
"        XXXXXXXX        oooooooooooooooo@@@@@@@@        OOOOOOOO........        @@@@@@@@oooooooooooooooo        XXXXXXXX        ",
"        XXXXXXXX        oooooooooooooooo@@@@@@@@        OOOOOOOO........        @@@@@@@@oooooooooooooooo        XXXXXXXX        ",
"        XXXXXXXX        oooooooooooooooo@@@@@@@@        OOOOOOOO........        @@@@@@@@oooooooooooooooo        XXXXXXXX        ",
"        XXXXXXXX        oooooooooooooooo@@@@@@@@        OOOOOOOO........        @@@@@@@@oooooooooooooooo        XXXXXXXX        ",
"        XXXXXXXX        oooooooooooooooo@@@@@@@@        OOOOOOOO........        @@@@@@@@oooooooooooooooo        XXXXXXXX        ",
"        XXXXXXXX        oooooooooooooooo@@@@@@@@        OOOOOOOO........        @@@@@@@@oooooooooooooooo        XXXXXXXX        ",
"        XXXXXXXX        oooooooooooooooo@@@@@@@@                                @@@@@@@@oooooooooooooooo        XXXXXXXX        ",
"        XXXXXXXX        oooooooooooooooo@@@@@@@@                                @@@@@@@@oooooooooooooooo        XXXXXXXX        ",
"        XXXXXXXX        oooooooooooooooo@@@@@@@@                                @@@@@@@@oooooooooooooooo        XXXXXXXX        ",
"        XXXXXXXX        oooooooooooooooo@@@@@@@@                                @@@@@@@@oooooooooooooooo        XXXXXXXX        ",
"        XXXXXXXX        oooooooooooooooo@@@@@@@@                                @@@@@@@@oooooooooooooooo        XXXXXXXX        ",
"        XXXXXXXX        oooooooooooooooo@@@@@@@@                                @@@@@@@@oooooooooooooooo        XXXXXXXX        ",
"        XXXXXXXX        oooooooooooooooo@@@@@@@@                                @@@@@@@@oooooooooooooooo        XXXXXXXX        ",
"        XXXXXXXX        oooooooooooooooo@@@@@@@@                                @@@@@@@@oooooooooooooooo        XXXXXXXX        ",
"        XXXXXXXX        XXXXXXXXXXXXXXXXooooooooooooooooXXXXXXXXXXXXXXXXooooooooooooooooXXXXXXXXXXXXXXXX        XXXXXXXX        ",
"        XXXXXXXX        XXXXXXXXXXXXXXXXooooooooooooooooXXXXXXXXXXXXXXXXooooooooooooooooXXXXXXXXXXXXXXXX        XXXXXXXX        ",
"        XXXXXXXX        XXXXXXXXXXXXXXXXooooooooooooooooXXXXXXXXXXXXXXXXooooooooooooooooXXXXXXXXXXXXXXXX        XXXXXXXX        ",
"        XXXXXXXX        XXXXXXXXXXXXXXXXooooooooooooooooXXXXXXXXXXXXXXXXooooooooooooooooXXXXXXXXXXXXXXXX        XXXXXXXX        ",
"        XXXXXXXX        XXXXXXXXXXXXXXXXooooooooooooooooXXXXXXXXXXXXXXXXooooooooooooooooXXXXXXXXXXXXXXXX        XXXXXXXX        ",
"        XXXXXXXX        XXXXXXXXXXXXXXXXooooooooooooooooXXXXXXXXXXXXXXXXooooooooooooooooXXXXXXXXXXXXXXXX        XXXXXXXX        ",
"        XXXXXXXX        XXXXXXXXXXXXXXXXooooooooooooooooXXXXXXXXXXXXXXXXooooooooooooooooXXXXXXXXXXXXXXXX        XXXXXXXX        ",
"        XXXXXXXX        XXXXXXXXXXXXXXXXooooooooooooooooXXXXXXXXXXXXXXXXooooooooooooooooXXXXXXXXXXXXXXXX        XXXXXXXX        ",
"        XXXXXXXX        oooooooooooooooo@@@@@@@@@@@@@@@@oooooooooooooooo@@@@@@@@@@@@@@@@oooooooooooooooo        XXXXXXXX        ",
"        XXXXXXXX        oooooooooooooooo@@@@@@@@@@@@@@@@oooooooooooooooo@@@@@@@@@@@@@@@@oooooooooooooooo        XXXXXXXX        ",
"        XXXXXXXX        oooooooooooooooo@@@@@@@@@@@@@@@@oooooooooooooooo@@@@@@@@@@@@@@@@oooooooooooooooo        XXXXXXXX        ",
"        XXXXXXXX        oooooooooooooooo@@@@@@@@@@@@@@@@oooooooooooooooo@@@@@@@@@@@@@@@@oooooooooooooooo        XXXXXXXX        ",
"        XXXXXXXX        oooooooooooooooo@@@@@@@@@@@@@@@@oooooooooooooooo@@@@@@@@@@@@@@@@oooooooooooooooo        XXXXXXXX        ",
"        XXXXXXXX        oooooooooooooooo@@@@@@@@@@@@@@@@oooooooooooooooo@@@@@@@@@@@@@@@@oooooooooooooooo        XXXXXXXX        ",
"        XXXXXXXX        oooooooooooooooo@@@@@@@@@@@@@@@@oooooooooooooooo@@@@@@@@@@@@@@@@oooooooooooooooo        XXXXXXXX        ",
"        XXXXXXXX        oooooooooooooooo@@@@@@@@@@@@@@@@oooooooooooooooo@@@@@@@@@@@@@@@@oooooooooooooooo        XXXXXXXX        ",
"        XXXXXXXX        oooooooooooooooo@@@@@@@@@@@@@@@@oooooooooooooooo@@@@@@@@@@@@@@@@oooooooooooooooo        XXXXXXXX        ",
"        XXXXXXXX        oooooooooooooooo@@@@@@@@@@@@@@@@oooooooooooooooo@@@@@@@@@@@@@@@@oooooooooooooooo        XXXXXXXX        ",
"        XXXXXXXX        oooooooooooooooo@@@@@@@@@@@@@@@@oooooooooooooooo@@@@@@@@@@@@@@@@oooooooooooooooo        XXXXXXXX        ",
"        XXXXXXXX        oooooooooooooooo@@@@@@@@@@@@@@@@oooooooooooooooo@@@@@@@@@@@@@@@@oooooooooooooooo        XXXXXXXX        ",
"        XXXXXXXX        oooooooooooooooo@@@@@@@@@@@@@@@@oooooooooooooooo@@@@@@@@@@@@@@@@oooooooooooooooo        XXXXXXXX        ",
"        XXXXXXXX        oooooooooooooooo@@@@@@@@@@@@@@@@oooooooooooooooo@@@@@@@@@@@@@@@@oooooooooooooooo        XXXXXXXX        ",
"        XXXXXXXX        oooooooooooooooo@@@@@@@@@@@@@@@@oooooooooooooooo@@@@@@@@@@@@@@@@oooooooooooooooo        XXXXXXXX        ",
"        XXXXXXXX        oooooooooooooooo@@@@@@@@@@@@@@@@oooooooooooooooo@@@@@@@@@@@@@@@@oooooooooooooooo        XXXXXXXX        ",
"                        XXXXXXXXXXXXXXXXooooooooooooooooXXXXXXXXXXXXXXXXooooooooooooooooXXXXXXXXXXXXXXXX                        ",
"                        XXXXXXXXXXXXXXXXooooooooooooooooXXXXXXXXXXXXXXXXooooooooooooooooXXXXXXXXXXXXXXXX                        ",
"                        XXXXXXXXXXXXXXXXooooooooooooooooXXXXXXXXXXXXXXXXooooooooooooooooXXXXXXXXXXXXXXXX                        ",
"                        XXXXXXXXXXXXXXXXooooooooooooooooXXXXXXXXXXXXXXXXooooooooooooooooXXXXXXXXXXXXXXXX                        ",
"                        XXXXXXXXXXXXXXXXooooooooooooooooXXXXXXXXXXXXXXXXooooooooooooooooXXXXXXXXXXXXXXXX                        ",
"                        XXXXXXXXXXXXXXXXooooooooooooooooXXXXXXXXXXXXXXXXooooooooooooooooXXXXXXXXXXXXXXXX                        ",
"                        XXXXXXXXXXXXXXXXooooooooooooooooXXXXXXXXXXXXXXXXooooooooooooooooXXXXXXXXXXXXXXXX                        ",
"                        XXXXXXXXXXXXXXXXooooooooooooooooXXXXXXXXXXXXXXXXooooooooooooooooXXXXXXXXXXXXXXXX                        ",
"        XXXXXXXXXXXXXXXXoooooooooooooooo@@@@@@@@@@@@@@@@oooooooooooooooo@@@@@@@@@@@@@@@@ooooooooooooooooXXXXXXXXXXXXXXXX        ",
"        XXXXXXXXXXXXXXXXoooooooooooooooo@@@@@@@@@@@@@@@@oooooooooooooooo@@@@@@@@@@@@@@@@ooooooooooooooooXXXXXXXXXXXXXXXX        ",
"        XXXXXXXXXXXXXXXXoooooooooooooooo@@@@@@@@@@@@@@@@oooooooooooooooo@@@@@@@@@@@@@@@@ooooooooooooooooXXXXXXXXXXXXXXXX        ",
"        XXXXXXXXXXXXXXXXoooooooooooooooo@@@@@@@@@@@@@@@@oooooooooooooooo@@@@@@@@@@@@@@@@ooooooooooooooooXXXXXXXXXXXXXXXX        ",
"        XXXXXXXXXXXXXXXXoooooooooooooooo@@@@@@@@@@@@@@@@oooooooooooooooo@@@@@@@@@@@@@@@@ooooooooooooooooXXXXXXXXXXXXXXXX        ",
"        XXXXXXXXXXXXXXXXoooooooooooooooo@@@@@@@@@@@@@@@@oooooooooooooooo@@@@@@@@@@@@@@@@ooooooooooooooooXXXXXXXXXXXXXXXX        ",
"        XXXXXXXXXXXXXXXXoooooooooooooooo@@@@@@@@@@@@@@@@oooooooooooooooo@@@@@@@@@@@@@@@@ooooooooooooooooXXXXXXXXXXXXXXXX        ",
"        XXXXXXXXXXXXXXXXoooooooooooooooo@@@@@@@@@@@@@@@@oooooooooooooooo@@@@@@@@@@@@@@@@ooooooooooooooooXXXXXXXXXXXXXXXX        ",
"        XXXXXXXX        XXXXXXXXXXXXXXXXooooooooooooooooXXXXXXXXXXXXXXXXooooooooooooooooXXXXXXXXXXXXXXXX        XXXXXXXX        ",
"        XXXXXXXX        XXXXXXXXXXXXXXXXooooooooooooooooXXXXXXXXXXXXXXXXooooooooooooooooXXXXXXXXXXXXXXXX        XXXXXXXX        ",
"        XXXXXXXX        XXXXXXXXXXXXXXXXooooooooooooooooXXXXXXXXXXXXXXXXooooooooooooooooXXXXXXXXXXXXXXXX        XXXXXXXX        ",
"        XXXXXXXX        XXXXXXXXXXXXXXXXooooooooooooooooXXXXXXXXXXXXXXXXooooooooooooooooXXXXXXXXXXXXXXXX        XXXXXXXX        ",
"        XXXXXXXX        XXXXXXXXXXXXXXXXooooooooooooooooXXXXXXXXXXXXXXXXooooooooooooooooXXXXXXXXXXXXXXXX        XXXXXXXX        ",
"        XXXXXXXX        XXXXXXXXXXXXXXXXooooooooooooooooXXXXXXXXXXXXXXXXooooooooooooooooXXXXXXXXXXXXXXXX        XXXXXXXX        ",
"        XXXXXXXX        XXXXXXXXXXXXXXXXooooooooooooooooXXXXXXXXXXXXXXXXooooooooooooooooXXXXXXXXXXXXXXXX        XXXXXXXX        ",
"        XXXXXXXX        XXXXXXXXXXXXXXXXooooooooooooooooXXXXXXXXXXXXXXXXooooooooooooooooXXXXXXXXXXXXXXXX        XXXXXXXX        "
};
