/* XPM */
static char *Texture4[] = {
/* columns rows colors chars-per-pixel */
"128 128 6 1 ",
"  c #693227",
". c #73322F",
"X c #6A6C6D",
"o c #8F3E3A",
"O c #838078",
"+ c #9C9E92",
/* pixels */
"oooooooooooooooooooooooo........XXXXXXXXoooooooooooooooooooooooooooooooooooooooooooooooo........XXXXXXXXoooooooooooooooooooooooo",
"oooooooooooooooooooooooo........XXXXXXXXoooooooooooooooooooooooooooooooooooooooooooooooo........XXXXXXXXoooooooooooooooooooooooo",
"oooooooooooooooooooooooo........XXXXXXXXoooooooooooooooooooooooooooooooooooooooooooooooo........XXXXXXXXoooooooooooooooooooooooo",
"oooooooooooooooooooooooo........XXXXXXXXoooooooooooooooooooooooooooooooooooooooooooooooo........XXXXXXXXoooooooooooooooooooooooo",
"oooooooooooooooooooooooo........XXXXXXXXoooooooooooooooooooooooooooooooooooooooooooooooo........XXXXXXXXoooooooooooooooooooooooo",
"oooooooooooooooooooooooo........XXXXXXXXoooooooooooooooooooooooooooooooooooooooooooooooo........XXXXXXXXoooooooooooooooooooooooo",
"oooooooooooooooooooooooo........XXXXXXXXoooooooooooooooooooooooooooooooooooooooooooooooo........XXXXXXXXoooooooooooooooooooooooo",
"oooooooooooooooooooooooo........XXXXXXXXoooooooooooooooooooooooooooooooooooooooooooooooo........XXXXXXXXoooooooooooooooooooooooo",
"........................        XXXXXXXXoooooooo........................................        XXXXXXXXoooooooo................",
"........................        XXXXXXXXoooooooo........................................        XXXXXXXXoooooooo................",
"........................        XXXXXXXXoooooooo........................................        XXXXXXXXoooooooo................",
"........................        XXXXXXXXoooooooo........................................        XXXXXXXXoooooooo................",
"........................        XXXXXXXXoooooooo........................................        XXXXXXXXoooooooo................",
"........................        XXXXXXXXoooooooo........................................        XXXXXXXXoooooooo................",
"........................        XXXXXXXXoooooooo........................................        XXXXXXXXoooooooo................",
"........................        XXXXXXXXoooooooo........................................        XXXXXXXXoooooooo................",
"                                OOOOOOOO........                                                ++++++++........                ",
"                                OOOOOOOO........                                                ++++++++........                ",
"                                OOOOOOOO........                                                ++++++++........                ",
"                                OOOOOOOO........                                                ++++++++........                ",
"                                OOOOOOOO........                                                ++++++++........                ",
"                                OOOOOOOO........                                                ++++++++........                ",
"                                OOOOOOOO........                                                ++++++++........                ",
"                                OOOOOOOO........                                                ++++++++........                ",
"XXXXXXXXOOOOOOOOOOOOOOOOOOOOOOOOOOOOOOOOXXXXXXXXXXXXXXXXXXXXXXXXXXXXXXXXOOOOOOOO++++++++++++++++++++++++XXXXXXXXXXXXXXXXXXXXXXXX",
"XXXXXXXXOOOOOOOOOOOOOOOOOOOOOOOOOOOOOOOOXXXXXXXXXXXXXXXXXXXXXXXXXXXXXXXXOOOOOOOO++++++++++++++++++++++++XXXXXXXXXXXXXXXXXXXXXXXX",
"XXXXXXXXOOOOOOOOOOOOOOOOOOOOOOOOOOOOOOOOXXXXXXXXXXXXXXXXXXXXXXXXXXXXXXXXOOOOOOOO++++++++++++++++++++++++XXXXXXXXXXXXXXXXXXXXXXXX",
"XXXXXXXXOOOOOOOOOOOOOOOOOOOOOOOOOOOOOOOOXXXXXXXXXXXXXXXXXXXXXXXXXXXXXXXXOOOOOOOO++++++++++++++++++++++++XXXXXXXXXXXXXXXXXXXXXXXX",
"XXXXXXXXOOOOOOOOOOOOOOOOOOOOOOOOOOOOOOOOXXXXXXXXXXXXXXXXXXXXXXXXXXXXXXXXOOOOOOOO++++++++++++++++++++++++XXXXXXXXXXXXXXXXXXXXXXXX",
"XXXXXXXXOOOOOOOOOOOOOOOOOOOOOOOOOOOOOOOOXXXXXXXXXXXXXXXXXXXXXXXXXXXXXXXXOOOOOOOO++++++++++++++++++++++++XXXXXXXXXXXXXXXXXXXXXXXX",
"XXXXXXXXOOOOOOOOOOOOOOOOOOOOOOOOOOOOOOOOXXXXXXXXXXXXXXXXXXXXXXXXXXXXXXXXOOOOOOOO++++++++++++++++++++++++XXXXXXXXXXXXXXXXXXXXXXXX",
"XXXXXXXXOOOOOOOOOOOOOOOOOOOOOOOOOOOOOOOOXXXXXXXXXXXXXXXXXXXXXXXXXXXXXXXXOOOOOOOO++++++++++++++++++++++++XXXXXXXXXXXXXXXXXXXXXXXX",
"OOOOOOOOoooooooooooooooooooooooooooooooooooooooooooooooo........OOOOOOOOoooooooooooooooooooooooooooooooooooooooooooooooo........",
"OOOOOOOOoooooooooooooooooooooooooooooooooooooooooooooooo........OOOOOOOOoooooooooooooooooooooooooooooooooooooooooooooooo........",
"OOOOOOOOoooooooooooooooooooooooooooooooooooooooooooooooo........OOOOOOOOoooooooooooooooooooooooooooooooooooooooooooooooo........",
"OOOOOOOOoooooooooooooooooooooooooooooooooooooooooooooooo........OOOOOOOOoooooooooooooooooooooooooooooooooooooooooooooooo........",
"OOOOOOOOoooooooooooooooooooooooooooooooooooooooooooooooo........OOOOOOOOoooooooooooooooooooooooooooooooooooooooooooooooo........",
"OOOOOOOOoooooooooooooooooooooooooooooooooooooooooooooooo........OOOOOOOOoooooooooooooooooooooooooooooooooooooooooooooooo........",
"OOOOOOOOoooooooooooooooooooooooooooooooooooooooooooooooo........OOOOOOOOoooooooooooooooooooooooooooooooooooooooooooooooo........",
"OOOOOOOOoooooooooooooooooooooooooooooooooooooooooooooooo........OOOOOOOOoooooooooooooooooooooooooooooooooooooooooooooooo........",
"++++++++oooooooo........................................        OOOOOOOOoooooooo........................................        ",
"++++++++oooooooo........................................        OOOOOOOOoooooooo........................................        ",
"++++++++oooooooo........................................        OOOOOOOOoooooooo........................................        ",
"++++++++oooooooo........................................        OOOOOOOOoooooooo........................................        ",
"++++++++oooooooo........................................        OOOOOOOOoooooooo........................................        ",
"++++++++oooooooo........................................        OOOOOOOOoooooooo........................................        ",
"++++++++oooooooo........................................        OOOOOOOOoooooooo........................................        ",
"++++++++oooooooo........................................        OOOOOOOOoooooooo........................................        ",
"XXXXXXXX........                                                OOOOOOOO........                                                ",
"XXXXXXXX........                                                OOOOOOOO........                                                ",
"XXXXXXXX........                                                OOOOOOOO........                                                ",
"XXXXXXXX........                                                OOOOOOOO........                                                ",
"XXXXXXXX........                                                OOOOOOOO........                                                ",
"XXXXXXXX........                                                OOOOOOOO........                                                ",
"XXXXXXXX........                                                OOOOOOOO........                                                ",
"XXXXXXXX........                                                OOOOOOOO........                                                ",
"XXXXXXXX++++++++OOOOOOOOXXXXXXXXXXXXXXXXXXXXXXXXXXXXXXXXOOOOOOOO++++++++++++++++++++++++XXXXXXXXXXXXXXXXXXXXXXXXXXXXXXXXXXXXXXXX",
"XXXXXXXX++++++++OOOOOOOOXXXXXXXXXXXXXXXXXXXXXXXXXXXXXXXXOOOOOOOO++++++++++++++++++++++++XXXXXXXXXXXXXXXXXXXXXXXXXXXXXXXXXXXXXXXX",
"XXXXXXXX++++++++OOOOOOOOXXXXXXXXXXXXXXXXXXXXXXXXXXXXXXXXOOOOOOOO++++++++++++++++++++++++XXXXXXXXXXXXXXXXXXXXXXXXXXXXXXXXXXXXXXXX",
"XXXXXXXX++++++++OOOOOOOOXXXXXXXXXXXXXXXXXXXXXXXXXXXXXXXXOOOOOOOO++++++++++++++++++++++++XXXXXXXXXXXXXXXXXXXXXXXXXXXXXXXXXXXXXXXX",
"XXXXXXXX++++++++OOOOOOOOXXXXXXXXXXXXXXXXXXXXXXXXXXXXXXXXOOOOOOOO++++++++++++++++++++++++XXXXXXXXXXXXXXXXXXXXXXXXXXXXXXXXXXXXXXXX",
"XXXXXXXX++++++++OOOOOOOOXXXXXXXXXXXXXXXXXXXXXXXXXXXXXXXXOOOOOOOO++++++++++++++++++++++++XXXXXXXXXXXXXXXXXXXXXXXXXXXXXXXXXXXXXXXX",
"XXXXXXXX++++++++OOOOOOOOXXXXXXXXXXXXXXXXXXXXXXXXXXXXXXXXOOOOOOOO++++++++++++++++++++++++XXXXXXXXXXXXXXXXXXXXXXXXXXXXXXXXXXXXXXXX",
"XXXXXXXX++++++++OOOOOOOOXXXXXXXXXXXXXXXXXXXXXXXXXXXXXXXXOOOOOOOO++++++++++++++++++++++++XXXXXXXXXXXXXXXXXXXXXXXXXXXXXXXXXXXXXXXX",
"oooooooooooooooooooooooo........OOOOOOOOoooooooooooooooooooooooooooooooooooooooooooooooo........XXXXXXXXoooooooooooooooooooooooo",
"oooooooooooooooooooooooo........OOOOOOOOoooooooooooooooooooooooooooooooooooooooooooooooo........XXXXXXXXoooooooooooooooooooooooo",
"oooooooooooooooooooooooo........OOOOOOOOoooooooooooooooooooooooooooooooooooooooooooooooo........XXXXXXXXoooooooooooooooooooooooo",
"oooooooooooooooooooooooo........OOOOOOOOoooooooooooooooooooooooooooooooooooooooooooooooo........XXXXXXXXoooooooooooooooooooooooo",
"oooooooooooooooooooooooo........OOOOOOOOoooooooooooooooooooooooooooooooooooooooooooooooo........XXXXXXXXoooooooooooooooooooooooo",
"oooooooooooooooooooooooo........OOOOOOOOoooooooooooooooooooooooooooooooooooooooooooooooo........XXXXXXXXoooooooooooooooooooooooo",
"oooooooooooooooooooooooo........OOOOOOOOoooooooooooooooooooooooooooooooooooooooooooooooo........XXXXXXXXoooooooooooooooooooooooo",
"oooooooooooooooooooooooo........OOOOOOOOoooooooooooooooooooooooooooooooooooooooooooooooo........XXXXXXXXoooooooooooooooooooooooo",
"........................        OOOOOOOOoooooooo........................................        XXXXXXXXoooooooo................",
"........................        OOOOOOOOoooooooo........................................        XXXXXXXXoooooooo................",
"........................        OOOOOOOOoooooooo........................................        XXXXXXXXoooooooo................",
"........................        OOOOOOOOoooooooo........................................        XXXXXXXXoooooooo................",
"........................        OOOOOOOOoooooooo........................................        XXXXXXXXoooooooo................",
"........................        OOOOOOOOoooooooo........................................        XXXXXXXXoooooooo................",
"........................        OOOOOOOOoooooooo........................................        XXXXXXXXoooooooo................",
"........................        OOOOOOOOoooooooo........................................        XXXXXXXXoooooooo................",
"                                OOOOOOOO........                                                OOOOOOOO........                ",
"                                OOOOOOOO........                                                OOOOOOOO........                ",
"                                OOOOOOOO........                                                OOOOOOOO........                ",
"                                OOOOOOOO........                                                OOOOOOOO........                ",
"                                OOOOOOOO........                                                OOOOOOOO........                ",
"                                OOOOOOOO........                                                OOOOOOOO........                ",
"                                OOOOOOOO........                                                OOOOOOOO........                ",
"                                OOOOOOOO........                                                OOOOOOOO........                ",
"++++++++XXXXXXXX++++++++++++++++OOOOOOOOOOOOOOOOXXXXXXXXXXXXXXXX++++++++++++++++XXXXXXXXXXXXXXXX++++++++OOOOOOOO++++++++XXXXXXXX",
"++++++++XXXXXXXX++++++++++++++++OOOOOOOOOOOOOOOOXXXXXXXXXXXXXXXX++++++++++++++++XXXXXXXXXXXXXXXX++++++++OOOOOOOO++++++++XXXXXXXX",
"++++++++XXXXXXXX++++++++++++++++OOOOOOOOOOOOOOOOXXXXXXXXXXXXXXXX++++++++++++++++XXXXXXXXXXXXXXXX++++++++OOOOOOOO++++++++XXXXXXXX",
"++++++++XXXXXXXX++++++++++++++++OOOOOOOOOOOOOOOOXXXXXXXXXXXXXXXX++++++++++++++++XXXXXXXXXXXXXXXX++++++++OOOOOOOO++++++++XXXXXXXX",
"++++++++XXXXXXXX++++++++++++++++OOOOOOOOOOOOOOOOXXXXXXXXXXXXXXXX++++++++++++++++XXXXXXXXXXXXXXXX++++++++OOOOOOOO++++++++XXXXXXXX",
"++++++++XXXXXXXX++++++++++++++++OOOOOOOOOOOOOOOOXXXXXXXXXXXXXXXX++++++++++++++++XXXXXXXXXXXXXXXX++++++++OOOOOOOO++++++++XXXXXXXX",
"++++++++XXXXXXXX++++++++++++++++OOOOOOOOOOOOOOOOXXXXXXXXXXXXXXXX++++++++++++++++XXXXXXXXXXXXXXXX++++++++OOOOOOOO++++++++XXXXXXXX",
"++++++++XXXXXXXX++++++++++++++++OOOOOOOOOOOOOOOOXXXXXXXXXXXXXXXX++++++++++++++++XXXXXXXXXXXXXXXX++++++++OOOOOOOO++++++++XXXXXXXX",
"OOOOOOOOoooooooooooooooooooooooooooooooooooooooooooooooo........OOOOOOOOoooooooooooooooooooooooooooooooooooooooooooooooo........",
"OOOOOOOOoooooooooooooooooooooooooooooooooooooooooooooooo........OOOOOOOOoooooooooooooooooooooooooooooooooooooooooooooooo........",
"OOOOOOOOoooooooooooooooooooooooooooooooooooooooooooooooo........OOOOOOOOoooooooooooooooooooooooooooooooooooooooooooooooo........",
"OOOOOOOOoooooooooooooooooooooooooooooooooooooooooooooooo........OOOOOOOOoooooooooooooooooooooooooooooooooooooooooooooooo........",
"OOOOOOOOoooooooooooooooooooooooooooooooooooooooooooooooo........OOOOOOOOoooooooooooooooooooooooooooooooooooooooooooooooo........",
"OOOOOOOOoooooooooooooooooooooooooooooooooooooooooooooooo........OOOOOOOOoooooooooooooooooooooooooooooooooooooooooooooooo........",
"OOOOOOOOoooooooooooooooooooooooooooooooooooooooooooooooo........OOOOOOOOoooooooooooooooooooooooooooooooooooooooooooooooo........",
"OOOOOOOOoooooooooooooooooooooooooooooooooooooooooooooooo........OOOOOOOOoooooooooooooooooooooooooooooooooooooooooooooooo........",
"XXXXXXXXoooooooo........................................        OOOOOOOOoooooooo........................................        ",
"XXXXXXXXoooooooo........................................        OOOOOOOOoooooooo........................................        ",
"XXXXXXXXoooooooo........................................        OOOOOOOOoooooooo........................................        ",
"XXXXXXXXoooooooo........................................        OOOOOOOOoooooooo........................................        ",
"XXXXXXXXoooooooo........................................        OOOOOOOOoooooooo........................................        ",
"XXXXXXXXoooooooo........................................        OOOOOOOOoooooooo........................................        ",
"XXXXXXXXoooooooo........................................        OOOOOOOOoooooooo........................................        ",
"XXXXXXXXoooooooo........................................        OOOOOOOOoooooooo........................................        ",
"++++++++........                                                OOOOOOOO........                                                ",
"++++++++........                                                OOOOOOOO........                                                ",
"++++++++........                                                OOOOOOOO........                                                ",
"++++++++........                                                OOOOOOOO........                                                ",
"++++++++........                                                OOOOOOOO........                                                ",
"++++++++........                                                OOOOOOOO........                                                ",
"++++++++........                                                OOOOOOOO........                                                ",
"++++++++........                                                OOOOOOOO........                                                ",
"XXXXXXXX++++++++OOOOOOOOXXXXXXXXXXXXXXXXXXXXXXXXXXXXXXXX++++++++++++++++XXXXXXXXXXXXXXXX++++++++XXXXXXXXXXXXXXXXXXXXXXXXXXXXXXXX",
"XXXXXXXX++++++++OOOOOOOOXXXXXXXXXXXXXXXXXXXXXXXXXXXXXXXX++++++++++++++++XXXXXXXXXXXXXXXX++++++++XXXXXXXXXXXXXXXXXXXXXXXXXXXXXXXX",
"XXXXXXXX++++++++OOOOOOOOXXXXXXXXXXXXXXXXXXXXXXXXXXXXXXXX++++++++++++++++XXXXXXXXXXXXXXXX++++++++XXXXXXXXXXXXXXXXXXXXXXXXXXXXXXXX",
"XXXXXXXX++++++++OOOOOOOOXXXXXXXXXXXXXXXXXXXXXXXXXXXXXXXX++++++++++++++++XXXXXXXXXXXXXXXX++++++++XXXXXXXXXXXXXXXXXXXXXXXXXXXXXXXX",
"XXXXXXXX++++++++OOOOOOOOXXXXXXXXXXXXXXXXXXXXXXXXXXXXXXXX++++++++++++++++XXXXXXXXXXXXXXXX++++++++XXXXXXXXXXXXXXXXXXXXXXXXXXXXXXXX",
"XXXXXXXX++++++++OOOOOOOOXXXXXXXXXXXXXXXXXXXXXXXXXXXXXXXX++++++++++++++++XXXXXXXXXXXXXXXX++++++++XXXXXXXXXXXXXXXXXXXXXXXXXXXXXXXX",
"XXXXXXXX++++++++OOOOOOOOXXXXXXXXXXXXXXXXXXXXXXXXXXXXXXXX++++++++++++++++XXXXXXXXXXXXXXXX++++++++XXXXXXXXXXXXXXXXXXXXXXXXXXXXXXXX",
"XXXXXXXX++++++++OOOOOOOOXXXXXXXXXXXXXXXXXXXXXXXXXXXXXXXX++++++++++++++++XXXXXXXXXXXXXXXX++++++++XXXXXXXXXXXXXXXXXXXXXXXXXXXXXXXX"
};
