/* XPM */
static char *Texture13[] = {
/* columns rows colors chars-per-pixel */
"128 128 7 1 ",
"  c #292830",
". c #693227",
"X c #3C5E40",
"o c #637B54",
"O c #6A6C6D",
"+ c #81933D",
"@ c #8F8D85",
/* pixels */
"        ........        ................OOOOOOOOOOOOOOOO................OOOOOOOOOOOOOOOO................        ........        ",
"        ........        ................OOOOOOOOOOOOOOOO................OOOOOOOOOOOOOOOO................        ........        ",
"        ........        ................OOOOOOOOOOOOOOOO................OOOOOOOOOOOOOOOO................        ........        ",
"        ........        ................OOOOOOOOOOOOOOOO................OOOOOOOOOOOOOOOO................        ........        ",
"        ........        ................OOOOOOOOOOOOOOOO................OOOOOOOOOOOOOOOO................        ........        ",
"        ........        ................OOOOOOOOOOOOOOOO................OOOOOOOOOOOOOOOO................        ........        ",
"        ........        ................OOOOOOOOOOOOOOOO................OOOOOOOOOOOOOOOO................        ........        ",
"        ........        ................OOOOOOOOOOOOOOOO................OOOOOOOOOOOOOOOO................        ........        ",
"        ................OOOOOOOOOOOOOOOO@@@@@@@@@@@@@@@@OOOOOOOOOOOOOOOO@@@@@@@@@@@@@@@@OOOOOOOOOOOOOOOO................        ",
"        ................OOOOOOOOOOOOOOOO@@@@@@@@@@@@@@@@OOOOOOOOOOOOOOOO@@@@@@@@@@@@@@@@OOOOOOOOOOOOOOOO................        ",
"        ................OOOOOOOOOOOOOOOO@@@@@@@@@@@@@@@@OOOOOOOOOOOOOOOO@@@@@@@@@@@@@@@@OOOOOOOOOOOOOOOO................        ",
"        ................OOOOOOOOOOOOOOOO@@@@@@@@@@@@@@@@OOOOOOOOOOOOOOOO@@@@@@@@@@@@@@@@OOOOOOOOOOOOOOOO................        ",
"        ................OOOOOOOOOOOOOOOO@@@@@@@@@@@@@@@@OOOOOOOOOOOOOOOO@@@@@@@@@@@@@@@@OOOOOOOOOOOOOOOO................        ",
"        ................OOOOOOOOOOOOOOOO@@@@@@@@@@@@@@@@OOOOOOOOOOOOOOOO@@@@@@@@@@@@@@@@OOOOOOOOOOOOOOOO................        ",
"        ................OOOOOOOOOOOOOOOO@@@@@@@@@@@@@@@@OOOOOOOOOOOOOOOO@@@@@@@@@@@@@@@@OOOOOOOOOOOOOOOO................        ",
"        ................OOOOOOOOOOOOOOOO@@@@@@@@@@@@@@@@OOOOOOOOOOOOOOOO@@@@@@@@@@@@@@@@OOOOOOOOOOOOOOOO................        ",
"                        ................OOOOOOOOOOOOOOOO................OOOOOOOOOOOOOOOO................                        ",
"                        ................OOOOOOOOOOOOOOOO................OOOOOOOOOOOOOOOO................                        ",
"                        ................OOOOOOOOOOOOOOOO................OOOOOOOOOOOOOOOO................                        ",
"                        ................OOOOOOOOOOOOOOOO................OOOOOOOOOOOOOOOO................                        ",
"                        ................OOOOOOOOOOOOOOOO................OOOOOOOOOOOOOOOO................                        ",
"                        ................OOOOOOOOOOOOOOOO................OOOOOOOOOOOOOOOO................                        ",
"                        ................OOOOOOOOOOOOOOOO................OOOOOOOOOOOOOOOO................                        ",
"                        ................OOOOOOOOOOOOOOOO................OOOOOOOOOOOOOOOO................                        ",
"        ........        OOOOOOOOOOOOOOOO@@@@@@@@@@@@@@@@OOOOOOOOOOOOOOOO@@@@@@@@@@@@@@@@OOOOOOOOOOOOOOOO        ........        ",
"        ........        OOOOOOOOOOOOOOOO@@@@@@@@@@@@@@@@OOOOOOOOOOOOOOOO@@@@@@@@@@@@@@@@OOOOOOOOOOOOOOOO        ........        ",
"        ........        OOOOOOOOOOOOOOOO@@@@@@@@@@@@@@@@OOOOOOOOOOOOOOOO@@@@@@@@@@@@@@@@OOOOOOOOOOOOOOOO        ........        ",
"        ........        OOOOOOOOOOOOOOOO@@@@@@@@@@@@@@@@OOOOOOOOOOOOOOOO@@@@@@@@@@@@@@@@OOOOOOOOOOOOOOOO        ........        ",
"        ........        OOOOOOOOOOOOOOOO@@@@@@@@@@@@@@@@OOOOOOOOOOOOOOOO@@@@@@@@@@@@@@@@OOOOOOOOOOOOOOOO        ........        ",
"        ........        OOOOOOOOOOOOOOOO@@@@@@@@@@@@@@@@OOOOOOOOOOOOOOOO@@@@@@@@@@@@@@@@OOOOOOOOOOOOOOOO        ........        ",
"        ........        OOOOOOOOOOOOOOOO@@@@@@@@@@@@@@@@OOOOOOOOOOOOOOOO@@@@@@@@@@@@@@@@OOOOOOOOOOOOOOOO        ........        ",
"        ........        OOOOOOOOOOOOOOOO@@@@@@@@@@@@@@@@OOOOOOOOOOOOOOOO@@@@@@@@@@@@@@@@OOOOOOOOOOOOOOOO        ........        ",
"        ........        OOOOOOOOOOOOOOOO@@@@@@@@@@@@@@@@OOOOOOOOOOOOOOOO@@@@@@@@@@@@@@@@OOOOOOOOOOOOOOOO        ........        ",
"        ........        OOOOOOOOOOOOOOOO@@@@@@@@@@@@@@@@OOOOOOOOOOOOOOOO@@@@@@@@@@@@@@@@OOOOOOOOOOOOOOOO        ........        ",
"        ........        OOOOOOOOOOOOOOOO@@@@@@@@@@@@@@@@OOOOOOOOOOOOOOOO@@@@@@@@@@@@@@@@OOOOOOOOOOOOOOOO        ........        ",
"        ........        OOOOOOOOOOOOOOOO@@@@@@@@@@@@@@@@OOOOOOOOOOOOOOOO@@@@@@@@@@@@@@@@OOOOOOOOOOOOOOOO        ........        ",
"        ........        OOOOOOOOOOOOOOOO@@@@@@@@@@@@@@@@OOOOOOOOOOOOOOOO@@@@@@@@@@@@@@@@OOOOOOOOOOOOOOOO        ........        ",
"        ........        OOOOOOOOOOOOOOOO@@@@@@@@@@@@@@@@OOOOOOOOOOOOOOOO@@@@@@@@@@@@@@@@OOOOOOOOOOOOOOOO        ........        ",
"        ........        OOOOOOOOOOOOOOOO@@@@@@@@@@@@@@@@OOOOOOOOOOOOOOOO@@@@@@@@@@@@@@@@OOOOOOOOOOOOOOOO        ........        ",
"        ........        OOOOOOOOOOOOOOOO@@@@@@@@@@@@@@@@OOOOOOOOOOOOOOOO@@@@@@@@@@@@@@@@OOOOOOOOOOOOOOOO        ........        ",
"        ........        ................OOOOOOOOOOOOOOOO................OOOOOOOOOOOOOOOO................        ........        ",
"        ........        ................OOOOOOOOOOOOOOOO................OOOOOOOOOOOOOOOO................        ........        ",
"        ........        ................OOOOOOOOOOOOOOOO................OOOOOOOOOOOOOOOO................        ........        ",
"        ........        ................OOOOOOOOOOOOOOOO................OOOOOOOOOOOOOOOO................        ........        ",
"        ........        ................OOOOOOOOOOOOOOOO................OOOOOOOOOOOOOOOO................        ........        ",
"        ........        ................OOOOOOOOOOOOOOOO................OOOOOOOOOOOOOOOO................        ........        ",
"        ........        ................OOOOOOOOOOOOOOOO................OOOOOOOOOOOOOOOO................        ........        ",
"        ........        ................OOOOOOOOOOOOOOOO................OOOOOOOOOOOOOOOO................        ........        ",
"        ........        OOOOOOOOOOOOOOOO@@@@@@@@                                @@@@@@@@OOOOOOOOOOOOOOOO        ........        ",
"        ........        OOOOOOOOOOOOOOOO@@@@@@@@                                @@@@@@@@OOOOOOOOOOOOOOOO        ........        ",
"        ........        OOOOOOOOOOOOOOOO@@@@@@@@                                @@@@@@@@OOOOOOOOOOOOOOOO        ........        ",
"        ........        OOOOOOOOOOOOOOOO@@@@@@@@                                @@@@@@@@OOOOOOOOOOOOOOOO        ........        ",
"        ........        OOOOOOOOOOOOOOOO@@@@@@@@                                @@@@@@@@OOOOOOOOOOOOOOOO        ........        ",
"        ........        OOOOOOOOOOOOOOOO@@@@@@@@                                @@@@@@@@OOOOOOOOOOOOOOOO        ........        ",
"        ........        OOOOOOOOOOOOOOOO@@@@@@@@                                @@@@@@@@OOOOOOOOOOOOOOOO        ........        ",
"        ........        OOOOOOOOOOOOOOOO@@@@@@@@                                @@@@@@@@OOOOOOOOOOOOOOOO        ........        ",
"        ........        OOOOOOOOOOOOOOOO@@@@@@@@        ++++++++oooooooo        @@@@@@@@OOOOOOOOOOOOOOOO        ........        ",
"        ........        OOOOOOOOOOOOOOOO@@@@@@@@        ++++++++oooooooo        @@@@@@@@OOOOOOOOOOOOOOOO        ........        ",
"        ........        OOOOOOOOOOOOOOOO@@@@@@@@        ++++++++oooooooo        @@@@@@@@OOOOOOOOOOOOOOOO        ........        ",
"        ........        OOOOOOOOOOOOOOOO@@@@@@@@        ++++++++oooooooo        @@@@@@@@OOOOOOOOOOOOOOOO        ........        ",
"        ........        OOOOOOOOOOOOOOOO@@@@@@@@        ++++++++oooooooo        @@@@@@@@OOOOOOOOOOOOOOOO        ........        ",
"        ........        OOOOOOOOOOOOOOOO@@@@@@@@        ++++++++oooooooo        @@@@@@@@OOOOOOOOOOOOOOOO        ........        ",
"        ........        OOOOOOOOOOOOOOOO@@@@@@@@        ++++++++oooooooo        @@@@@@@@OOOOOOOOOOOOOOOO        ........        ",
"        ........        OOOOOOOOOOOOOOOO@@@@@@@@        ++++++++oooooooo        @@@@@@@@OOOOOOOOOOOOOOOO        ........        ",
"        ........        OOOOOOOOOOOOOOOO@@@@@@@@        ooooooooXXXXXXXX        @@@@@@@@OOOOOOOOOOOOOOOO        ........        ",
"        ........        OOOOOOOOOOOOOOOO@@@@@@@@        ooooooooXXXXXXXX        @@@@@@@@OOOOOOOOOOOOOOOO        ........        ",
"        ........        OOOOOOOOOOOOOOOO@@@@@@@@        ooooooooXXXXXXXX        @@@@@@@@OOOOOOOOOOOOOOOO        ........        ",
"        ........        OOOOOOOOOOOOOOOO@@@@@@@@        ooooooooXXXXXXXX        @@@@@@@@OOOOOOOOOOOOOOOO        ........        ",
"        ........        OOOOOOOOOOOOOOOO@@@@@@@@        ooooooooXXXXXXXX        @@@@@@@@OOOOOOOOOOOOOOOO        ........        ",
"        ........        OOOOOOOOOOOOOOOO@@@@@@@@        ooooooooXXXXXXXX        @@@@@@@@OOOOOOOOOOOOOOOO        ........        ",
"        ........        OOOOOOOOOOOOOOOO@@@@@@@@        ooooooooXXXXXXXX        @@@@@@@@OOOOOOOOOOOOOOOO        ........        ",
"        ........        OOOOOOOOOOOOOOOO@@@@@@@@        ooooooooXXXXXXXX        @@@@@@@@OOOOOOOOOOOOOOOO        ........        ",
"        ........        OOOOOOOOOOOOOOOO@@@@@@@@                                @@@@@@@@OOOOOOOOOOOOOOOO        ........        ",
"        ........        OOOOOOOOOOOOOOOO@@@@@@@@                                @@@@@@@@OOOOOOOOOOOOOOOO        ........        ",
"        ........        OOOOOOOOOOOOOOOO@@@@@@@@                                @@@@@@@@OOOOOOOOOOOOOOOO        ........        ",
"        ........        OOOOOOOOOOOOOOOO@@@@@@@@                                @@@@@@@@OOOOOOOOOOOOOOOO        ........        ",
"        ........        OOOOOOOOOOOOOOOO@@@@@@@@                                @@@@@@@@OOOOOOOOOOOOOOOO        ........        ",
"        ........        OOOOOOOOOOOOOOOO@@@@@@@@                                @@@@@@@@OOOOOOOOOOOOOOOO        ........        ",
"        ........        OOOOOOOOOOOOOOOO@@@@@@@@                                @@@@@@@@OOOOOOOOOOOOOOOO        ........        ",
"        ........        OOOOOOOOOOOOOOOO@@@@@@@@                                @@@@@@@@OOOOOOOOOOOOOOOO        ........        ",
"        ........        ................OOOOOOOOOOOOOOOO................OOOOOOOOOOOOOOOO................        ........        ",
"        ........        ................OOOOOOOOOOOOOOOO................OOOOOOOOOOOOOOOO................        ........        ",
"        ........        ................OOOOOOOOOOOOOOOO................OOOOOOOOOOOOOOOO................        ........        ",
"        ........        ................OOOOOOOOOOOOOOOO................OOOOOOOOOOOOOOOO................        ........        ",
"        ........        ................OOOOOOOOOOOOOOOO................OOOOOOOOOOOOOOOO................        ........        ",
"        ........        ................OOOOOOOOOOOOOOOO................OOOOOOOOOOOOOOOO................        ........        ",
"        ........        ................OOOOOOOOOOOOOOOO................OOOOOOOOOOOOOOOO................        ........        ",
"        ........        ................OOOOOOOOOOOOOOOO................OOOOOOOOOOOOOOOO................        ........        ",
"        ........        OOOOOOOOOOOOOOOO@@@@@@@@@@@@@@@@OOOOOOOOOOOOOOOO@@@@@@@@@@@@@@@@OOOOOOOOOOOOOOOO        ........        ",
"        ........        OOOOOOOOOOOOOOOO@@@@@@@@@@@@@@@@OOOOOOOOOOOOOOOO@@@@@@@@@@@@@@@@OOOOOOOOOOOOOOOO        ........        ",
"        ........        OOOOOOOOOOOOOOOO@@@@@@@@@@@@@@@@OOOOOOOOOOOOOOOO@@@@@@@@@@@@@@@@OOOOOOOOOOOOOOOO        ........        ",
"        ........        OOOOOOOOOOOOOOOO@@@@@@@@@@@@@@@@OOOOOOOOOOOOOOOO@@@@@@@@@@@@@@@@OOOOOOOOOOOOOOOO        ........        ",
"        ........        OOOOOOOOOOOOOOOO@@@@@@@@@@@@@@@@OOOOOOOOOOOOOOOO@@@@@@@@@@@@@@@@OOOOOOOOOOOOOOOO        ........        ",
"        ........        OOOOOOOOOOOOOOOO@@@@@@@@@@@@@@@@OOOOOOOOOOOOOOOO@@@@@@@@@@@@@@@@OOOOOOOOOOOOOOOO        ........        ",
"        ........        OOOOOOOOOOOOOOOO@@@@@@@@@@@@@@@@OOOOOOOOOOOOOOOO@@@@@@@@@@@@@@@@OOOOOOOOOOOOOOOO        ........        ",
"        ........        OOOOOOOOOOOOOOOO@@@@@@@@@@@@@@@@OOOOOOOOOOOOOOOO@@@@@@@@@@@@@@@@OOOOOOOOOOOOOOOO        ........        ",
"        ........        OOOOOOOOOOOOOOOO@@@@@@@@@@@@@@@@OOOOOOOOOOOOOOOO@@@@@@@@@@@@@@@@OOOOOOOOOOOOOOOO        ........        ",
"        ........        OOOOOOOOOOOOOOOO@@@@@@@@@@@@@@@@OOOOOOOOOOOOOOOO@@@@@@@@@@@@@@@@OOOOOOOOOOOOOOOO        ........        ",
"        ........        OOOOOOOOOOOOOOOO@@@@@@@@@@@@@@@@OOOOOOOOOOOOOOOO@@@@@@@@@@@@@@@@OOOOOOOOOOOOOOOO        ........        ",
"        ........        OOOOOOOOOOOOOOOO@@@@@@@@@@@@@@@@OOOOOOOOOOOOOOOO@@@@@@@@@@@@@@@@OOOOOOOOOOOOOOOO        ........        ",
"        ........        OOOOOOOOOOOOOOOO@@@@@@@@@@@@@@@@OOOOOOOOOOOOOOOO@@@@@@@@@@@@@@@@OOOOOOOOOOOOOOOO        ........        ",
"        ........        OOOOOOOOOOOOOOOO@@@@@@@@@@@@@@@@OOOOOOOOOOOOOOOO@@@@@@@@@@@@@@@@OOOOOOOOOOOOOOOO        ........        ",
"        ........        OOOOOOOOOOOOOOOO@@@@@@@@@@@@@@@@OOOOOOOOOOOOOOOO@@@@@@@@@@@@@@@@OOOOOOOOOOOOOOOO        ........        ",
"        ........        OOOOOOOOOOOOOOOO@@@@@@@@@@@@@@@@OOOOOOOOOOOOOOOO@@@@@@@@@@@@@@@@OOOOOOOOOOOOOOOO        ........        ",
"                        ................OOOOOOOOOOOOOOOO................OOOOOOOOOOOOOOOO................                        ",
"                        ................OOOOOOOOOOOOOOOO................OOOOOOOOOOOOOOOO................                        ",
"                        ................OOOOOOOOOOOOOOOO................OOOOOOOOOOOOOOOO................                        ",
"                        ................OOOOOOOOOOOOOOOO................OOOOOOOOOOOOOOOO................                        ",
"                        ................OOOOOOOOOOOOOOOO................OOOOOOOOOOOOOOOO................                        ",
"                        ................OOOOOOOOOOOOOOOO................OOOOOOOOOOOOOOOO................                        ",
"                        ................OOOOOOOOOOOOOOOO................OOOOOOOOOOOOOOOO................                        ",
"                        ................OOOOOOOOOOOOOOOO................OOOOOOOOOOOOOOOO................                        ",
"        ................OOOOOOOOOOOOOOOO@@@@@@@@@@@@@@@@OOOOOOOOOOOOOOOO@@@@@@@@@@@@@@@@OOOOOOOOOOOOOOOO................        ",
"        ................OOOOOOOOOOOOOOOO@@@@@@@@@@@@@@@@OOOOOOOOOOOOOOOO@@@@@@@@@@@@@@@@OOOOOOOOOOOOOOOO................        ",
"        ................OOOOOOOOOOOOOOOO@@@@@@@@@@@@@@@@OOOOOOOOOOOOOOOO@@@@@@@@@@@@@@@@OOOOOOOOOOOOOOOO................        ",
"        ................OOOOOOOOOOOOOOOO@@@@@@@@@@@@@@@@OOOOOOOOOOOOOOOO@@@@@@@@@@@@@@@@OOOOOOOOOOOOOOOO................        ",
"        ................OOOOOOOOOOOOOOOO@@@@@@@@@@@@@@@@OOOOOOOOOOOOOOOO@@@@@@@@@@@@@@@@OOOOOOOOOOOOOOOO................        ",
"        ................OOOOOOOOOOOOOOOO@@@@@@@@@@@@@@@@OOOOOOOOOOOOOOOO@@@@@@@@@@@@@@@@OOOOOOOOOOOOOOOO................        ",
"        ................OOOOOOOOOOOOOOOO@@@@@@@@@@@@@@@@OOOOOOOOOOOOOOOO@@@@@@@@@@@@@@@@OOOOOOOOOOOOOOOO................        ",
"        ................OOOOOOOOOOOOOOOO@@@@@@@@@@@@@@@@OOOOOOOOOOOOOOOO@@@@@@@@@@@@@@@@OOOOOOOOOOOOOOOO................        ",
"        ........        ................OOOOOOOOOOOOOOOO................OOOOOOOOOOOOOOOO................        ........        ",
"        ........        ................OOOOOOOOOOOOOOOO................OOOOOOOOOOOOOOOO................        ........        ",
"        ........        ................OOOOOOOOOOOOOOOO................OOOOOOOOOOOOOOOO................        ........        ",
"        ........        ................OOOOOOOOOOOOOOOO................OOOOOOOOOOOOOOOO................        ........        ",
"        ........        ................OOOOOOOOOOOOOOOO................OOOOOOOOOOOOOOOO................        ........        ",
"        ........        ................OOOOOOOOOOOOOOOO................OOOOOOOOOOOOOOOO................        ........        ",
"        ........        ................OOOOOOOOOOOOOOOO................OOOOOOOOOOOOOOOO................        ........        ",
"        ........        ................OOOOOOOOOOOOOOOO................OOOOOOOOOOOOOOOO................        ........        "
};
