/* XPM */
static char *Texture5[] = {
/* columns rows colors chars-per-pixel */
"128 128 7 1 ",
"  c #292830",
". c #33323C",
"X c #693227",
"o c #464553",
"O c #48575F",
"+ c #8F3E3A",
"@ c #C06A58",
/* pixels */
"................................        @@@@@@@@++++++++++++++++++++++++++++++++XXXXXXXX        oooooooo........................",
"................................        @@@@@@@@++++++++++++++++++++++++++++++++XXXXXXXX        oooooooo........................",
"................................        @@@@@@@@++++++++++++++++++++++++++++++++XXXXXXXX        oooooooo........................",
"................................        @@@@@@@@++++++++++++++++++++++++++++++++XXXXXXXX        oooooooo........................",
"................................        @@@@@@@@++++++++++++++++++++++++++++++++XXXXXXXX        oooooooo........................",
"................................        @@@@@@@@++++++++++++++++++++++++++++++++XXXXXXXX        oooooooo........................",
"................................        @@@@@@@@++++++++++++++++++++++++++++++++XXXXXXXX        oooooooo........................",
"................................        @@@@@@@@++++++++++++++++++++++++++++++++XXXXXXXX        oooooooo........................",
"................................        @@@@@@@@++++++++++++++++++++++++++++++++XXXXXXXX        oooooooo........................",
"................................        @@@@@@@@++++++++++++++++++++++++++++++++XXXXXXXX        oooooooo........................",
"................................        @@@@@@@@++++++++++++++++++++++++++++++++XXXXXXXX        oooooooo........................",
"................................        @@@@@@@@++++++++++++++++++++++++++++++++XXXXXXXX        oooooooo........................",
"................................        @@@@@@@@++++++++++++++++++++++++++++++++XXXXXXXX        oooooooo........................",
"................................        @@@@@@@@++++++++++++++++++++++++++++++++XXXXXXXX        oooooooo........................",
"................................        @@@@@@@@++++++++++++++++++++++++++++++++XXXXXXXX        oooooooo........................",
"................................        @@@@@@@@++++++++++++++++++++++++++++++++XXXXXXXX        oooooooo........................",
"                                        @@@@@@@@++++++++++++++++++++++++++++++++XXXXXXXX        oooooooo                        ",
"                                        @@@@@@@@++++++++++++++++++++++++++++++++XXXXXXXX        oooooooo                        ",
"                                        @@@@@@@@++++++++++++++++++++++++++++++++XXXXXXXX        oooooooo                        ",
"                                        @@@@@@@@++++++++++++++++++++++++++++++++XXXXXXXX        oooooooo                        ",
"                                        @@@@@@@@++++++++++++++++++++++++++++++++XXXXXXXX        oooooooo                        ",
"                                        @@@@@@@@++++++++++++++++++++++++++++++++XXXXXXXX        oooooooo                        ",
"                                        @@@@@@@@++++++++++++++++++++++++++++++++XXXXXXXX        oooooooo                        ",
"                                        @@@@@@@@++++++++++++++++++++++++++++++++XXXXXXXX        oooooooo                        ",
"@@@@@@@@@@@@@@@@@@@@@@@@@@@@@@@@@@@@@@@@@@@@@@@@++++++++++++++++++++++++++++++++XXXXXXXX        oooooooo        @@@@@@@@@@@@@@@@",
"@@@@@@@@@@@@@@@@@@@@@@@@@@@@@@@@@@@@@@@@@@@@@@@@++++++++++++++++++++++++++++++++XXXXXXXX        oooooooo        @@@@@@@@@@@@@@@@",
"@@@@@@@@@@@@@@@@@@@@@@@@@@@@@@@@@@@@@@@@@@@@@@@@++++++++++++++++++++++++++++++++XXXXXXXX        oooooooo        @@@@@@@@@@@@@@@@",
"@@@@@@@@@@@@@@@@@@@@@@@@@@@@@@@@@@@@@@@@@@@@@@@@++++++++++++++++++++++++++++++++XXXXXXXX        oooooooo        @@@@@@@@@@@@@@@@",
"@@@@@@@@@@@@@@@@@@@@@@@@@@@@@@@@@@@@@@@@@@@@@@@@++++++++++++++++++++++++++++++++XXXXXXXX        oooooooo        @@@@@@@@@@@@@@@@",
"@@@@@@@@@@@@@@@@@@@@@@@@@@@@@@@@@@@@@@@@@@@@@@@@++++++++++++++++++++++++++++++++XXXXXXXX        oooooooo        @@@@@@@@@@@@@@@@",
"@@@@@@@@@@@@@@@@@@@@@@@@@@@@@@@@@@@@@@@@@@@@@@@@++++++++++++++++++++++++++++++++XXXXXXXX        oooooooo        @@@@@@@@@@@@@@@@",
"@@@@@@@@@@@@@@@@@@@@@@@@@@@@@@@@@@@@@@@@@@@@@@@@++++++++++++++++++++++++++++++++XXXXXXXX        oooooooo        @@@@@@@@@@@@@@@@",
"++++++++++++++++++++++++++++++++++++++++++++++++++++++++++++++++++++++++++++++++XXXXXXXX        oooooooo        @@@@@@@@++++++++",
"++++++++++++++++++++++++++++++++++++++++++++++++++++++++++++++++++++++++++++++++XXXXXXXX        oooooooo        @@@@@@@@++++++++",
"++++++++++++++++++++++++++++++++++++++++++++++++++++++++++++++++++++++++++++++++XXXXXXXX        oooooooo        @@@@@@@@++++++++",
"++++++++++++++++++++++++++++++++++++++++++++++++++++++++++++++++++++++++++++++++XXXXXXXX        oooooooo        @@@@@@@@++++++++",
"++++++++++++++++++++++++++++++++++++++++++++++++++++++++++++++++++++++++++++++++XXXXXXXX        oooooooo        @@@@@@@@++++++++",
"++++++++++++++++++++++++++++++++++++++++++++++++++++++++++++++++++++++++++++++++XXXXXXXX        oooooooo        @@@@@@@@++++++++",
"++++++++++++++++++++++++++++++++++++++++++++++++++++++++++++++++++++++++++++++++XXXXXXXX        oooooooo        @@@@@@@@++++++++",
"++++++++++++++++++++++++++++++++++++++++++++++++++++++++++++++++++++++++++++++++XXXXXXXX        oooooooo        @@@@@@@@++++++++",
"++++++++++++++++++++++++++++++++XXXXXXXXXXXXXXXXXXXXXXXXXXXXXXXXXXXXXXXXXXXXXXXXXXXXXXXX        oooooooo        @@@@@@@@++++++++",
"++++++++++++++++++++++++++++++++XXXXXXXXXXXXXXXXXXXXXXXXXXXXXXXXXXXXXXXXXXXXXXXXXXXXXXXX        oooooooo        @@@@@@@@++++++++",
"++++++++++++++++++++++++++++++++XXXXXXXXXXXXXXXXXXXXXXXXXXXXXXXXXXXXXXXXXXXXXXXXXXXXXXXX        oooooooo        @@@@@@@@++++++++",
"++++++++++++++++++++++++++++++++XXXXXXXXXXXXXXXXXXXXXXXXXXXXXXXXXXXXXXXXXXXXXXXXXXXXXXXX        oooooooo        @@@@@@@@++++++++",
"++++++++++++++++++++++++++++++++XXXXXXXXXXXXXXXXXXXXXXXXXXXXXXXXXXXXXXXXXXXXXXXXXXXXXXXX        oooooooo        @@@@@@@@++++++++",
"++++++++++++++++++++++++++++++++XXXXXXXXXXXXXXXXXXXXXXXXXXXXXXXXXXXXXXXXXXXXXXXXXXXXXXXX        oooooooo        @@@@@@@@++++++++",
"++++++++++++++++++++++++++++++++XXXXXXXXXXXXXXXXXXXXXXXXXXXXXXXXXXXXXXXXXXXXXXXXXXXXXXXX        oooooooo        @@@@@@@@++++++++",
"++++++++++++++++++++++++++++++++XXXXXXXXXXXXXXXXXXXXXXXXXXXXXXXXXXXXXXXXXXXXXXXXXXXXXXXX        oooooooo        @@@@@@@@++++++++",
"++++++++++++++++++++++++++++++++XXXXXXXX                                                                        @@@@@@@@++++++++",
"++++++++++++++++++++++++++++++++XXXXXXXX                                                                        @@@@@@@@++++++++",
"++++++++++++++++++++++++++++++++XXXXXXXX                                                                        @@@@@@@@++++++++",
"++++++++++++++++++++++++++++++++XXXXXXXX                                                                        @@@@@@@@++++++++",
"++++++++++++++++++++++++++++++++XXXXXXXX                                                                        @@@@@@@@++++++++",
"++++++++++++++++++++++++++++++++XXXXXXXX                                                                        @@@@@@@@++++++++",
"++++++++++++++++++++++++++++++++XXXXXXXX                                                                        @@@@@@@@++++++++",
"++++++++++++++++++++++++++++++++XXXXXXXX                                                                        @@@@@@@@++++++++",
"++++++++++++++++++++++++++++++++XXXXXXXX        ooooooooOOOOOOOOOOOOOOOOOOOOOOOOOOOOOOOOOOOOOOOOOOOOOOOO        @@@@@@@@++++++++",
"++++++++++++++++++++++++++++++++XXXXXXXX        ooooooooOOOOOOOOOOOOOOOOOOOOOOOOOOOOOOOOOOOOOOOOOOOOOOOO        @@@@@@@@++++++++",
"++++++++++++++++++++++++++++++++XXXXXXXX        ooooooooOOOOOOOOOOOOOOOOOOOOOOOOOOOOOOOOOOOOOOOOOOOOOOOO        @@@@@@@@++++++++",
"++++++++++++++++++++++++++++++++XXXXXXXX        ooooooooOOOOOOOOOOOOOOOOOOOOOOOOOOOOOOOOOOOOOOOOOOOOOOOO        @@@@@@@@++++++++",
"++++++++++++++++++++++++++++++++XXXXXXXX        ooooooooOOOOOOOOOOOOOOOOOOOOOOOOOOOOOOOOOOOOOOOOOOOOOOOO        @@@@@@@@++++++++",
"++++++++++++++++++++++++++++++++XXXXXXXX        ooooooooOOOOOOOOOOOOOOOOOOOOOOOOOOOOOOOOOOOOOOOOOOOOOOOO        @@@@@@@@++++++++",
"++++++++++++++++++++++++++++++++XXXXXXXX        ooooooooOOOOOOOOOOOOOOOOOOOOOOOOOOOOOOOOOOOOOOOOOOOOOOOO        @@@@@@@@++++++++",
"++++++++++++++++++++++++++++++++XXXXXXXX        ooooooooOOOOOOOOOOOOOOOOOOOOOOOOOOOOOOOOOOOOOOOOOOOOOOOO        @@@@@@@@++++++++",
"++++++++++++++++++++++++++++++++XXXXXXXX        ........oooooooooooooooooooooooooooooooooooooooo........        @@@@@@@@++++++++",
"++++++++++++++++++++++++++++++++XXXXXXXX        ........oooooooooooooooooooooooooooooooooooooooo........        @@@@@@@@++++++++",
"++++++++++++++++++++++++++++++++XXXXXXXX        ........oooooooooooooooooooooooooooooooooooooooo........        @@@@@@@@++++++++",
"++++++++++++++++++++++++++++++++XXXXXXXX        ........oooooooooooooooooooooooooooooooooooooooo........        @@@@@@@@++++++++",
"++++++++++++++++++++++++++++++++XXXXXXXX        ........oooooooooooooooooooooooooooooooooooooooo........        @@@@@@@@++++++++",
"++++++++++++++++++++++++++++++++XXXXXXXX        ........oooooooooooooooooooooooooooooooooooooooo........        @@@@@@@@++++++++",
"++++++++++++++++++++++++++++++++XXXXXXXX        ........oooooooooooooooooooooooooooooooooooooooo........        @@@@@@@@++++++++",
"++++++++++++++++++++++++++++++++XXXXXXXX        ........oooooooooooooooooooooooooooooooooooooooo........        @@@@@@@@++++++++",
"XXXXXXXXXXXXXXXXXXXXXXXXXXXXXXXXXXXXXXXX        ................................oooooooooooooooo........        ++++++++XXXXXXXX",
"XXXXXXXXXXXXXXXXXXXXXXXXXXXXXXXXXXXXXXXX        ................................oooooooooooooooo........        ++++++++XXXXXXXX",
"XXXXXXXXXXXXXXXXXXXXXXXXXXXXXXXXXXXXXXXX        ................................oooooooooooooooo........        ++++++++XXXXXXXX",
"XXXXXXXXXXXXXXXXXXXXXXXXXXXXXXXXXXXXXXXX        ................................oooooooooooooooo........        ++++++++XXXXXXXX",
"XXXXXXXXXXXXXXXXXXXXXXXXXXXXXXXXXXXXXXXX        ................................oooooooooooooooo........        ++++++++XXXXXXXX",
"XXXXXXXXXXXXXXXXXXXXXXXXXXXXXXXXXXXXXXXX        ................................oooooooooooooooo........        ++++++++XXXXXXXX",
"XXXXXXXXXXXXXXXXXXXXXXXXXXXXXXXXXXXXXXXX        ................................oooooooooooooooo........        ++++++++XXXXXXXX",
"XXXXXXXXXXXXXXXXXXXXXXXXXXXXXXXXXXXXXXXX        ................................oooooooooooooooo........        ++++++++XXXXXXXX",
"                                                                        ........oooooooooooooooo........                        ",
"                                                                        ........oooooooooooooooo........                        ",
"                                                                        ........oooooooooooooooo........                        ",
"                                                                        ........oooooooooooooooo........                        ",
"                                                                        ........oooooooooooooooo........                        ",
"                                                                        ........oooooooooooooooo........                        ",
"                                                                        ........oooooooooooooooo........                        ",
"                                                                        ........oooooooooooooooo........                        ",
"oooooooo        OOOOOOOOOOOOOOOOOOOOOOOOOOOOOOOOOOOOOOOOoooooooo        ........ooooooooooooooooooooooooOOOOOOOO        oooooooo",
"oooooooo        OOOOOOOOOOOOOOOOOOOOOOOOOOOOOOOOOOOOOOOOoooooooo        ........ooooooooooooooooooooooooOOOOOOOO        oooooooo",
"oooooooo        OOOOOOOOOOOOOOOOOOOOOOOOOOOOOOOOOOOOOOOOoooooooo        ........ooooooooooooooooooooooooOOOOOOOO        oooooooo",
"oooooooo        OOOOOOOOOOOOOOOOOOOOOOOOOOOOOOOOOOOOOOOOoooooooo        ........ooooooooooooooooooooooooOOOOOOOO        oooooooo",
"oooooooo        OOOOOOOOOOOOOOOOOOOOOOOOOOOOOOOOOOOOOOOOoooooooo        ........ooooooooooooooooooooooooOOOOOOOO        oooooooo",
"oooooooo        OOOOOOOOOOOOOOOOOOOOOOOOOOOOOOOOOOOOOOOOoooooooo        ........ooooooooooooooooooooooooOOOOOOOO        oooooooo",
"oooooooo        OOOOOOOOOOOOOOOOOOOOOOOOOOOOOOOOOOOOOOOOoooooooo        ........ooooooooooooooooooooooooOOOOOOOO        oooooooo",
"oooooooo        OOOOOOOOOOOOOOOOOOOOOOOOOOOOOOOOOOOOOOOOoooooooo        ........ooooooooooooooooooooooooOOOOOOOO        oooooooo",
"........        OOOOOOOOoooooooooooooooooooooooooooooooo........        ........ooooooooooooooooooooooooOOOOOOOO        oooooooo",
"........        OOOOOOOOoooooooooooooooooooooooooooooooo........        ........ooooooooooooooooooooooooOOOOOOOO        oooooooo",
"........        OOOOOOOOoooooooooooooooooooooooooooooooo........        ........ooooooooooooooooooooooooOOOOOOOO        oooooooo",
"........        OOOOOOOOoooooooooooooooooooooooooooooooo........        ........ooooooooooooooooooooooooOOOOOOOO        oooooooo",
"........        OOOOOOOOoooooooooooooooooooooooooooooooo........        ........ooooooooooooooooooooooooOOOOOOOO        oooooooo",
"........        OOOOOOOOoooooooooooooooooooooooooooooooo........        ........ooooooooooooooooooooooooOOOOOOOO        oooooooo",
"........        OOOOOOOOoooooooooooooooooooooooooooooooo........        ........ooooooooooooooooooooooooOOOOOOOO        oooooooo",
"........        OOOOOOOOoooooooooooooooooooooooooooooooo........        ........ooooooooooooooooooooooooOOOOOOOO        oooooooo",
"........        oooooooo........                                                                ........oooooooo        oooooooo",
"........        oooooooo........                                                                ........oooooooo        oooooooo",
"........        oooooooo........                                                                ........oooooooo        oooooooo",
"........        oooooooo........                                                                ........oooooooo        oooooooo",
"........        oooooooo........                                                                ........oooooooo        oooooooo",
"........        oooooooo........                                                                ........oooooooo        oooooooo",
"........        oooooooo........                                                                ........oooooooo        oooooooo",
"........        oooooooo........                                                                ........oooooooo        oooooooo",
"........                                @@@@@@@@@@@@@@@@@@@@@@@@@@@@@@@@@@@@@@@@++++++++                                oooooooo",
"........                                @@@@@@@@@@@@@@@@@@@@@@@@@@@@@@@@@@@@@@@@++++++++                                oooooooo",
"........                                @@@@@@@@@@@@@@@@@@@@@@@@@@@@@@@@@@@@@@@@++++++++                                oooooooo",
"........                                @@@@@@@@@@@@@@@@@@@@@@@@@@@@@@@@@@@@@@@@++++++++                                oooooooo",
"........                                @@@@@@@@@@@@@@@@@@@@@@@@@@@@@@@@@@@@@@@@++++++++                                oooooooo",
"........                                @@@@@@@@@@@@@@@@@@@@@@@@@@@@@@@@@@@@@@@@++++++++                                oooooooo",
"........                                @@@@@@@@@@@@@@@@@@@@@@@@@@@@@@@@@@@@@@@@++++++++                                oooooooo",
"........                                @@@@@@@@@@@@@@@@@@@@@@@@@@@@@@@@@@@@@@@@++++++++                                oooooooo",
"................................        @@@@@@@@++++++++++++++++++++++++++++++++XXXXXXXX        oooooooooooooooooooooooooooooooo",
"................................        @@@@@@@@++++++++++++++++++++++++++++++++XXXXXXXX        oooooooooooooooooooooooooooooooo",
"................................        @@@@@@@@++++++++++++++++++++++++++++++++XXXXXXXX        oooooooooooooooooooooooooooooooo",
"................................        @@@@@@@@++++++++++++++++++++++++++++++++XXXXXXXX        oooooooooooooooooooooooooooooooo",
"................................        @@@@@@@@++++++++++++++++++++++++++++++++XXXXXXXX        oooooooooooooooooooooooooooooooo",
"................................        @@@@@@@@++++++++++++++++++++++++++++++++XXXXXXXX        oooooooooooooooooooooooooooooooo",
"................................        @@@@@@@@++++++++++++++++++++++++++++++++XXXXXXXX        oooooooooooooooooooooooooooooooo",
"................................        @@@@@@@@++++++++++++++++++++++++++++++++XXXXXXXX        oooooooooooooooooooooooooooooooo"
};
