/* XPM */
static char *Texture0[] = {
/* columns rows colors chars-per-pixel */
"128 128 6 1 ",
"  c #292830",
". c #33323C",
"X c #464553",
"o c #6A6C6D",
"O c #838078",
"+ c #9C9E92",
/* pixels */
"XXXXXXXXXXXXXXXXXXXXXXXX........ooooooooXXXXXXXXXXXXXXXXXXXXXXXXXXXXXXXXXXXXXXXXXXXXXXXX........ooooooooXXXXXXXXXXXXXXXXXXXXXXXX",
"XXXXXXXXXXXXXXXXXXXXXXXX........ooooooooXXXXXXXXXXXXXXXXXXXXXXXXXXXXXXXXXXXXXXXXXXXXXXXX........ooooooooXXXXXXXXXXXXXXXXXXXXXXXX",
"XXXXXXXXXXXXXXXXXXXXXXXX........ooooooooXXXXXXXXXXXXXXXXXXXXXXXXXXXXXXXXXXXXXXXXXXXXXXXX........ooooooooXXXXXXXXXXXXXXXXXXXXXXXX",
"XXXXXXXXXXXXXXXXXXXXXXXX........ooooooooXXXXXXXXXXXXXXXXXXXXXXXXXXXXXXXXXXXXXXXXXXXXXXXX........ooooooooXXXXXXXXXXXXXXXXXXXXXXXX",
"XXXXXXXXXXXXXXXXXXXXXXXX........ooooooooXXXXXXXXXXXXXXXXXXXXXXXXXXXXXXXXXXXXXXXXXXXXXXXX........ooooooooXXXXXXXXXXXXXXXXXXXXXXXX",
"XXXXXXXXXXXXXXXXXXXXXXXX........ooooooooXXXXXXXXXXXXXXXXXXXXXXXXXXXXXXXXXXXXXXXXXXXXXXXX........ooooooooXXXXXXXXXXXXXXXXXXXXXXXX",
"XXXXXXXXXXXXXXXXXXXXXXXX........ooooooooXXXXXXXXXXXXXXXXXXXXXXXXXXXXXXXXXXXXXXXXXXXXXXXX........ooooooooXXXXXXXXXXXXXXXXXXXXXXXX",
"XXXXXXXXXXXXXXXXXXXXXXXX........ooooooooXXXXXXXXXXXXXXXXXXXXXXXXXXXXXXXXXXXXXXXXXXXXXXXX........ooooooooXXXXXXXXXXXXXXXXXXXXXXXX",
"........................        ooooooooXXXXXXXX........................................        ooooooooXXXXXXXX................",
"........................        ooooooooXXXXXXXX........................................        ooooooooXXXXXXXX................",
"........................        ooooooooXXXXXXXX........................................        ooooooooXXXXXXXX................",
"........................        ooooooooXXXXXXXX........................................        ooooooooXXXXXXXX................",
"........................        ooooooooXXXXXXXX........................................        ooooooooXXXXXXXX................",
"........................        ooooooooXXXXXXXX........................................        ooooooooXXXXXXXX................",
"........................        ooooooooXXXXXXXX........................................        ooooooooXXXXXXXX................",
"........................        ooooooooXXXXXXXX........................................        ooooooooXXXXXXXX................",
"                                OOOOOOOO........                                                ++++++++........                ",
"                                OOOOOOOO........                                                ++++++++........                ",
"                                OOOOOOOO........                                                ++++++++........                ",
"                                OOOOOOOO........                                                ++++++++........                ",
"                                OOOOOOOO........                                                ++++++++........                ",
"                                OOOOOOOO........                                                ++++++++........                ",
"                                OOOOOOOO........                                                ++++++++........                ",
"                                OOOOOOOO........                                                ++++++++........                ",
"ooooooooOOOOOOOOOOOOOOOOOOOOOOOOOOOOOOOOooooooooooooooooooooooooooooooooOOOOOOOO++++++++++++++++++++++++oooooooooooooooooooooooo",
"ooooooooOOOOOOOOOOOOOOOOOOOOOOOOOOOOOOOOooooooooooooooooooooooooooooooooOOOOOOOO++++++++++++++++++++++++oooooooooooooooooooooooo",
"ooooooooOOOOOOOOOOOOOOOOOOOOOOOOOOOOOOOOooooooooooooooooooooooooooooooooOOOOOOOO++++++++++++++++++++++++oooooooooooooooooooooooo",
"ooooooooOOOOOOOOOOOOOOOOOOOOOOOOOOOOOOOOooooooooooooooooooooooooooooooooOOOOOOOO++++++++++++++++++++++++oooooooooooooooooooooooo",
"ooooooooOOOOOOOOOOOOOOOOOOOOOOOOOOOOOOOOooooooooooooooooooooooooooooooooOOOOOOOO++++++++++++++++++++++++oooooooooooooooooooooooo",
"ooooooooOOOOOOOOOOOOOOOOOOOOOOOOOOOOOOOOooooooooooooooooooooooooooooooooOOOOOOOO++++++++++++++++++++++++oooooooooooooooooooooooo",
"ooooooooOOOOOOOOOOOOOOOOOOOOOOOOOOOOOOOOooooooooooooooooooooooooooooooooOOOOOOOO++++++++++++++++++++++++oooooooooooooooooooooooo",
"ooooooooOOOOOOOOOOOOOOOOOOOOOOOOOOOOOOOOooooooooooooooooooooooooooooooooOOOOOOOO++++++++++++++++++++++++oooooooooooooooooooooooo",
"OOOOOOOOXXXXXXXXXXXXXXXXXXXXXXXXXXXXXXXXXXXXXXXXXXXXXXXX........OOOOOOOOXXXXXXXXXXXXXXXXXXXXXXXXXXXXXXXXXXXXXXXXXXXXXXXX........",
"OOOOOOOOXXXXXXXXXXXXXXXXXXXXXXXXXXXXXXXXXXXXXXXXXXXXXXXX........OOOOOOOOXXXXXXXXXXXXXXXXXXXXXXXXXXXXXXXXXXXXXXXXXXXXXXXX........",
"OOOOOOOOXXXXXXXXXXXXXXXXXXXXXXXXXXXXXXXXXXXXXXXXXXXXXXXX........OOOOOOOOXXXXXXXXXXXXXXXXXXXXXXXXXXXXXXXXXXXXXXXXXXXXXXXX........",
"OOOOOOOOXXXXXXXXXXXXXXXXXXXXXXXXXXXXXXXXXXXXXXXXXXXXXXXX........OOOOOOOOXXXXXXXXXXXXXXXXXXXXXXXXXXXXXXXXXXXXXXXXXXXXXXXX........",
"OOOOOOOOXXXXXXXXXXXXXXXXXXXXXXXXXXXXXXXXXXXXXXXXXXXXXXXX........OOOOOOOOXXXXXXXXXXXXXXXXXXXXXXXXXXXXXXXXXXXXXXXXXXXXXXXX........",
"OOOOOOOOXXXXXXXXXXXXXXXXXXXXXXXXXXXXXXXXXXXXXXXXXXXXXXXX........OOOOOOOOXXXXXXXXXXXXXXXXXXXXXXXXXXXXXXXXXXXXXXXXXXXXXXXX........",
"OOOOOOOOXXXXXXXXXXXXXXXXXXXXXXXXXXXXXXXXXXXXXXXXXXXXXXXX........OOOOOOOOXXXXXXXXXXXXXXXXXXXXXXXXXXXXXXXXXXXXXXXXXXXXXXXX........",
"OOOOOOOOXXXXXXXXXXXXXXXXXXXXXXXXXXXXXXXXXXXXXXXXXXXXXXXX........OOOOOOOOXXXXXXXXXXXXXXXXXXXXXXXXXXXXXXXXXXXXXXXXXXXXXXXX........",
"++++++++XXXXXXXX........................................        OOOOOOOOXXXXXXXX........................................        ",
"++++++++XXXXXXXX........................................        OOOOOOOOXXXXXXXX........................................        ",
"++++++++XXXXXXXX........................................        OOOOOOOOXXXXXXXX........................................        ",
"++++++++XXXXXXXX........................................        OOOOOOOOXXXXXXXX........................................        ",
"++++++++XXXXXXXX........................................        OOOOOOOOXXXXXXXX........................................        ",
"++++++++XXXXXXXX........................................        OOOOOOOOXXXXXXXX........................................        ",
"++++++++XXXXXXXX........................................        OOOOOOOOXXXXXXXX........................................        ",
"++++++++XXXXXXXX........................................        OOOOOOOOXXXXXXXX........................................        ",
"oooooooo........                                                OOOOOOOO........                                                ",
"oooooooo........                                                OOOOOOOO........                                                ",
"oooooooo........                                                OOOOOOOO........                                                ",
"oooooooo........                                                OOOOOOOO........                                                ",
"oooooooo........                                                OOOOOOOO........                                                ",
"oooooooo........                                                OOOOOOOO........                                                ",
"oooooooo........                                                OOOOOOOO........                                                ",
"oooooooo........                                                OOOOOOOO........                                                ",
"oooooooo++++++++OOOOOOOOooooooooooooooooooooooooooooooooOOOOOOOO++++++++++++++++++++++++oooooooooooooooooooooooooooooooooooooooo",
"oooooooo++++++++OOOOOOOOooooooooooooooooooooooooooooooooOOOOOOOO++++++++++++++++++++++++oooooooooooooooooooooooooooooooooooooooo",
"oooooooo++++++++OOOOOOOOooooooooooooooooooooooooooooooooOOOOOOOO++++++++++++++++++++++++oooooooooooooooooooooooooooooooooooooooo",
"oooooooo++++++++OOOOOOOOooooooooooooooooooooooooooooooooOOOOOOOO++++++++++++++++++++++++oooooooooooooooooooooooooooooooooooooooo",
"oooooooo++++++++OOOOOOOOooooooooooooooooooooooooooooooooOOOOOOOO++++++++++++++++++++++++oooooooooooooooooooooooooooooooooooooooo",
"oooooooo++++++++OOOOOOOOooooooooooooooooooooooooooooooooOOOOOOOO++++++++++++++++++++++++oooooooooooooooooooooooooooooooooooooooo",
"oooooooo++++++++OOOOOOOOooooooooooooooooooooooooooooooooOOOOOOOO++++++++++++++++++++++++oooooooooooooooooooooooooooooooooooooooo",
"oooooooo++++++++OOOOOOOOooooooooooooooooooooooooooooooooOOOOOOOO++++++++++++++++++++++++oooooooooooooooooooooooooooooooooooooooo",
"XXXXXXXXXXXXXXXXXXXXXXXX........OOOOOOOOXXXXXXXXXXXXXXXXXXXXXXXXXXXXXXXXXXXXXXXXXXXXXXXX........ooooooooXXXXXXXXXXXXXXXXXXXXXXXX",
"XXXXXXXXXXXXXXXXXXXXXXXX........OOOOOOOOXXXXXXXXXXXXXXXXXXXXXXXXXXXXXXXXXXXXXXXXXXXXXXXX........ooooooooXXXXXXXXXXXXXXXXXXXXXXXX",
"XXXXXXXXXXXXXXXXXXXXXXXX........OOOOOOOOXXXXXXXXXXXXXXXXXXXXXXXXXXXXXXXXXXXXXXXXXXXXXXXX........ooooooooXXXXXXXXXXXXXXXXXXXXXXXX",
"XXXXXXXXXXXXXXXXXXXXXXXX........OOOOOOOOXXXXXXXXXXXXXXXXXXXXXXXXXXXXXXXXXXXXXXXXXXXXXXXX........ooooooooXXXXXXXXXXXXXXXXXXXXXXXX",
"XXXXXXXXXXXXXXXXXXXXXXXX........OOOOOOOOXXXXXXXXXXXXXXXXXXXXXXXXXXXXXXXXXXXXXXXXXXXXXXXX........ooooooooXXXXXXXXXXXXXXXXXXXXXXXX",
"XXXXXXXXXXXXXXXXXXXXXXXX........OOOOOOOOXXXXXXXXXXXXXXXXXXXXXXXXXXXXXXXXXXXXXXXXXXXXXXXX........ooooooooXXXXXXXXXXXXXXXXXXXXXXXX",
"XXXXXXXXXXXXXXXXXXXXXXXX........OOOOOOOOXXXXXXXXXXXXXXXXXXXXXXXXXXXXXXXXXXXXXXXXXXXXXXXX........ooooooooXXXXXXXXXXXXXXXXXXXXXXXX",
"XXXXXXXXXXXXXXXXXXXXXXXX........OOOOOOOOXXXXXXXXXXXXXXXXXXXXXXXXXXXXXXXXXXXXXXXXXXXXXXXX........ooooooooXXXXXXXXXXXXXXXXXXXXXXXX",
"........................        OOOOOOOOXXXXXXXX........................................        ooooooooXXXXXXXX................",
"........................        OOOOOOOOXXXXXXXX........................................        ooooooooXXXXXXXX................",
"........................        OOOOOOOOXXXXXXXX........................................        ooooooooXXXXXXXX................",
"........................        OOOOOOOOXXXXXXXX........................................        ooooooooXXXXXXXX................",
"........................        OOOOOOOOXXXXXXXX........................................        ooooooooXXXXXXXX................",
"........................        OOOOOOOOXXXXXXXX........................................        ooooooooXXXXXXXX................",
"........................        OOOOOOOOXXXXXXXX........................................        ooooooooXXXXXXXX................",
"........................        OOOOOOOOXXXXXXXX........................................        ooooooooXXXXXXXX................",
"                                OOOOOOOO........                                                OOOOOOOO........                ",
"                                OOOOOOOO........                                                OOOOOOOO........                ",
"                                OOOOOOOO........                                                OOOOOOOO........                ",
"                                OOOOOOOO........                                                OOOOOOOO........                ",
"                                OOOOOOOO........                                                OOOOOOOO........                ",
"                                OOOOOOOO........                                                OOOOOOOO........                ",
"                                OOOOOOOO........                                                OOOOOOOO........                ",
"                                OOOOOOOO........                                                OOOOOOOO........                ",
"++++++++oooooooo++++++++++++++++OOOOOOOOOOOOOOOOoooooooooooooooo++++++++++++++++oooooooooooooooo++++++++OOOOOOOO++++++++oooooooo",
"++++++++oooooooo++++++++++++++++OOOOOOOOOOOOOOOOoooooooooooooooo++++++++++++++++oooooooooooooooo++++++++OOOOOOOO++++++++oooooooo",
"++++++++oooooooo++++++++++++++++OOOOOOOOOOOOOOOOoooooooooooooooo++++++++++++++++oooooooooooooooo++++++++OOOOOOOO++++++++oooooooo",
"++++++++oooooooo++++++++++++++++OOOOOOOOOOOOOOOOoooooooooooooooo++++++++++++++++oooooooooooooooo++++++++OOOOOOOO++++++++oooooooo",
"++++++++oooooooo++++++++++++++++OOOOOOOOOOOOOOOOoooooooooooooooo++++++++++++++++oooooooooooooooo++++++++OOOOOOOO++++++++oooooooo",
"++++++++oooooooo++++++++++++++++OOOOOOOOOOOOOOOOoooooooooooooooo++++++++++++++++oooooooooooooooo++++++++OOOOOOOO++++++++oooooooo",
"++++++++oooooooo++++++++++++++++OOOOOOOOOOOOOOOOoooooooooooooooo++++++++++++++++oooooooooooooooo++++++++OOOOOOOO++++++++oooooooo",
"++++++++oooooooo++++++++++++++++OOOOOOOOOOOOOOOOoooooooooooooooo++++++++++++++++oooooooooooooooo++++++++OOOOOOOO++++++++oooooooo",
"OOOOOOOOXXXXXXXXXXXXXXXXXXXXXXXXXXXXXXXXXXXXXXXXXXXXXXXX........OOOOOOOOXXXXXXXXXXXXXXXXXXXXXXXXXXXXXXXXXXXXXXXXXXXXXXXX........",
"OOOOOOOOXXXXXXXXXXXXXXXXXXXXXXXXXXXXXXXXXXXXXXXXXXXXXXXX........OOOOOOOOXXXXXXXXXXXXXXXXXXXXXXXXXXXXXXXXXXXXXXXXXXXXXXXX........",
"OOOOOOOOXXXXXXXXXXXXXXXXXXXXXXXXXXXXXXXXXXXXXXXXXXXXXXXX........OOOOOOOOXXXXXXXXXXXXXXXXXXXXXXXXXXXXXXXXXXXXXXXXXXXXXXXX........",
"OOOOOOOOXXXXXXXXXXXXXXXXXXXXXXXXXXXXXXXXXXXXXXXXXXXXXXXX........OOOOOOOOXXXXXXXXXXXXXXXXXXXXXXXXXXXXXXXXXXXXXXXXXXXXXXXX........",
"OOOOOOOOXXXXXXXXXXXXXXXXXXXXXXXXXXXXXXXXXXXXXXXXXXXXXXXX........OOOOOOOOXXXXXXXXXXXXXXXXXXXXXXXXXXXXXXXXXXXXXXXXXXXXXXXX........",
"OOOOOOOOXXXXXXXXXXXXXXXXXXXXXXXXXXXXXXXXXXXXXXXXXXXXXXXX........OOOOOOOOXXXXXXXXXXXXXXXXXXXXXXXXXXXXXXXXXXXXXXXXXXXXXXXX........",
"OOOOOOOOXXXXXXXXXXXXXXXXXXXXXXXXXXXXXXXXXXXXXXXXXXXXXXXX........OOOOOOOOXXXXXXXXXXXXXXXXXXXXXXXXXXXXXXXXXXXXXXXXXXXXXXXX........",
"OOOOOOOOXXXXXXXXXXXXXXXXXXXXXXXXXXXXXXXXXXXXXXXXXXXXXXXX........OOOOOOOOXXXXXXXXXXXXXXXXXXXXXXXXXXXXXXXXXXXXXXXXXXXXXXXX........",
"ooooooooXXXXXXXX........................................        OOOOOOOOXXXXXXXX........................................        ",
"ooooooooXXXXXXXX........................................        OOOOOOOOXXXXXXXX........................................        ",
"ooooooooXXXXXXXX........................................        OOOOOOOOXXXXXXXX........................................        ",
"ooooooooXXXXXXXX........................................        OOOOOOOOXXXXXXXX........................................        ",
"ooooooooXXXXXXXX........................................        OOOOOOOOXXXXXXXX........................................        ",
"ooooooooXXXXXXXX........................................        OOOOOOOOXXXXXXXX........................................        ",
"ooooooooXXXXXXXX........................................        OOOOOOOOXXXXXXXX........................................        ",
"ooooooooXXXXXXXX........................................        OOOOOOOOXXXXXXXX........................................        ",
"++++++++........                                                OOOOOOOO........                                                ",
"++++++++........                                                OOOOOOOO........                                                ",
"++++++++........                                                OOOOOOOO........                                                ",
"++++++++........                                                OOOOOOOO........                                                ",
"++++++++........                                                OOOOOOOO........                                                ",
"++++++++........                                                OOOOOOOO........                                                ",
"++++++++........                                                OOOOOOOO........                                                ",
"++++++++........                                                OOOOOOOO........                                                ",
"oooooooo++++++++OOOOOOOOoooooooooooooooooooooooooooooooo++++++++++++++++oooooooooooooooo++++++++oooooooooooooooooooooooooooooooo",
"oooooooo++++++++OOOOOOOOoooooooooooooooooooooooooooooooo++++++++++++++++oooooooooooooooo++++++++oooooooooooooooooooooooooooooooo",
"oooooooo++++++++OOOOOOOOoooooooooooooooooooooooooooooooo++++++++++++++++oooooooooooooooo++++++++oooooooooooooooooooooooooooooooo",
"oooooooo++++++++OOOOOOOOoooooooooooooooooooooooooooooooo++++++++++++++++oooooooooooooooo++++++++oooooooooooooooooooooooooooooooo",
"oooooooo++++++++OOOOOOOOoooooooooooooooooooooooooooooooo++++++++++++++++oooooooooooooooo++++++++oooooooooooooooooooooooooooooooo",
"oooooooo++++++++OOOOOOOOoooooooooooooooooooooooooooooooo++++++++++++++++oooooooooooooooo++++++++oooooooooooooooooooooooooooooooo",
"oooooooo++++++++OOOOOOOOoooooooooooooooooooooooooooooooo++++++++++++++++oooooooooooooooo++++++++oooooooooooooooooooooooooooooooo",
"oooooooo++++++++OOOOOOOOoooooooooooooooooooooooooooooooo++++++++++++++++oooooooooooooooo++++++++oooooooooooooooooooooooooooooooo"
};
