/* XPM */
static char *Texture3[] = {
/* columns rows colors chars-per-pixel */
"128 128 6 1 ",
"  c #8D5C3A",
". c #714A2F",
"X c #6A6A6B",
"o c #674927",
"O c #818178",
"+ c #979C92",
/* pixels */
"                        ........XXXXXXXX                                                ........XXXXXXXX                        ",
"                        ........XXXXXXXX                                                ........XXXXXXXX                        ",
"                        ........XXXXXXXX                                                ........XXXXXXXX                        ",
"                        ........XXXXXXXX                                                ........XXXXXXXX                        ",
"                        ........XXXXXXXX                                                ........XXXXXXXX                        ",
"                        ........XXXXXXXX                                                ........XXXXXXXX                        ",
"                        ........XXXXXXXX                                                ........XXXXXXXX                        ",
"                        ........XXXXXXXX                                                ........XXXXXXXX                        ",
"........................ooooooooXXXXXXXX        ........................................ooooooooXXXXXXXX        ................",
"........................ooooooooXXXXXXXX        ........................................ooooooooXXXXXXXX        ................",
"........................ooooooooXXXXXXXX        ........................................ooooooooXXXXXXXX        ................",
"........................ooooooooXXXXXXXX        ........................................ooooooooXXXXXXXX        ................",
"........................ooooooooXXXXXXXX        ........................................ooooooooXXXXXXXX        ................",
"........................ooooooooXXXXXXXX        ........................................ooooooooXXXXXXXX        ................",
"........................ooooooooXXXXXXXX        ........................................ooooooooXXXXXXXX        ................",
"........................ooooooooXXXXXXXX        ........................................ooooooooXXXXXXXX        ................",
"ooooooooooooooooooooooooooooooooOOOOOOOO........oooooooooooooooooooooooooooooooooooooooooooooooo++++++++........oooooooooooooooo",
"ooooooooooooooooooooooooooooooooOOOOOOOO........oooooooooooooooooooooooooooooooooooooooooooooooo++++++++........oooooooooooooooo",
"ooooooooooooooooooooooooooooooooOOOOOOOO........oooooooooooooooooooooooooooooooooooooooooooooooo++++++++........oooooooooooooooo",
"ooooooooooooooooooooooooooooooooOOOOOOOO........oooooooooooooooooooooooooooooooooooooooooooooooo++++++++........oooooooooooooooo",
"ooooooooooooooooooooooooooooooooOOOOOOOO........oooooooooooooooooooooooooooooooooooooooooooooooo++++++++........oooooooooooooooo",
"ooooooooooooooooooooooooooooooooOOOOOOOO........oooooooooooooooooooooooooooooooooooooooooooooooo++++++++........oooooooooooooooo",
"ooooooooooooooooooooooooooooooooOOOOOOOO........oooooooooooooooooooooooooooooooooooooooooooooooo++++++++........oooooooooooooooo",
"ooooooooooooooooooooooooooooooooOOOOOOOO........oooooooooooooooooooooooooooooooooooooooooooooooo++++++++........oooooooooooooooo",
"XXXXXXXXOOOOOOOOOOOOOOOOOOOOOOOOOOOOOOOOXXXXXXXXXXXXXXXXXXXXXXXXXXXXXXXXOOOOOOOO++++++++++++++++++++++++XXXXXXXXXXXXXXXXXXXXXXXX",
"XXXXXXXXOOOOOOOOOOOOOOOOOOOOOOOOOOOOOOOOXXXXXXXXXXXXXXXXXXXXXXXXXXXXXXXXOOOOOOOO++++++++++++++++++++++++XXXXXXXXXXXXXXXXXXXXXXXX",
"XXXXXXXXOOOOOOOOOOOOOOOOOOOOOOOOOOOOOOOOXXXXXXXXXXXXXXXXXXXXXXXXXXXXXXXXOOOOOOOO++++++++++++++++++++++++XXXXXXXXXXXXXXXXXXXXXXXX",
"XXXXXXXXOOOOOOOOOOOOOOOOOOOOOOOOOOOOOOOOXXXXXXXXXXXXXXXXXXXXXXXXXXXXXXXXOOOOOOOO++++++++++++++++++++++++XXXXXXXXXXXXXXXXXXXXXXXX",
"XXXXXXXXOOOOOOOOOOOOOOOOOOOOOOOOOOOOOOOOXXXXXXXXXXXXXXXXXXXXXXXXXXXXXXXXOOOOOOOO++++++++++++++++++++++++XXXXXXXXXXXXXXXXXXXXXXXX",
"XXXXXXXXOOOOOOOOOOOOOOOOOOOOOOOOOOOOOOOOXXXXXXXXXXXXXXXXXXXXXXXXXXXXXXXXOOOOOOOO++++++++++++++++++++++++XXXXXXXXXXXXXXXXXXXXXXXX",
"XXXXXXXXOOOOOOOOOOOOOOOOOOOOOOOOOOOOOOOOXXXXXXXXXXXXXXXXXXXXXXXXXXXXXXXXOOOOOOOO++++++++++++++++++++++++XXXXXXXXXXXXXXXXXXXXXXXX",
"XXXXXXXXOOOOOOOOOOOOOOOOOOOOOOOOOOOOOOOOXXXXXXXXXXXXXXXXXXXXXXXXXXXXXXXXOOOOOOOO++++++++++++++++++++++++XXXXXXXXXXXXXXXXXXXXXXXX",
"OOOOOOOO                                                ........OOOOOOOO                                                ........",
"OOOOOOOO                                                ........OOOOOOOO                                                ........",
"OOOOOOOO                                                ........OOOOOOOO                                                ........",
"OOOOOOOO                                                ........OOOOOOOO                                                ........",
"OOOOOOOO                                                ........OOOOOOOO                                                ........",
"OOOOOOOO                                                ........OOOOOOOO                                                ........",
"OOOOOOOO                                                ........OOOOOOOO                                                ........",
"OOOOOOOO                                                ........OOOOOOOO                                                ........",
"++++++++        ........................................ooooooooOOOOOOOO        ........................................oooooooo",
"++++++++        ........................................ooooooooOOOOOOOO        ........................................oooooooo",
"++++++++        ........................................ooooooooOOOOOOOO        ........................................oooooooo",
"++++++++        ........................................ooooooooOOOOOOOO        ........................................oooooooo",
"++++++++        ........................................ooooooooOOOOOOOO        ........................................oooooooo",
"++++++++        ........................................ooooooooOOOOOOOO        ........................................oooooooo",
"++++++++        ........................................ooooooooOOOOOOOO        ........................................oooooooo",
"++++++++        ........................................ooooooooOOOOOOOO        ........................................oooooooo",
"XXXXXXXX........ooooooooooooooooooooooooooooooooooooooooooooooooOOOOOOOO........oooooooooooooooooooooooooooooooooooooooooooooooo",
"XXXXXXXX........ooooooooooooooooooooooooooooooooooooooooooooooooOOOOOOOO........oooooooooooooooooooooooooooooooooooooooooooooooo",
"XXXXXXXX........ooooooooooooooooooooooooooooooooooooooooooooooooOOOOOOOO........oooooooooooooooooooooooooooooooooooooooooooooooo",
"XXXXXXXX........ooooooooooooooooooooooooooooooooooooooooooooooooOOOOOOOO........oooooooooooooooooooooooooooooooooooooooooooooooo",
"XXXXXXXX........ooooooooooooooooooooooooooooooooooooooooooooooooOOOOOOOO........oooooooooooooooooooooooooooooooooooooooooooooooo",
"XXXXXXXX........ooooooooooooooooooooooooooooooooooooooooooooooooOOOOOOOO........oooooooooooooooooooooooooooooooooooooooooooooooo",
"XXXXXXXX........ooooooooooooooooooooooooooooooooooooooooooooooooOOOOOOOO........oooooooooooooooooooooooooooooooooooooooooooooooo",
"XXXXXXXX........ooooooooooooooooooooooooooooooooooooooooooooooooOOOOOOOO........oooooooooooooooooooooooooooooooooooooooooooooooo",
"XXXXXXXX++++++++OOOOOOOOXXXXXXXXXXXXXXXXXXXXXXXXXXXXXXXXOOOOOOOO++++++++++++++++++++++++XXXXXXXXXXXXXXXXXXXXXXXXXXXXXXXXXXXXXXXX",
"XXXXXXXX++++++++OOOOOOOOXXXXXXXXXXXXXXXXXXXXXXXXXXXXXXXXOOOOOOOO++++++++++++++++++++++++XXXXXXXXXXXXXXXXXXXXXXXXXXXXXXXXXXXXXXXX",
"XXXXXXXX++++++++OOOOOOOOXXXXXXXXXXXXXXXXXXXXXXXXXXXXXXXXOOOOOOOO++++++++++++++++++++++++XXXXXXXXXXXXXXXXXXXXXXXXXXXXXXXXXXXXXXXX",
"XXXXXXXX++++++++OOOOOOOOXXXXXXXXXXXXXXXXXXXXXXXXXXXXXXXXOOOOOOOO++++++++++++++++++++++++XXXXXXXXXXXXXXXXXXXXXXXXXXXXXXXXXXXXXXXX",
"XXXXXXXX++++++++OOOOOOOOXXXXXXXXXXXXXXXXXXXXXXXXXXXXXXXXOOOOOOOO++++++++++++++++++++++++XXXXXXXXXXXXXXXXXXXXXXXXXXXXXXXXXXXXXXXX",
"XXXXXXXX++++++++OOOOOOOOXXXXXXXXXXXXXXXXXXXXXXXXXXXXXXXXOOOOOOOO++++++++++++++++++++++++XXXXXXXXXXXXXXXXXXXXXXXXXXXXXXXXXXXXXXXX",
"XXXXXXXX++++++++OOOOOOOOXXXXXXXXXXXXXXXXXXXXXXXXXXXXXXXXOOOOOOOO++++++++++++++++++++++++XXXXXXXXXXXXXXXXXXXXXXXXXXXXXXXXXXXXXXXX",
"XXXXXXXX++++++++OOOOOOOOXXXXXXXXXXXXXXXXXXXXXXXXXXXXXXXXOOOOOOOO++++++++++++++++++++++++XXXXXXXXXXXXXXXXXXXXXXXXXXXXXXXXXXXXXXXX",
"                        ........OOOOOOOO                                                ........XXXXXXXX                        ",
"                        ........OOOOOOOO                                                ........XXXXXXXX                        ",
"                        ........OOOOOOOO                                                ........XXXXXXXX                        ",
"                        ........OOOOOOOO                                                ........XXXXXXXX                        ",
"                        ........OOOOOOOO                                                ........XXXXXXXX                        ",
"                        ........OOOOOOOO                                                ........XXXXXXXX                        ",
"                        ........OOOOOOOO                                                ........XXXXXXXX                        ",
"                        ........OOOOOOOO                                                ........XXXXXXXX                        ",
"........................ooooooooOOOOOOOO        ........................................ooooooooXXXXXXXX        ................",
"........................ooooooooOOOOOOOO        ........................................ooooooooXXXXXXXX        ................",
"........................ooooooooOOOOOOOO        ........................................ooooooooXXXXXXXX        ................",
"........................ooooooooOOOOOOOO        ........................................ooooooooXXXXXXXX        ................",
"........................ooooooooOOOOOOOO        ........................................ooooooooXXXXXXXX        ................",
"........................ooooooooOOOOOOOO        ........................................ooooooooXXXXXXXX        ................",
"........................ooooooooOOOOOOOO        ........................................ooooooooXXXXXXXX        ................",
"........................ooooooooOOOOOOOO        ........................................ooooooooXXXXXXXX        ................",
"ooooooooooooooooooooooooooooooooOOOOOOOO........ooooooooooooooooooooooooooooooooooooooooooooooooOOOOOOOO........oooooooooooooooo",
"ooooooooooooooooooooooooooooooooOOOOOOOO........ooooooooooooooooooooooooooooooooooooooooooooooooOOOOOOOO........oooooooooooooooo",
"ooooooooooooooooooooooooooooooooOOOOOOOO........ooooooooooooooooooooooooooooooooooooooooooooooooOOOOOOOO........oooooooooooooooo",
"ooooooooooooooooooooooooooooooooOOOOOOOO........ooooooooooooooooooooooooooooooooooooooooooooooooOOOOOOOO........oooooooooooooooo",
"ooooooooooooooooooooooooooooooooOOOOOOOO........ooooooooooooooooooooooooooooooooooooooooooooooooOOOOOOOO........oooooooooooooooo",
"ooooooooooooooooooooooooooooooooOOOOOOOO........ooooooooooooooooooooooooooooooooooooooooooooooooOOOOOOOO........oooooooooooooooo",
"ooooooooooooooooooooooooooooooooOOOOOOOO........ooooooooooooooooooooooooooooooooooooooooooooooooOOOOOOOO........oooooooooooooooo",
"ooooooooooooooooooooooooooooooooOOOOOOOO........ooooooooooooooooooooooooooooooooooooooooooooooooOOOOOOOO........oooooooooooooooo",
"++++++++XXXXXXXX++++++++++++++++OOOOOOOOOOOOOOOOXXXXXXXXXXXXXXXX++++++++++++++++XXXXXXXXXXXXXXXX++++++++OOOOOOOO++++++++XXXXXXXX",
"++++++++XXXXXXXX++++++++++++++++OOOOOOOOOOOOOOOOXXXXXXXXXXXXXXXX++++++++++++++++XXXXXXXXXXXXXXXX++++++++OOOOOOOO++++++++XXXXXXXX",
"++++++++XXXXXXXX++++++++++++++++OOOOOOOOOOOOOOOOXXXXXXXXXXXXXXXX++++++++++++++++XXXXXXXXXXXXXXXX++++++++OOOOOOOO++++++++XXXXXXXX",
"++++++++XXXXXXXX++++++++++++++++OOOOOOOOOOOOOOOOXXXXXXXXXXXXXXXX++++++++++++++++XXXXXXXXXXXXXXXX++++++++OOOOOOOO++++++++XXXXXXXX",
"++++++++XXXXXXXX++++++++++++++++OOOOOOOOOOOOOOOOXXXXXXXXXXXXXXXX++++++++++++++++XXXXXXXXXXXXXXXX++++++++OOOOOOOO++++++++XXXXXXXX",
"++++++++XXXXXXXX++++++++++++++++OOOOOOOOOOOOOOOOXXXXXXXXXXXXXXXX++++++++++++++++XXXXXXXXXXXXXXXX++++++++OOOOOOOO++++++++XXXXXXXX",
"++++++++XXXXXXXX++++++++++++++++OOOOOOOOOOOOOOOOXXXXXXXXXXXXXXXX++++++++++++++++XXXXXXXXXXXXXXXX++++++++OOOOOOOO++++++++XXXXXXXX",
"++++++++XXXXXXXX++++++++++++++++OOOOOOOOOOOOOOOOXXXXXXXXXXXXXXXX++++++++++++++++XXXXXXXXXXXXXXXX++++++++OOOOOOOO++++++++XXXXXXXX",
"OOOOOOOO                                                ........OOOOOOOO                                                ........",
"OOOOOOOO                                                ........OOOOOOOO                                                ........",
"OOOOOOOO                                                ........OOOOOOOO                                                ........",
"OOOOOOOO                                                ........OOOOOOOO                                                ........",
"OOOOOOOO                                                ........OOOOOOOO                                                ........",
"OOOOOOOO                                                ........OOOOOOOO                                                ........",
"OOOOOOOO                                                ........OOOOOOOO                                                ........",
"OOOOOOOO                                                ........OOOOOOOO                                                ........",
"XXXXXXXX        ........................................ooooooooOOOOOOOO        ........................................oooooooo",
"XXXXXXXX        ........................................ooooooooOOOOOOOO        ........................................oooooooo",
"XXXXXXXX        ........................................ooooooooOOOOOOOO        ........................................oooooooo",
"XXXXXXXX        ........................................ooooooooOOOOOOOO        ........................................oooooooo",
"XXXXXXXX        ........................................ooooooooOOOOOOOO        ........................................oooooooo",
"XXXXXXXX        ........................................ooooooooOOOOOOOO        ........................................oooooooo",
"XXXXXXXX        ........................................ooooooooOOOOOOOO        ........................................oooooooo",
"XXXXXXXX        ........................................ooooooooOOOOOOOO        ........................................oooooooo",
"++++++++........ooooooooooooooooooooooooooooooooooooooooooooooooOOOOOOOO........oooooooooooooooooooooooooooooooooooooooooooooooo",
"++++++++........ooooooooooooooooooooooooooooooooooooooooooooooooOOOOOOOO........oooooooooooooooooooooooooooooooooooooooooooooooo",
"++++++++........ooooooooooooooooooooooooooooooooooooooooooooooooOOOOOOOO........oooooooooooooooooooooooooooooooooooooooooooooooo",
"++++++++........ooooooooooooooooooooooooooooooooooooooooooooooooOOOOOOOO........oooooooooooooooooooooooooooooooooooooooooooooooo",
"++++++++........ooooooooooooooooooooooooooooooooooooooooooooooooOOOOOOOO........oooooooooooooooooooooooooooooooooooooooooooooooo",
"++++++++........ooooooooooooooooooooooooooooooooooooooooooooooooOOOOOOOO........oooooooooooooooooooooooooooooooooooooooooooooooo",
"++++++++........ooooooooooooooooooooooooooooooooooooooooooooooooOOOOOOOO........oooooooooooooooooooooooooooooooooooooooooooooooo",
"++++++++........ooooooooooooooooooooooooooooooooooooooooooooooooOOOOOOOO........oooooooooooooooooooooooooooooooooooooooooooooooo",
"XXXXXXXX++++++++OOOOOOOOXXXXXXXXXXXXXXXXXXXXXXXXXXXXXXXX++++++++++++++++XXXXXXXXXXXXXXXX++++++++XXXXXXXXXXXXXXXXXXXXXXXXXXXXXXXX",
"XXXXXXXX++++++++OOOOOOOOXXXXXXXXXXXXXXXXXXXXXXXXXXXXXXXX++++++++++++++++XXXXXXXXXXXXXXXX++++++++XXXXXXXXXXXXXXXXXXXXXXXXXXXXXXXX",
"XXXXXXXX++++++++OOOOOOOOXXXXXXXXXXXXXXXXXXXXXXXXXXXXXXXX++++++++++++++++XXXXXXXXXXXXXXXX++++++++XXXXXXXXXXXXXXXXXXXXXXXXXXXXXXXX",
"XXXXXXXX++++++++OOOOOOOOXXXXXXXXXXXXXXXXXXXXXXXXXXXXXXXX++++++++++++++++XXXXXXXXXXXXXXXX++++++++XXXXXXXXXXXXXXXXXXXXXXXXXXXXXXXX",
"XXXXXXXX++++++++OOOOOOOOXXXXXXXXXXXXXXXXXXXXXXXXXXXXXXXX++++++++++++++++XXXXXXXXXXXXXXXX++++++++XXXXXXXXXXXXXXXXXXXXXXXXXXXXXXXX",
"XXXXXXXX++++++++OOOOOOOOXXXXXXXXXXXXXXXXXXXXXXXXXXXXXXXX++++++++++++++++XXXXXXXXXXXXXXXX++++++++XXXXXXXXXXXXXXXXXXXXXXXXXXXXXXXX",
"XXXXXXXX++++++++OOOOOOOOXXXXXXXXXXXXXXXXXXXXXXXXXXXXXXXX++++++++++++++++XXXXXXXXXXXXXXXX++++++++XXXXXXXXXXXXXXXXXXXXXXXXXXXXXXXX",
"XXXXXXXX++++++++OOOOOOOOXXXXXXXXXXXXXXXXXXXXXXXXXXXXXXXX++++++++++++++++XXXXXXXXXXXXXXXX++++++++XXXXXXXXXXXXXXXXXXXXXXXXXXXXXXXX"
};
